G75*
%MOIN*%
%OFA0B0*%
%FSLAX25Y25*%
%IPPOS*%
%LPD*%
%AMOC8*
5,1,8,0,0,1.08239X$1,22.5*
%
%ADD10C,0.00000*%
%ADD11OC8,0.06400*%
%ADD12C,0.20400*%
%ADD13C,0.05600*%
%ADD14R,0.05518X0.06306*%
D10*
X0014700Y0027800D02*
X0196550Y0027800D01*
X0196731Y0027802D01*
X0196912Y0027809D01*
X0197093Y0027820D01*
X0197274Y0027835D01*
X0197454Y0027855D01*
X0197634Y0027879D01*
X0197813Y0027907D01*
X0197991Y0027940D01*
X0198168Y0027977D01*
X0198345Y0028018D01*
X0198520Y0028063D01*
X0198695Y0028113D01*
X0198868Y0028167D01*
X0199039Y0028225D01*
X0199210Y0028287D01*
X0199378Y0028354D01*
X0199545Y0028424D01*
X0199711Y0028498D01*
X0199874Y0028577D01*
X0200035Y0028659D01*
X0200195Y0028745D01*
X0200352Y0028835D01*
X0200507Y0028929D01*
X0200660Y0029026D01*
X0200810Y0029128D01*
X0200958Y0029232D01*
X0201104Y0029341D01*
X0201246Y0029452D01*
X0201386Y0029568D01*
X0201523Y0029686D01*
X0201658Y0029808D01*
X0201789Y0029933D01*
X0201917Y0030061D01*
X0202042Y0030192D01*
X0202164Y0030327D01*
X0202282Y0030464D01*
X0202398Y0030604D01*
X0202509Y0030746D01*
X0202618Y0030892D01*
X0202722Y0031040D01*
X0202824Y0031190D01*
X0202921Y0031343D01*
X0203015Y0031498D01*
X0203105Y0031655D01*
X0203191Y0031815D01*
X0203273Y0031976D01*
X0203352Y0032139D01*
X0203426Y0032305D01*
X0203496Y0032472D01*
X0203563Y0032640D01*
X0203625Y0032811D01*
X0203683Y0032982D01*
X0203737Y0033155D01*
X0203787Y0033330D01*
X0203832Y0033505D01*
X0203873Y0033682D01*
X0203910Y0033859D01*
X0203943Y0034037D01*
X0203971Y0034216D01*
X0203995Y0034396D01*
X0204015Y0034576D01*
X0204030Y0034757D01*
X0204041Y0034938D01*
X0204048Y0035119D01*
X0204050Y0035300D01*
X0204050Y0217150D01*
X0204048Y0217331D01*
X0204041Y0217512D01*
X0204030Y0217693D01*
X0204015Y0217874D01*
X0203995Y0218054D01*
X0203971Y0218234D01*
X0203943Y0218413D01*
X0203910Y0218591D01*
X0203873Y0218768D01*
X0203832Y0218945D01*
X0203787Y0219120D01*
X0203737Y0219295D01*
X0203683Y0219468D01*
X0203625Y0219639D01*
X0203563Y0219810D01*
X0203496Y0219978D01*
X0203426Y0220145D01*
X0203352Y0220311D01*
X0203273Y0220474D01*
X0203191Y0220635D01*
X0203105Y0220795D01*
X0203015Y0220952D01*
X0202921Y0221107D01*
X0202824Y0221260D01*
X0202722Y0221410D01*
X0202618Y0221558D01*
X0202509Y0221704D01*
X0202398Y0221846D01*
X0202282Y0221986D01*
X0202164Y0222123D01*
X0202042Y0222258D01*
X0201917Y0222389D01*
X0201789Y0222517D01*
X0201658Y0222642D01*
X0201523Y0222764D01*
X0201386Y0222882D01*
X0201246Y0222998D01*
X0201104Y0223109D01*
X0200958Y0223218D01*
X0200810Y0223322D01*
X0200660Y0223424D01*
X0200507Y0223521D01*
X0200352Y0223615D01*
X0200195Y0223705D01*
X0200035Y0223791D01*
X0199874Y0223873D01*
X0199711Y0223952D01*
X0199545Y0224026D01*
X0199378Y0224096D01*
X0199210Y0224163D01*
X0199039Y0224225D01*
X0198868Y0224283D01*
X0198695Y0224337D01*
X0198520Y0224387D01*
X0198345Y0224432D01*
X0198168Y0224473D01*
X0197991Y0224510D01*
X0197813Y0224543D01*
X0197634Y0224571D01*
X0197454Y0224595D01*
X0197274Y0224615D01*
X0197093Y0224630D01*
X0196912Y0224641D01*
X0196731Y0224648D01*
X0196550Y0224650D01*
X0014700Y0224650D01*
X0014519Y0224648D01*
X0014338Y0224641D01*
X0014157Y0224630D01*
X0013976Y0224615D01*
X0013796Y0224595D01*
X0013616Y0224571D01*
X0013437Y0224543D01*
X0013259Y0224510D01*
X0013082Y0224473D01*
X0012905Y0224432D01*
X0012730Y0224387D01*
X0012555Y0224337D01*
X0012382Y0224283D01*
X0012211Y0224225D01*
X0012040Y0224163D01*
X0011872Y0224096D01*
X0011705Y0224026D01*
X0011539Y0223952D01*
X0011376Y0223873D01*
X0011215Y0223791D01*
X0011055Y0223705D01*
X0010898Y0223615D01*
X0010743Y0223521D01*
X0010590Y0223424D01*
X0010440Y0223322D01*
X0010292Y0223218D01*
X0010146Y0223109D01*
X0010004Y0222998D01*
X0009864Y0222882D01*
X0009727Y0222764D01*
X0009592Y0222642D01*
X0009461Y0222517D01*
X0009333Y0222389D01*
X0009208Y0222258D01*
X0009086Y0222123D01*
X0008968Y0221986D01*
X0008852Y0221846D01*
X0008741Y0221704D01*
X0008632Y0221558D01*
X0008528Y0221410D01*
X0008426Y0221260D01*
X0008329Y0221107D01*
X0008235Y0220952D01*
X0008145Y0220795D01*
X0008059Y0220635D01*
X0007977Y0220474D01*
X0007898Y0220311D01*
X0007824Y0220145D01*
X0007754Y0219978D01*
X0007687Y0219810D01*
X0007625Y0219639D01*
X0007567Y0219468D01*
X0007513Y0219295D01*
X0007463Y0219120D01*
X0007418Y0218945D01*
X0007377Y0218768D01*
X0007340Y0218591D01*
X0007307Y0218413D01*
X0007279Y0218234D01*
X0007255Y0218054D01*
X0007235Y0217874D01*
X0007220Y0217693D01*
X0007209Y0217512D01*
X0007202Y0217331D01*
X0007200Y0217150D01*
X0007200Y0035300D01*
X0007202Y0035119D01*
X0007209Y0034938D01*
X0007220Y0034757D01*
X0007235Y0034576D01*
X0007255Y0034396D01*
X0007279Y0034216D01*
X0007307Y0034037D01*
X0007340Y0033859D01*
X0007377Y0033682D01*
X0007418Y0033505D01*
X0007463Y0033330D01*
X0007513Y0033155D01*
X0007567Y0032982D01*
X0007625Y0032811D01*
X0007687Y0032640D01*
X0007754Y0032472D01*
X0007824Y0032305D01*
X0007898Y0032139D01*
X0007977Y0031976D01*
X0008059Y0031815D01*
X0008145Y0031655D01*
X0008235Y0031498D01*
X0008329Y0031343D01*
X0008426Y0031190D01*
X0008528Y0031040D01*
X0008632Y0030892D01*
X0008741Y0030746D01*
X0008852Y0030604D01*
X0008968Y0030464D01*
X0009086Y0030327D01*
X0009208Y0030192D01*
X0009333Y0030061D01*
X0009461Y0029933D01*
X0009592Y0029808D01*
X0009727Y0029686D01*
X0009864Y0029568D01*
X0010004Y0029452D01*
X0010146Y0029341D01*
X0010292Y0029232D01*
X0010440Y0029128D01*
X0010590Y0029026D01*
X0010743Y0028929D01*
X0010898Y0028835D01*
X0011055Y0028745D01*
X0011215Y0028659D01*
X0011376Y0028577D01*
X0011539Y0028498D01*
X0011705Y0028424D01*
X0011872Y0028354D01*
X0012040Y0028287D01*
X0012211Y0028225D01*
X0012382Y0028167D01*
X0012555Y0028113D01*
X0012730Y0028063D01*
X0012905Y0028018D01*
X0013082Y0027977D01*
X0013259Y0027940D01*
X0013437Y0027907D01*
X0013616Y0027879D01*
X0013796Y0027855D01*
X0013976Y0027835D01*
X0014157Y0027820D01*
X0014338Y0027809D01*
X0014519Y0027802D01*
X0014700Y0027800D01*
D11*
X0065600Y0075300D03*
X0071000Y0065300D03*
X0076400Y0075300D03*
X0081800Y0065300D03*
X0087200Y0075300D03*
X0092600Y0065300D03*
X0098000Y0075300D03*
X0103400Y0065300D03*
X0108800Y0075300D03*
X0182200Y0075300D03*
X0182200Y0065300D03*
X0182200Y0055300D03*
X0182200Y0045300D03*
X0192200Y0045300D03*
X0192200Y0055300D03*
X0192200Y0065300D03*
X0192200Y0075300D03*
X0192200Y0085300D03*
X0182200Y0085300D03*
X0157500Y0177800D03*
X0152100Y0187800D03*
X0146700Y0177800D03*
X0141300Y0187800D03*
X0135900Y0177800D03*
X0130500Y0187800D03*
X0125100Y0177800D03*
X0119700Y0187800D03*
X0114300Y0177800D03*
X0108900Y0187800D03*
X0103500Y0177800D03*
X0098100Y0187800D03*
X0092700Y0177800D03*
X0087300Y0187800D03*
X0081900Y0177800D03*
X0024700Y0180300D03*
X0024700Y0170300D03*
X0024700Y0160300D03*
X0024700Y0150300D03*
X0024700Y0140300D03*
X0014700Y0140300D03*
X0014700Y0150300D03*
X0014700Y0160300D03*
X0014700Y0170300D03*
X0014700Y0180300D03*
X0014700Y0190300D03*
X0014700Y0200300D03*
X0014700Y0210300D03*
X0024700Y0210300D03*
X0024700Y0200300D03*
X0024700Y0190300D03*
D12*
X0054100Y0182800D03*
X0037900Y0070300D03*
X0136500Y0070300D03*
X0185300Y0182800D03*
D13*
X0186700Y0137800D03*
X0167700Y0137800D03*
D14*
G36*
X0119239Y0132201D02*
X0123141Y0128299D01*
X0118683Y0123841D01*
X0114781Y0127743D01*
X0119239Y0132201D01*
G37*
G36*
X0113949Y0137491D02*
X0117851Y0133589D01*
X0113393Y0129131D01*
X0109491Y0133033D01*
X0113949Y0137491D01*
G37*
G36*
X0091397Y0137705D02*
X0095299Y0141607D01*
X0099757Y0137149D01*
X0095855Y0133247D01*
X0091397Y0137705D01*
G37*
G36*
X0086108Y0132416D02*
X0090010Y0136318D01*
X0094468Y0131860D01*
X0090566Y0127958D01*
X0086108Y0132416D01*
G37*
G36*
X0088217Y0117491D02*
X0092119Y0113589D01*
X0087661Y0109131D01*
X0083759Y0113033D01*
X0088217Y0117491D01*
G37*
G36*
X0093507Y0112201D02*
X0097409Y0108299D01*
X0092951Y0103841D01*
X0089049Y0107743D01*
X0093507Y0112201D01*
G37*
G36*
X0107358Y0102933D02*
X0111260Y0106835D01*
X0115718Y0102377D01*
X0111816Y0098475D01*
X0107358Y0102933D01*
G37*
G36*
X0112647Y0108223D02*
X0116549Y0112125D01*
X0121007Y0107667D01*
X0117105Y0103765D01*
X0112647Y0108223D01*
G37*
M02*
