%
M48
M72
T01C0.0236
T02C0.0320
T03C0.0400
T04C0.1300
%
T01
X6392Y9130
X7658Y9780
X6970Y11905
X7345Y13843
X8783Y15218
X7595Y16655
X10095Y16155
X10470Y13905
X11283Y13280
X12345Y14405
X12470Y11905
X11095Y10280
X10658Y8905
X9678Y10280
X9845Y12405
X11970Y8405
X15845Y8905
X16345Y16405
X1908Y22155
T02
X16770Y13780
X18670Y13780
T03
X15750Y17780
X15210Y18780
X14670Y17780
X14130Y18780
X13590Y17780
X13050Y18780
X12510Y17780
X11970Y18780
X11430Y17780
X10890Y18780
X10350Y17780
X9810Y18780
X9270Y17780
X8730Y18780
X8190Y17780
X2470Y18030
X2470Y17030
X2470Y16030
X2470Y15030
X2470Y14030
X1470Y14030
X1470Y15030
X1470Y16030
X1470Y17030
X1470Y18030
X1470Y19030
X1470Y20030
X1470Y21030
X2470Y21030
X2470Y20030
X2470Y19030
X6560Y7530
X7100Y6530
X7640Y7530
X8180Y6530
X8720Y7530
X9260Y6530
X9800Y7530
X10340Y6530
X10880Y7530
X18220Y7530
X18220Y6530
X18220Y5530
X18220Y4530
X19220Y4530
X19220Y5530
X19220Y6530
X19220Y7530
X19220Y8530
X18220Y8530
T04
X3790Y7030
X5410Y18280
X13650Y7030
X18530Y18280
M30
