G75*
%MOIN*%
%OFA0B0*%
%FSLAX25Y25*%
%IPPOS*%
%LPD*%
%AMOC8*
5,1,8,0,0,1.08239X$1,22.5*
%
%ADD10C,0.00000*%
%ADD11C,0.03200*%
%ADD12C,0.00900*%
%ADD13C,0.01600*%
%ADD14C,0.01700*%
%ADD15C,0.01100*%
%ADD16C,0.00800*%
%ADD17C,0.01000*%
%ADD18R,0.04528X0.01574*%
%ADD19R,0.04528X0.01575*%
%ADD20R,0.04528X0.01575*%
%ADD21R,0.01574X0.04528*%
%ADD22R,0.01575X0.04528*%
%ADD23R,0.01575X0.04528*%
%ADD24C,0.01500*%
%ADD25C,0.00600*%
%ADD26C,0.00500*%
%ADD27R,0.01000X0.09500*%
%ADD28R,0.04000X0.06500*%
%ADD29R,1.55000X0.02000*%
%ADD30R,1.06000X0.03000*%
%ADD31R,0.03200X0.28500*%
%ADD32R,0.03200X0.18500*%
%ADD33R,0.73000X0.03000*%
%ADD34R,1.22000X0.02000*%
%ADD35R,0.02000X0.02000*%
%ADD36C,0.03300*%
%ADD37R,0.03400X0.01600*%
D10*
X0014700Y0027800D02*
X0196550Y0027800D01*
X0196731Y0027802D01*
X0196912Y0027809D01*
X0197093Y0027820D01*
X0197274Y0027835D01*
X0197454Y0027855D01*
X0197634Y0027879D01*
X0197813Y0027907D01*
X0197991Y0027940D01*
X0198168Y0027977D01*
X0198345Y0028018D01*
X0198520Y0028063D01*
X0198695Y0028113D01*
X0198868Y0028167D01*
X0199039Y0028225D01*
X0199210Y0028287D01*
X0199378Y0028354D01*
X0199545Y0028424D01*
X0199711Y0028498D01*
X0199874Y0028577D01*
X0200035Y0028659D01*
X0200195Y0028745D01*
X0200352Y0028835D01*
X0200507Y0028929D01*
X0200660Y0029026D01*
X0200810Y0029128D01*
X0200958Y0029232D01*
X0201104Y0029341D01*
X0201246Y0029452D01*
X0201386Y0029568D01*
X0201523Y0029686D01*
X0201658Y0029808D01*
X0201789Y0029933D01*
X0201917Y0030061D01*
X0202042Y0030192D01*
X0202164Y0030327D01*
X0202282Y0030464D01*
X0202398Y0030604D01*
X0202509Y0030746D01*
X0202618Y0030892D01*
X0202722Y0031040D01*
X0202824Y0031190D01*
X0202921Y0031343D01*
X0203015Y0031498D01*
X0203105Y0031655D01*
X0203191Y0031815D01*
X0203273Y0031976D01*
X0203352Y0032139D01*
X0203426Y0032305D01*
X0203496Y0032472D01*
X0203563Y0032640D01*
X0203625Y0032811D01*
X0203683Y0032982D01*
X0203737Y0033155D01*
X0203787Y0033330D01*
X0203832Y0033505D01*
X0203873Y0033682D01*
X0203910Y0033859D01*
X0203943Y0034037D01*
X0203971Y0034216D01*
X0203995Y0034396D01*
X0204015Y0034576D01*
X0204030Y0034757D01*
X0204041Y0034938D01*
X0204048Y0035119D01*
X0204050Y0035300D01*
X0204050Y0217150D01*
X0204048Y0217331D01*
X0204041Y0217512D01*
X0204030Y0217693D01*
X0204015Y0217874D01*
X0203995Y0218054D01*
X0203971Y0218234D01*
X0203943Y0218413D01*
X0203910Y0218591D01*
X0203873Y0218768D01*
X0203832Y0218945D01*
X0203787Y0219120D01*
X0203737Y0219295D01*
X0203683Y0219468D01*
X0203625Y0219639D01*
X0203563Y0219810D01*
X0203496Y0219978D01*
X0203426Y0220145D01*
X0203352Y0220311D01*
X0203273Y0220474D01*
X0203191Y0220635D01*
X0203105Y0220795D01*
X0203015Y0220952D01*
X0202921Y0221107D01*
X0202824Y0221260D01*
X0202722Y0221410D01*
X0202618Y0221558D01*
X0202509Y0221704D01*
X0202398Y0221846D01*
X0202282Y0221986D01*
X0202164Y0222123D01*
X0202042Y0222258D01*
X0201917Y0222389D01*
X0201789Y0222517D01*
X0201658Y0222642D01*
X0201523Y0222764D01*
X0201386Y0222882D01*
X0201246Y0222998D01*
X0201104Y0223109D01*
X0200958Y0223218D01*
X0200810Y0223322D01*
X0200660Y0223424D01*
X0200507Y0223521D01*
X0200352Y0223615D01*
X0200195Y0223705D01*
X0200035Y0223791D01*
X0199874Y0223873D01*
X0199711Y0223952D01*
X0199545Y0224026D01*
X0199378Y0224096D01*
X0199210Y0224163D01*
X0199039Y0224225D01*
X0198868Y0224283D01*
X0198695Y0224337D01*
X0198520Y0224387D01*
X0198345Y0224432D01*
X0198168Y0224473D01*
X0197991Y0224510D01*
X0197813Y0224543D01*
X0197634Y0224571D01*
X0197454Y0224595D01*
X0197274Y0224615D01*
X0197093Y0224630D01*
X0196912Y0224641D01*
X0196731Y0224648D01*
X0196550Y0224650D01*
X0014700Y0224650D01*
X0014519Y0224648D01*
X0014338Y0224641D01*
X0014157Y0224630D01*
X0013976Y0224615D01*
X0013796Y0224595D01*
X0013616Y0224571D01*
X0013437Y0224543D01*
X0013259Y0224510D01*
X0013082Y0224473D01*
X0012905Y0224432D01*
X0012730Y0224387D01*
X0012555Y0224337D01*
X0012382Y0224283D01*
X0012211Y0224225D01*
X0012040Y0224163D01*
X0011872Y0224096D01*
X0011705Y0224026D01*
X0011539Y0223952D01*
X0011376Y0223873D01*
X0011215Y0223791D01*
X0011055Y0223705D01*
X0010898Y0223615D01*
X0010743Y0223521D01*
X0010590Y0223424D01*
X0010440Y0223322D01*
X0010292Y0223218D01*
X0010146Y0223109D01*
X0010004Y0222998D01*
X0009864Y0222882D01*
X0009727Y0222764D01*
X0009592Y0222642D01*
X0009461Y0222517D01*
X0009333Y0222389D01*
X0009208Y0222258D01*
X0009086Y0222123D01*
X0008968Y0221986D01*
X0008852Y0221846D01*
X0008741Y0221704D01*
X0008632Y0221558D01*
X0008528Y0221410D01*
X0008426Y0221260D01*
X0008329Y0221107D01*
X0008235Y0220952D01*
X0008145Y0220795D01*
X0008059Y0220635D01*
X0007977Y0220474D01*
X0007898Y0220311D01*
X0007824Y0220145D01*
X0007754Y0219978D01*
X0007687Y0219810D01*
X0007625Y0219639D01*
X0007567Y0219468D01*
X0007513Y0219295D01*
X0007463Y0219120D01*
X0007418Y0218945D01*
X0007377Y0218768D01*
X0007340Y0218591D01*
X0007307Y0218413D01*
X0007279Y0218234D01*
X0007255Y0218054D01*
X0007235Y0217874D01*
X0007220Y0217693D01*
X0007209Y0217512D01*
X0007202Y0217331D01*
X0007200Y0217150D01*
X0007200Y0035300D01*
X0007202Y0035119D01*
X0007209Y0034938D01*
X0007220Y0034757D01*
X0007235Y0034576D01*
X0007255Y0034396D01*
X0007279Y0034216D01*
X0007307Y0034037D01*
X0007340Y0033859D01*
X0007377Y0033682D01*
X0007418Y0033505D01*
X0007463Y0033330D01*
X0007513Y0033155D01*
X0007567Y0032982D01*
X0007625Y0032811D01*
X0007687Y0032640D01*
X0007754Y0032472D01*
X0007824Y0032305D01*
X0007898Y0032139D01*
X0007977Y0031976D01*
X0008059Y0031815D01*
X0008145Y0031655D01*
X0008235Y0031498D01*
X0008329Y0031343D01*
X0008426Y0031190D01*
X0008528Y0031040D01*
X0008632Y0030892D01*
X0008741Y0030746D01*
X0008852Y0030604D01*
X0008968Y0030464D01*
X0009086Y0030327D01*
X0009208Y0030192D01*
X0009333Y0030061D01*
X0009461Y0029933D01*
X0009592Y0029808D01*
X0009727Y0029686D01*
X0009864Y0029568D01*
X0010004Y0029452D01*
X0010146Y0029341D01*
X0010292Y0029232D01*
X0010440Y0029128D01*
X0010590Y0029026D01*
X0010743Y0028929D01*
X0010898Y0028835D01*
X0011055Y0028745D01*
X0011215Y0028659D01*
X0011376Y0028577D01*
X0011539Y0028498D01*
X0011705Y0028424D01*
X0011872Y0028354D01*
X0012040Y0028287D01*
X0012211Y0028225D01*
X0012382Y0028167D01*
X0012555Y0028113D01*
X0012730Y0028063D01*
X0012905Y0028018D01*
X0013082Y0027977D01*
X0013259Y0027940D01*
X0013437Y0027907D01*
X0013616Y0027879D01*
X0013796Y0027855D01*
X0013976Y0027835D01*
X0014157Y0027820D01*
X0014338Y0027809D01*
X0014519Y0027802D01*
X0014700Y0027800D01*
D11*
X0065600Y0070800D02*
X0065600Y0074800D01*
X0071000Y0064800D02*
X0071000Y0060800D01*
X0076400Y0070800D02*
X0076400Y0074800D01*
X0081800Y0064800D02*
X0081800Y0060800D01*
X0087200Y0070800D02*
X0087200Y0074800D01*
X0092600Y0064800D02*
X0092600Y0060800D01*
X0098000Y0070800D02*
X0098000Y0074800D01*
X0103400Y0064800D02*
X0103400Y0060800D01*
X0108800Y0070800D02*
X0108800Y0074800D01*
X0177046Y0085300D02*
X0177048Y0085443D01*
X0177054Y0085586D01*
X0177064Y0085729D01*
X0177078Y0085872D01*
X0177096Y0086014D01*
X0177118Y0086156D01*
X0177143Y0086297D01*
X0177173Y0086437D01*
X0177207Y0086576D01*
X0177244Y0086715D01*
X0177285Y0086852D01*
X0177330Y0086988D01*
X0177379Y0087122D01*
X0177431Y0087256D01*
X0177488Y0087388D01*
X0177548Y0087518D01*
X0177611Y0087646D01*
X0177678Y0087773D01*
X0177748Y0087898D01*
X0177822Y0088020D01*
X0177900Y0088141D01*
X0177980Y0088259D01*
X0178064Y0088376D01*
X0178151Y0088489D01*
X0178242Y0088601D01*
X0178335Y0088709D01*
X0178431Y0088816D01*
X0178530Y0088919D01*
X0178632Y0089020D01*
X0178737Y0089117D01*
X0178845Y0089212D01*
X0178955Y0089304D01*
X0179067Y0089393D01*
X0179182Y0089478D01*
X0179299Y0089560D01*
X0179419Y0089639D01*
X0179541Y0089715D01*
X0179664Y0089787D01*
X0179790Y0089856D01*
X0179918Y0089921D01*
X0180047Y0089983D01*
X0180178Y0090041D01*
X0180311Y0090095D01*
X0180445Y0090146D01*
X0180580Y0090193D01*
X0180717Y0090236D01*
X0180855Y0090275D01*
X0180993Y0090311D01*
X0181133Y0090342D01*
X0181274Y0090370D01*
X0181415Y0090394D01*
X0181557Y0090414D01*
X0181699Y0090430D01*
X0181842Y0090442D01*
X0181985Y0090450D01*
X0182128Y0090454D01*
X0182272Y0090454D01*
X0182415Y0090450D01*
X0182558Y0090442D01*
X0182701Y0090430D01*
X0182843Y0090414D01*
X0182985Y0090394D01*
X0183126Y0090370D01*
X0183267Y0090342D01*
X0183407Y0090311D01*
X0183545Y0090275D01*
X0183683Y0090236D01*
X0183820Y0090193D01*
X0183955Y0090146D01*
X0184089Y0090095D01*
X0184222Y0090041D01*
X0184353Y0089983D01*
X0184482Y0089921D01*
X0184610Y0089856D01*
X0184736Y0089787D01*
X0184859Y0089715D01*
X0184981Y0089639D01*
X0185101Y0089560D01*
X0185218Y0089478D01*
X0185333Y0089393D01*
X0185445Y0089304D01*
X0185555Y0089212D01*
X0185663Y0089117D01*
X0185768Y0089020D01*
X0185870Y0088919D01*
X0185969Y0088816D01*
X0186065Y0088709D01*
X0186158Y0088601D01*
X0186249Y0088489D01*
X0186336Y0088376D01*
X0186420Y0088259D01*
X0186500Y0088141D01*
X0186578Y0088020D01*
X0186652Y0087898D01*
X0186722Y0087773D01*
X0186789Y0087646D01*
X0186852Y0087518D01*
X0186912Y0087388D01*
X0186969Y0087256D01*
X0187021Y0087122D01*
X0187070Y0086988D01*
X0187115Y0086852D01*
X0187156Y0086715D01*
X0187193Y0086576D01*
X0187227Y0086437D01*
X0187257Y0086297D01*
X0187282Y0086156D01*
X0187304Y0086014D01*
X0187322Y0085872D01*
X0187336Y0085729D01*
X0187346Y0085586D01*
X0187352Y0085443D01*
X0187354Y0085300D01*
X0187352Y0085157D01*
X0187346Y0085014D01*
X0187336Y0084871D01*
X0187322Y0084728D01*
X0187304Y0084586D01*
X0187282Y0084444D01*
X0187257Y0084303D01*
X0187227Y0084163D01*
X0187193Y0084024D01*
X0187156Y0083885D01*
X0187115Y0083748D01*
X0187070Y0083612D01*
X0187021Y0083478D01*
X0186969Y0083344D01*
X0186912Y0083212D01*
X0186852Y0083082D01*
X0186789Y0082954D01*
X0186722Y0082827D01*
X0186652Y0082702D01*
X0186578Y0082580D01*
X0186500Y0082459D01*
X0186420Y0082341D01*
X0186336Y0082224D01*
X0186249Y0082111D01*
X0186158Y0081999D01*
X0186065Y0081891D01*
X0185969Y0081784D01*
X0185870Y0081681D01*
X0185768Y0081580D01*
X0185663Y0081483D01*
X0185555Y0081388D01*
X0185445Y0081296D01*
X0185333Y0081207D01*
X0185218Y0081122D01*
X0185101Y0081040D01*
X0184981Y0080961D01*
X0184859Y0080885D01*
X0184736Y0080813D01*
X0184610Y0080744D01*
X0184482Y0080679D01*
X0184353Y0080617D01*
X0184222Y0080559D01*
X0184089Y0080505D01*
X0183955Y0080454D01*
X0183820Y0080407D01*
X0183683Y0080364D01*
X0183545Y0080325D01*
X0183407Y0080289D01*
X0183267Y0080258D01*
X0183126Y0080230D01*
X0182985Y0080206D01*
X0182843Y0080186D01*
X0182701Y0080170D01*
X0182558Y0080158D01*
X0182415Y0080150D01*
X0182272Y0080146D01*
X0182128Y0080146D01*
X0181985Y0080150D01*
X0181842Y0080158D01*
X0181699Y0080170D01*
X0181557Y0080186D01*
X0181415Y0080206D01*
X0181274Y0080230D01*
X0181133Y0080258D01*
X0180993Y0080289D01*
X0180855Y0080325D01*
X0180717Y0080364D01*
X0180580Y0080407D01*
X0180445Y0080454D01*
X0180311Y0080505D01*
X0180178Y0080559D01*
X0180047Y0080617D01*
X0179918Y0080679D01*
X0179790Y0080744D01*
X0179664Y0080813D01*
X0179541Y0080885D01*
X0179419Y0080961D01*
X0179299Y0081040D01*
X0179182Y0081122D01*
X0179067Y0081207D01*
X0178955Y0081296D01*
X0178845Y0081388D01*
X0178737Y0081483D01*
X0178632Y0081580D01*
X0178530Y0081681D01*
X0178431Y0081784D01*
X0178335Y0081891D01*
X0178242Y0081999D01*
X0178151Y0082111D01*
X0178064Y0082224D01*
X0177980Y0082341D01*
X0177900Y0082459D01*
X0177822Y0082580D01*
X0177748Y0082702D01*
X0177678Y0082827D01*
X0177611Y0082954D01*
X0177548Y0083082D01*
X0177488Y0083212D01*
X0177431Y0083344D01*
X0177379Y0083478D01*
X0177330Y0083612D01*
X0177285Y0083748D01*
X0177244Y0083885D01*
X0177207Y0084024D01*
X0177173Y0084163D01*
X0177143Y0084303D01*
X0177118Y0084444D01*
X0177096Y0084586D01*
X0177078Y0084728D01*
X0177064Y0084871D01*
X0177054Y0085014D01*
X0177048Y0085157D01*
X0177046Y0085300D01*
X0157500Y0178300D02*
X0157500Y0182300D01*
X0152100Y0188300D02*
X0152100Y0192300D01*
X0146700Y0182300D02*
X0146700Y0178300D01*
X0141300Y0188300D02*
X0141300Y0192300D01*
X0135900Y0182300D02*
X0135900Y0178300D01*
X0130500Y0188300D02*
X0130500Y0192300D01*
X0125100Y0182300D02*
X0125100Y0178300D01*
X0119700Y0188300D02*
X0119700Y0192300D01*
X0114300Y0182300D02*
X0114300Y0178300D01*
X0108900Y0188300D02*
X0108900Y0192300D01*
X0103500Y0182300D02*
X0103500Y0178300D01*
X0098100Y0188300D02*
X0098100Y0192300D01*
X0092700Y0182300D02*
X0092700Y0178300D01*
X0087300Y0188300D02*
X0087300Y0192300D01*
X0081900Y0182300D02*
X0081900Y0178300D01*
D12*
X0084562Y0121123D02*
X0083528Y0120089D01*
X0083528Y0118020D01*
X0083528Y0119572D02*
X0085596Y0119572D01*
X0085596Y0120089D02*
X0085596Y0118020D01*
X0085596Y0120089D02*
X0084562Y0121123D01*
X0087211Y0121123D02*
X0089280Y0121123D01*
X0088245Y0121123D02*
X0088245Y0118020D01*
X0090894Y0118020D02*
X0090894Y0121123D01*
X0091929Y0120089D01*
X0092963Y0121123D01*
X0092963Y0118020D01*
X0094577Y0118020D02*
X0094577Y0121123D01*
X0096646Y0121123D01*
X0098261Y0120606D02*
X0098261Y0118537D01*
X0098778Y0118020D01*
X0099812Y0118020D01*
X0100329Y0118537D01*
X0100329Y0119572D01*
X0099295Y0119572D01*
X0100329Y0120606D02*
X0099812Y0121123D01*
X0098778Y0121123D01*
X0098261Y0120606D01*
X0095612Y0119572D02*
X0094577Y0119572D01*
X0094577Y0118020D02*
X0096646Y0118020D01*
X0101944Y0118020D02*
X0101944Y0120089D01*
X0102978Y0121123D01*
X0104012Y0120089D01*
X0104012Y0118020D01*
X0104012Y0119572D02*
X0101944Y0119572D01*
X0105627Y0119572D02*
X0105627Y0118537D01*
X0106144Y0118020D01*
X0107178Y0118020D01*
X0107695Y0118537D01*
X0107695Y0119055D01*
X0107178Y0119572D01*
X0105627Y0119572D01*
X0106661Y0120606D01*
X0107695Y0121123D01*
X0109310Y0119572D02*
X0111378Y0119572D01*
X0112993Y0119572D02*
X0115062Y0119572D01*
X0116676Y0119572D02*
X0118745Y0119572D01*
X0118745Y0120089D02*
X0118745Y0118020D01*
X0116676Y0118020D02*
X0116676Y0120089D01*
X0117711Y0121123D01*
X0118745Y0120089D01*
X0114545Y0121123D02*
X0114545Y0118020D01*
X0112993Y0119572D02*
X0114545Y0121123D01*
X0110861Y0121123D02*
X0110861Y0118020D01*
X0109310Y0119572D02*
X0110861Y0121123D01*
X0071806Y0106723D02*
X0070343Y0108185D01*
X0068149Y0105991D01*
X0069246Y0107088D02*
X0069978Y0106357D01*
X0068470Y0108596D02*
X0067008Y0107133D01*
X0065911Y0108230D01*
X0065911Y0108961D01*
X0067008Y0110058D01*
X0066232Y0111566D02*
X0063306Y0111566D01*
X0063306Y0110835D01*
X0064038Y0110103D01*
X0064769Y0110103D01*
X0066232Y0111566D01*
X0066232Y0112297D01*
X0065500Y0113028D01*
X0064769Y0113028D01*
X0063306Y0111566D01*
X0061799Y0112342D02*
X0060336Y0113805D01*
X0061068Y0113073D02*
X0063262Y0115267D01*
X0061799Y0115267D01*
X0043492Y0093602D02*
X0042761Y0093602D01*
X0041298Y0092139D01*
X0041298Y0091408D01*
X0042029Y0090676D01*
X0042761Y0090676D01*
X0043902Y0089535D02*
X0043537Y0089169D01*
X0043902Y0089535D02*
X0046828Y0089535D01*
X0047193Y0089900D01*
X0045731Y0091363D01*
X0044223Y0092139D02*
X0044223Y0092870D01*
X0043492Y0093602D01*
X0026434Y0130750D02*
X0026951Y0131267D01*
X0026951Y0131784D01*
X0026434Y0132301D01*
X0024883Y0132301D01*
X0024883Y0131267D01*
X0025400Y0130750D01*
X0026434Y0130750D01*
X0024883Y0132301D02*
X0025917Y0133336D01*
X0026951Y0133853D01*
X0023268Y0130750D02*
X0021199Y0130750D01*
X0022234Y0130750D02*
X0022234Y0133853D01*
X0021199Y0132818D01*
X0015902Y0132301D02*
X0015902Y0131267D01*
X0015384Y0130750D01*
X0014350Y0130750D01*
X0013833Y0131267D01*
X0013833Y0132301D02*
X0014867Y0132818D01*
X0015384Y0132818D01*
X0015902Y0132301D01*
X0015902Y0133853D02*
X0013833Y0133853D01*
X0013833Y0132301D01*
X0012218Y0130750D02*
X0010150Y0130750D01*
X0011184Y0130750D02*
X0011184Y0133853D01*
X0010150Y0132818D01*
X0011917Y0217000D02*
X0011400Y0217517D01*
X0013468Y0219586D01*
X0013468Y0217517D01*
X0012951Y0217000D01*
X0011917Y0217000D01*
X0011400Y0217517D02*
X0011400Y0219586D01*
X0011917Y0220103D01*
X0012951Y0220103D01*
X0013468Y0219586D01*
X0015083Y0219068D02*
X0016117Y0220103D01*
X0016117Y0217000D01*
X0015083Y0217000D02*
X0017152Y0217000D01*
X0022449Y0217517D02*
X0024518Y0219586D01*
X0024518Y0217517D01*
X0024001Y0217000D01*
X0022967Y0217000D01*
X0022449Y0217517D01*
X0022449Y0219586D01*
X0022967Y0220103D01*
X0024001Y0220103D01*
X0024518Y0219586D01*
X0026133Y0219586D02*
X0026650Y0220103D01*
X0027684Y0220103D01*
X0028201Y0219586D01*
X0028201Y0219068D01*
X0026133Y0217000D01*
X0028201Y0217000D01*
D13*
X0047200Y0157800D02*
X0072200Y0157800D01*
X0072200Y0132800D01*
X0067200Y0137800D01*
X0007200Y0077800D01*
X0007200Y0107800D01*
X0052200Y0152800D01*
X0047200Y0157800D01*
X0165200Y0146300D02*
X0189200Y0146300D01*
X0189407Y0146297D01*
X0189614Y0146290D01*
X0189820Y0146277D01*
X0190027Y0146260D01*
X0190232Y0146237D01*
X0190438Y0146209D01*
X0190642Y0146177D01*
X0190846Y0146139D01*
X0191048Y0146097D01*
X0191250Y0146049D01*
X0191450Y0145997D01*
X0191649Y0145940D01*
X0191846Y0145878D01*
X0192042Y0145811D01*
X0192236Y0145739D01*
X0192429Y0145663D01*
X0192619Y0145582D01*
X0192808Y0145496D01*
X0192994Y0145406D01*
X0193178Y0145312D01*
X0193360Y0145212D01*
X0193539Y0145109D01*
X0193716Y0145001D01*
X0193890Y0144889D01*
X0194061Y0144773D01*
X0194230Y0144652D01*
X0194395Y0144528D01*
X0194557Y0144399D01*
X0194716Y0144267D01*
X0194872Y0144131D01*
X0195025Y0143991D01*
X0195174Y0143847D01*
X0195319Y0143700D01*
X0195461Y0143549D01*
X0195599Y0143395D01*
X0195734Y0143237D01*
X0195864Y0143077D01*
X0195990Y0142913D01*
X0196113Y0142746D01*
X0196231Y0142576D01*
X0196346Y0142403D01*
X0196456Y0142228D01*
X0196561Y0142050D01*
X0196663Y0141869D01*
X0196759Y0141687D01*
X0196852Y0141501D01*
X0196940Y0141314D01*
X0197023Y0141124D01*
X0197102Y0140933D01*
X0197176Y0140740D01*
X0197245Y0140544D01*
X0197309Y0140348D01*
X0197369Y0140150D01*
X0197424Y0139950D01*
X0197474Y0139749D01*
X0197519Y0139547D01*
X0197559Y0139344D01*
X0197594Y0139140D01*
X0197624Y0138935D01*
X0197649Y0138730D01*
X0197669Y0138524D01*
X0197684Y0138317D01*
X0197694Y0138110D01*
X0197699Y0137903D01*
X0197699Y0137697D01*
X0197694Y0137490D01*
X0197684Y0137283D01*
X0197669Y0137076D01*
X0197649Y0136870D01*
X0197624Y0136665D01*
X0197594Y0136460D01*
X0197559Y0136256D01*
X0197519Y0136053D01*
X0197474Y0135851D01*
X0197424Y0135650D01*
X0197369Y0135450D01*
X0197309Y0135252D01*
X0197245Y0135056D01*
X0197176Y0134860D01*
X0197102Y0134667D01*
X0197023Y0134476D01*
X0196940Y0134286D01*
X0196852Y0134099D01*
X0196759Y0133913D01*
X0196663Y0133731D01*
X0196561Y0133550D01*
X0196456Y0133372D01*
X0196346Y0133197D01*
X0196231Y0133024D01*
X0196113Y0132854D01*
X0195990Y0132687D01*
X0195864Y0132523D01*
X0195734Y0132363D01*
X0195599Y0132205D01*
X0195461Y0132051D01*
X0195319Y0131900D01*
X0195174Y0131753D01*
X0195025Y0131609D01*
X0194872Y0131469D01*
X0194716Y0131333D01*
X0194557Y0131201D01*
X0194395Y0131072D01*
X0194230Y0130948D01*
X0194061Y0130827D01*
X0193890Y0130711D01*
X0193716Y0130599D01*
X0193539Y0130491D01*
X0193360Y0130388D01*
X0193178Y0130288D01*
X0192994Y0130194D01*
X0192808Y0130104D01*
X0192619Y0130018D01*
X0192429Y0129937D01*
X0192236Y0129861D01*
X0192042Y0129789D01*
X0191846Y0129722D01*
X0191649Y0129660D01*
X0191450Y0129603D01*
X0191250Y0129551D01*
X0191048Y0129503D01*
X0190846Y0129461D01*
X0190642Y0129423D01*
X0190438Y0129391D01*
X0190232Y0129363D01*
X0190027Y0129340D01*
X0189820Y0129323D01*
X0189614Y0129310D01*
X0189407Y0129303D01*
X0189200Y0129300D01*
X0165200Y0129300D01*
X0164993Y0129303D01*
X0164786Y0129310D01*
X0164580Y0129323D01*
X0164373Y0129340D01*
X0164168Y0129363D01*
X0163962Y0129391D01*
X0163758Y0129423D01*
X0163554Y0129461D01*
X0163352Y0129503D01*
X0163150Y0129551D01*
X0162950Y0129603D01*
X0162751Y0129660D01*
X0162554Y0129722D01*
X0162358Y0129789D01*
X0162164Y0129861D01*
X0161971Y0129937D01*
X0161781Y0130018D01*
X0161592Y0130104D01*
X0161406Y0130194D01*
X0161222Y0130288D01*
X0161040Y0130388D01*
X0160861Y0130491D01*
X0160684Y0130599D01*
X0160510Y0130711D01*
X0160339Y0130827D01*
X0160170Y0130948D01*
X0160005Y0131072D01*
X0159843Y0131201D01*
X0159684Y0131333D01*
X0159528Y0131469D01*
X0159375Y0131609D01*
X0159226Y0131753D01*
X0159081Y0131900D01*
X0158939Y0132051D01*
X0158801Y0132205D01*
X0158666Y0132363D01*
X0158536Y0132523D01*
X0158410Y0132687D01*
X0158287Y0132854D01*
X0158169Y0133024D01*
X0158054Y0133197D01*
X0157944Y0133372D01*
X0157839Y0133550D01*
X0157737Y0133731D01*
X0157641Y0133913D01*
X0157548Y0134099D01*
X0157460Y0134286D01*
X0157377Y0134476D01*
X0157298Y0134667D01*
X0157224Y0134860D01*
X0157155Y0135056D01*
X0157091Y0135252D01*
X0157031Y0135450D01*
X0156976Y0135650D01*
X0156926Y0135851D01*
X0156881Y0136053D01*
X0156841Y0136256D01*
X0156806Y0136460D01*
X0156776Y0136665D01*
X0156751Y0136870D01*
X0156731Y0137076D01*
X0156716Y0137283D01*
X0156706Y0137490D01*
X0156701Y0137697D01*
X0156701Y0137903D01*
X0156706Y0138110D01*
X0156716Y0138317D01*
X0156731Y0138524D01*
X0156751Y0138730D01*
X0156776Y0138935D01*
X0156806Y0139140D01*
X0156841Y0139344D01*
X0156881Y0139547D01*
X0156926Y0139749D01*
X0156976Y0139950D01*
X0157031Y0140150D01*
X0157091Y0140348D01*
X0157155Y0140544D01*
X0157224Y0140740D01*
X0157298Y0140933D01*
X0157377Y0141124D01*
X0157460Y0141314D01*
X0157548Y0141501D01*
X0157641Y0141687D01*
X0157737Y0141869D01*
X0157839Y0142050D01*
X0157944Y0142228D01*
X0158054Y0142403D01*
X0158169Y0142576D01*
X0158287Y0142746D01*
X0158410Y0142913D01*
X0158536Y0143077D01*
X0158666Y0143237D01*
X0158801Y0143395D01*
X0158939Y0143549D01*
X0159081Y0143700D01*
X0159226Y0143847D01*
X0159375Y0143991D01*
X0159528Y0144131D01*
X0159684Y0144267D01*
X0159843Y0144399D01*
X0160005Y0144528D01*
X0160170Y0144652D01*
X0160339Y0144773D01*
X0160510Y0144889D01*
X0160684Y0145001D01*
X0160861Y0145109D01*
X0161040Y0145212D01*
X0161222Y0145312D01*
X0161406Y0145406D01*
X0161592Y0145496D01*
X0161781Y0145582D01*
X0161971Y0145663D01*
X0162164Y0145739D01*
X0162358Y0145811D01*
X0162554Y0145878D01*
X0162751Y0145940D01*
X0162950Y0145997D01*
X0163150Y0146049D01*
X0163352Y0146097D01*
X0163554Y0146139D01*
X0163758Y0146177D01*
X0163962Y0146209D01*
X0164168Y0146237D01*
X0164373Y0146260D01*
X0164580Y0146277D01*
X0164786Y0146290D01*
X0164993Y0146297D01*
X0165200Y0146300D01*
D14*
X0057213Y0145909D02*
X0054430Y0148693D01*
X0053038Y0148693D01*
X0050950Y0146605D01*
X0055126Y0142430D01*
X0057213Y0144517D01*
X0057213Y0145909D01*
X0052961Y0140265D02*
X0050177Y0140265D01*
X0050873Y0140961D02*
X0048785Y0138873D01*
X0050177Y0137481D02*
X0046002Y0141657D01*
X0048089Y0143745D01*
X0049481Y0143745D01*
X0050873Y0142353D01*
X0050873Y0140961D01*
X0045229Y0138100D02*
X0048013Y0135317D01*
X0045925Y0137404D02*
X0043141Y0134621D01*
X0042445Y0135317D02*
X0042445Y0138100D01*
X0045229Y0138100D01*
X0042445Y0135317D02*
X0045229Y0132533D01*
X0042368Y0131064D02*
X0039585Y0133848D01*
X0038193Y0133848D01*
X0036801Y0132456D01*
X0036801Y0131064D01*
X0039585Y0128281D01*
X0040977Y0128281D01*
X0042368Y0129672D01*
X0042368Y0131064D01*
X0037420Y0126116D02*
X0037420Y0124724D01*
X0035332Y0122636D01*
X0031157Y0126812D01*
X0033245Y0128900D01*
X0034636Y0128900D01*
X0035332Y0128204D01*
X0035332Y0126812D01*
X0033245Y0124724D01*
X0035332Y0126812D02*
X0036724Y0126812D01*
X0037420Y0126116D01*
X0026828Y0116915D02*
X0026828Y0114132D01*
X0024044Y0114132D01*
X0021260Y0116915D01*
X0019096Y0114751D02*
X0016312Y0111967D01*
X0020487Y0107791D01*
X0023271Y0110575D01*
X0019791Y0111271D02*
X0018400Y0109879D01*
X0017627Y0106323D02*
X0014843Y0109106D01*
X0013451Y0109106D01*
X0011364Y0107019D01*
X0015539Y0102843D01*
X0017627Y0104931D01*
X0017627Y0106323D01*
X0026828Y0116915D02*
X0024044Y0119699D01*
D15*
X0033676Y0114753D02*
X0035516Y0112913D01*
X0037356Y0112913D01*
X0037356Y0114753D01*
X0035516Y0116593D01*
X0037392Y0117549D02*
X0037392Y0118469D01*
X0038312Y0119389D01*
X0039232Y0119389D01*
X0039692Y0118929D01*
X0039692Y0115248D01*
X0041532Y0117089D01*
X0042487Y0118964D02*
X0040647Y0120804D01*
X0040647Y0121724D01*
X0041567Y0122644D01*
X0042487Y0122644D01*
X0042487Y0118964D01*
X0043407Y0118964D01*
X0044327Y0119884D01*
X0044327Y0120804D01*
X0042487Y0122644D01*
X0044363Y0123599D02*
X0044363Y0125440D01*
X0047123Y0122679D01*
X0046203Y0121759D02*
X0048043Y0123599D01*
X0049458Y0125015D02*
X0048998Y0125475D01*
X0048998Y0129155D01*
X0048538Y0129615D01*
X0046698Y0127775D01*
X0050414Y0130570D02*
X0052254Y0128730D01*
X0052254Y0132410D01*
X0054094Y0130570D01*
X0054094Y0129650D01*
X0053174Y0128730D01*
X0052254Y0128730D01*
X0050414Y0130570D02*
X0050414Y0131490D01*
X0051334Y0132410D01*
X0052254Y0132410D01*
X0053669Y0133826D02*
X0053669Y0134746D01*
X0054589Y0135666D01*
X0055509Y0135666D01*
X0055969Y0135206D01*
X0055969Y0134286D01*
X0056889Y0134286D01*
X0057349Y0133826D01*
X0057349Y0132906D01*
X0056429Y0131986D01*
X0055509Y0131986D01*
X0055509Y0133826D02*
X0055969Y0134286D01*
X0056924Y0137081D02*
X0056924Y0138001D01*
X0057844Y0138921D01*
X0058764Y0138921D01*
X0059225Y0138461D01*
X0059225Y0137541D01*
X0060145Y0137541D01*
X0060605Y0137081D01*
X0060605Y0136161D01*
X0059685Y0135241D01*
X0058764Y0135241D01*
X0058764Y0137081D02*
X0059225Y0137541D01*
X0060640Y0139877D02*
X0060640Y0141717D01*
X0063400Y0138957D01*
X0062480Y0138037D02*
X0064320Y0139877D01*
X0155247Y0122598D02*
X0155247Y0119996D01*
X0159150Y0119996D01*
X0157198Y0119996D02*
X0157198Y0121297D01*
X0157198Y0117994D02*
X0156548Y0117344D01*
X0156548Y0115392D01*
X0160451Y0115392D01*
X0159150Y0115392D02*
X0159150Y0117344D01*
X0158499Y0117994D01*
X0157198Y0117994D01*
X0156548Y0113390D02*
X0155897Y0113390D01*
X0155247Y0112740D01*
X0155247Y0111439D01*
X0155897Y0110788D01*
X0155897Y0108786D02*
X0155247Y0108136D01*
X0155247Y0106835D01*
X0155897Y0106184D01*
X0155897Y0108786D02*
X0156548Y0108786D01*
X0159150Y0106184D01*
X0159150Y0108786D01*
X0159150Y0110788D02*
X0156548Y0113390D01*
X0159150Y0113390D02*
X0159150Y0110788D01*
X0162943Y0106003D02*
X0162292Y0105353D01*
X0162292Y0102751D01*
X0162943Y0102100D01*
X0164244Y0102100D01*
X0164894Y0102751D01*
X0166896Y0102751D02*
X0167547Y0102100D01*
X0168848Y0102100D01*
X0169498Y0102751D01*
X0169498Y0104052D01*
X0168848Y0104702D01*
X0168197Y0104702D01*
X0166896Y0104052D01*
X0166896Y0106003D01*
X0169498Y0106003D01*
X0164894Y0105353D02*
X0164244Y0106003D01*
X0162943Y0106003D01*
X0175247Y0106835D02*
X0175897Y0106184D01*
X0175247Y0106835D02*
X0175247Y0108136D01*
X0175897Y0108786D01*
X0176548Y0108786D01*
X0179150Y0106184D01*
X0179150Y0108786D01*
X0179150Y0110788D02*
X0176548Y0113390D01*
X0175897Y0113390D01*
X0175247Y0112740D01*
X0175247Y0111439D01*
X0175897Y0110788D01*
X0179150Y0110788D02*
X0179150Y0113390D01*
X0179150Y0115392D02*
X0179150Y0117344D01*
X0178499Y0117994D01*
X0177198Y0117994D01*
X0176548Y0117344D01*
X0176548Y0115392D01*
X0180451Y0115392D01*
X0179150Y0119996D02*
X0175247Y0119996D01*
X0175247Y0122598D01*
X0177198Y0121297D02*
X0177198Y0119996D01*
X0184193Y0106003D02*
X0183542Y0105353D01*
X0183542Y0102751D01*
X0184193Y0102100D01*
X0185494Y0102100D01*
X0186144Y0102751D01*
X0188146Y0102751D02*
X0188146Y0104052D01*
X0190098Y0104052D01*
X0190748Y0103401D01*
X0190748Y0102751D01*
X0190098Y0102100D01*
X0188797Y0102100D01*
X0188146Y0102751D01*
X0188146Y0104052D02*
X0189447Y0105353D01*
X0190748Y0106003D01*
X0186144Y0105353D02*
X0185494Y0106003D01*
X0184193Y0106003D01*
X0171806Y0089753D02*
X0170504Y0089753D01*
X0169854Y0089103D01*
X0167852Y0089103D02*
X0167852Y0087802D01*
X0167202Y0087151D01*
X0165250Y0087151D01*
X0165250Y0085850D02*
X0165250Y0089753D01*
X0167202Y0089753D01*
X0167852Y0089103D01*
X0166551Y0087151D02*
X0167852Y0085850D01*
X0169854Y0085850D02*
X0172456Y0088452D01*
X0172456Y0089103D01*
X0171806Y0089753D01*
X0172456Y0085850D02*
X0169854Y0085850D01*
X0164150Y0080098D02*
X0162198Y0078147D01*
X0162849Y0077496D02*
X0160247Y0080098D01*
X0160247Y0077496D02*
X0164150Y0077496D01*
X0163499Y0075494D02*
X0164150Y0074844D01*
X0164150Y0073543D01*
X0163499Y0072892D01*
X0160897Y0075494D01*
X0163499Y0075494D01*
X0163499Y0072892D02*
X0160897Y0072892D01*
X0160247Y0073543D01*
X0160247Y0074844D01*
X0160897Y0075494D01*
X0164150Y0070890D02*
X0164150Y0068288D01*
X0164150Y0069589D02*
X0160247Y0069589D01*
X0161548Y0068288D01*
X0161602Y0149600D02*
X0160301Y0150901D01*
X0159651Y0149600D02*
X0159000Y0150251D01*
X0159000Y0152853D01*
X0159651Y0153503D01*
X0160952Y0153503D01*
X0161602Y0152853D01*
X0161602Y0150251D01*
X0160952Y0149600D01*
X0159651Y0149600D01*
X0163604Y0149600D02*
X0166206Y0152202D01*
X0166206Y0152853D01*
X0165556Y0153503D01*
X0164254Y0153503D01*
X0163604Y0152853D01*
X0163604Y0149600D02*
X0166206Y0149600D01*
X0172750Y0149600D02*
X0175352Y0149600D01*
X0174051Y0149600D02*
X0174051Y0153503D01*
X0172750Y0152202D01*
X0177354Y0151552D02*
X0179306Y0151552D01*
X0179956Y0150901D01*
X0179956Y0150251D01*
X0179306Y0149600D01*
X0178004Y0149600D01*
X0177354Y0150251D01*
X0177354Y0151552D01*
X0178655Y0152853D01*
X0179956Y0153503D01*
X0181958Y0153503D02*
X0181958Y0149600D01*
X0183259Y0152202D02*
X0181958Y0153503D01*
X0183259Y0152202D02*
X0184560Y0153503D01*
X0184560Y0149600D01*
X0186562Y0149600D02*
X0186562Y0153503D01*
X0186562Y0151552D02*
X0189164Y0151552D01*
X0189164Y0153503D02*
X0189164Y0149600D01*
X0191166Y0149600D02*
X0193768Y0149600D01*
X0193768Y0152202D02*
X0191166Y0152202D01*
X0193768Y0152202D02*
X0191166Y0149600D01*
D16*
X0130312Y0120164D02*
X0130312Y0117936D01*
X0105814Y0093438D01*
X0103586Y0093438D01*
X0079088Y0117936D01*
X0079088Y0120164D01*
X0103586Y0144662D01*
X0105814Y0144662D01*
X0130312Y0120164D01*
D17*
X0103587Y0096779D02*
X0103589Y0096846D01*
X0103595Y0096912D01*
X0103605Y0096978D01*
X0103619Y0097043D01*
X0103636Y0097107D01*
X0103658Y0097170D01*
X0103683Y0097232D01*
X0103712Y0097292D01*
X0103745Y0097350D01*
X0103780Y0097406D01*
X0103820Y0097460D01*
X0103862Y0097511D01*
X0103907Y0097560D01*
X0103955Y0097606D01*
X0104006Y0097649D01*
X0104059Y0097689D01*
X0104115Y0097726D01*
X0104173Y0097759D01*
X0104232Y0097789D01*
X0104293Y0097815D01*
X0104356Y0097838D01*
X0104420Y0097856D01*
X0104485Y0097871D01*
X0104551Y0097882D01*
X0104617Y0097889D01*
X0104683Y0097892D01*
X0104750Y0097891D01*
X0104816Y0097886D01*
X0104882Y0097877D01*
X0104948Y0097864D01*
X0105012Y0097847D01*
X0105075Y0097827D01*
X0105137Y0097802D01*
X0105198Y0097774D01*
X0105257Y0097743D01*
X0105313Y0097708D01*
X0105368Y0097670D01*
X0105420Y0097628D01*
X0105469Y0097583D01*
X0105516Y0097536D01*
X0105560Y0097486D01*
X0105600Y0097433D01*
X0105638Y0097378D01*
X0105672Y0097321D01*
X0105703Y0097262D01*
X0105730Y0097201D01*
X0105753Y0097139D01*
X0105773Y0097075D01*
X0105789Y0097010D01*
X0105801Y0096945D01*
X0105809Y0096879D01*
X0105813Y0096812D01*
X0105813Y0096746D01*
X0105809Y0096679D01*
X0105801Y0096613D01*
X0105789Y0096548D01*
X0105773Y0096483D01*
X0105753Y0096419D01*
X0105730Y0096357D01*
X0105703Y0096296D01*
X0105672Y0096237D01*
X0105638Y0096180D01*
X0105600Y0096125D01*
X0105560Y0096072D01*
X0105516Y0096022D01*
X0105469Y0095975D01*
X0105420Y0095930D01*
X0105368Y0095888D01*
X0105313Y0095850D01*
X0105256Y0095815D01*
X0105198Y0095784D01*
X0105137Y0095756D01*
X0105075Y0095731D01*
X0105012Y0095711D01*
X0104948Y0095694D01*
X0104882Y0095681D01*
X0104816Y0095672D01*
X0104750Y0095667D01*
X0104683Y0095666D01*
X0104617Y0095669D01*
X0104551Y0095676D01*
X0104485Y0095687D01*
X0104420Y0095702D01*
X0104356Y0095720D01*
X0104293Y0095743D01*
X0104232Y0095769D01*
X0104173Y0095799D01*
X0104115Y0095832D01*
X0104059Y0095869D01*
X0104006Y0095909D01*
X0103955Y0095952D01*
X0103907Y0095998D01*
X0103862Y0096047D01*
X0103820Y0096098D01*
X0103780Y0096152D01*
X0103745Y0096208D01*
X0103712Y0096266D01*
X0103683Y0096326D01*
X0103658Y0096388D01*
X0103636Y0096451D01*
X0103619Y0096515D01*
X0103605Y0096580D01*
X0103595Y0096646D01*
X0103589Y0096712D01*
X0103587Y0096779D01*
D18*
G36*
X0107902Y0094690D02*
X0111103Y0091489D01*
X0109990Y0090376D01*
X0106789Y0093577D01*
X0107902Y0094690D01*
G37*
G36*
X0119037Y0105826D02*
X0122238Y0102625D01*
X0121125Y0101512D01*
X0117924Y0104713D01*
X0119037Y0105826D01*
G37*
G36*
X0130173Y0116961D02*
X0133374Y0113760D01*
X0132261Y0112647D01*
X0129060Y0115848D01*
X0130173Y0116961D01*
G37*
G36*
X0099410Y0147724D02*
X0102611Y0144523D01*
X0101498Y0143410D01*
X0098297Y0146611D01*
X0099410Y0147724D01*
G37*
G36*
X0088275Y0136588D02*
X0091476Y0133387D01*
X0090363Y0132274D01*
X0087162Y0135475D01*
X0088275Y0136588D01*
G37*
G36*
X0077139Y0125453D02*
X0080340Y0122252D01*
X0079227Y0121139D01*
X0076026Y0124340D01*
X0077139Y0125453D01*
G37*
D19*
G36*
X0079366Y0127680D02*
X0082567Y0124479D01*
X0081454Y0123366D01*
X0078253Y0126567D01*
X0079366Y0127680D01*
G37*
G36*
X0081594Y0129907D02*
X0084795Y0126706D01*
X0083682Y0125593D01*
X0080481Y0128794D01*
X0081594Y0129907D01*
G37*
G36*
X0094956Y0143269D02*
X0098157Y0140068D01*
X0097044Y0138955D01*
X0093843Y0142156D01*
X0094956Y0143269D01*
G37*
G36*
X0097183Y0145497D02*
X0100384Y0142296D01*
X0099271Y0141183D01*
X0096070Y0144384D01*
X0097183Y0145497D01*
G37*
G36*
X0125718Y0112507D02*
X0128919Y0109306D01*
X0127806Y0108193D01*
X0124605Y0111394D01*
X0125718Y0112507D01*
G37*
G36*
X0127946Y0114734D02*
X0131147Y0111533D01*
X0130034Y0110420D01*
X0126833Y0113621D01*
X0127946Y0114734D01*
G37*
G36*
X0112356Y0099145D02*
X0115557Y0095944D01*
X0114444Y0094831D01*
X0111243Y0098032D01*
X0112356Y0099145D01*
G37*
G36*
X0110129Y0096917D02*
X0113330Y0093716D01*
X0112217Y0092603D01*
X0109016Y0095804D01*
X0110129Y0096917D01*
G37*
D20*
G36*
X0114583Y0101372D02*
X0117784Y0098171D01*
X0116671Y0097058D01*
X0113470Y0100259D01*
X0114583Y0101372D01*
G37*
G36*
X0116810Y0103599D02*
X0120011Y0100398D01*
X0118898Y0099285D01*
X0115697Y0102486D01*
X0116810Y0103599D01*
G37*
G36*
X0121264Y0108053D02*
X0124465Y0104852D01*
X0123352Y0103739D01*
X0120151Y0106940D01*
X0121264Y0108053D01*
G37*
G36*
X0123491Y0110280D02*
X0126692Y0107079D01*
X0125579Y0105966D01*
X0122378Y0109167D01*
X0123491Y0110280D01*
G37*
G36*
X0092729Y0141042D02*
X0095930Y0137841D01*
X0094817Y0136728D01*
X0091616Y0139929D01*
X0092729Y0141042D01*
G37*
G36*
X0090502Y0138815D02*
X0093703Y0135614D01*
X0092590Y0134501D01*
X0089389Y0137702D01*
X0090502Y0138815D01*
G37*
G36*
X0086048Y0134361D02*
X0089249Y0131160D01*
X0088136Y0130047D01*
X0084935Y0133248D01*
X0086048Y0134361D01*
G37*
G36*
X0083821Y0132134D02*
X0087022Y0128933D01*
X0085909Y0127820D01*
X0082708Y0131021D01*
X0083821Y0132134D01*
G37*
D21*
G36*
X0079227Y0116961D02*
X0080340Y0115848D01*
X0077139Y0112647D01*
X0076026Y0113760D01*
X0079227Y0116961D01*
G37*
G36*
X0090363Y0105826D02*
X0091476Y0104713D01*
X0088275Y0101512D01*
X0087162Y0102625D01*
X0090363Y0105826D01*
G37*
G36*
X0101498Y0094690D02*
X0102611Y0093577D01*
X0099410Y0090376D01*
X0098297Y0091489D01*
X0101498Y0094690D01*
G37*
G36*
X0132261Y0125453D02*
X0133374Y0124340D01*
X0130173Y0121139D01*
X0129060Y0122252D01*
X0132261Y0125453D01*
G37*
G36*
X0121125Y0136588D02*
X0122238Y0135475D01*
X0119037Y0132274D01*
X0117924Y0133387D01*
X0121125Y0136588D01*
G37*
G36*
X0109990Y0147724D02*
X0111103Y0146611D01*
X0107902Y0143410D01*
X0106789Y0144523D01*
X0109990Y0147724D01*
G37*
D22*
G36*
X0112217Y0145497D02*
X0113330Y0144384D01*
X0110129Y0141183D01*
X0109016Y0142296D01*
X0112217Y0145497D01*
G37*
G36*
X0114444Y0143269D02*
X0115557Y0142156D01*
X0112356Y0138955D01*
X0111243Y0140068D01*
X0114444Y0143269D01*
G37*
G36*
X0127806Y0129907D02*
X0128919Y0128794D01*
X0125718Y0125593D01*
X0124605Y0126706D01*
X0127806Y0129907D01*
G37*
G36*
X0130034Y0127680D02*
X0131147Y0126567D01*
X0127946Y0123366D01*
X0126833Y0124479D01*
X0130034Y0127680D01*
G37*
G36*
X0099271Y0096917D02*
X0100384Y0095804D01*
X0097183Y0092603D01*
X0096070Y0093716D01*
X0099271Y0096917D01*
G37*
G36*
X0097044Y0099145D02*
X0098157Y0098032D01*
X0094956Y0094831D01*
X0093843Y0095944D01*
X0097044Y0099145D01*
G37*
G36*
X0083682Y0112507D02*
X0084795Y0111394D01*
X0081594Y0108193D01*
X0080481Y0109306D01*
X0083682Y0112507D01*
G37*
G36*
X0081454Y0114734D02*
X0082567Y0113621D01*
X0079366Y0110420D01*
X0078253Y0111533D01*
X0081454Y0114734D01*
G37*
D23*
G36*
X0085909Y0110280D02*
X0087022Y0109167D01*
X0083821Y0105966D01*
X0082708Y0107079D01*
X0085909Y0110280D01*
G37*
G36*
X0088136Y0108053D02*
X0089249Y0106940D01*
X0086048Y0103739D01*
X0084935Y0104852D01*
X0088136Y0108053D01*
G37*
G36*
X0092590Y0103599D02*
X0093703Y0102486D01*
X0090502Y0099285D01*
X0089389Y0100398D01*
X0092590Y0103599D01*
G37*
G36*
X0094817Y0101372D02*
X0095930Y0100259D01*
X0092729Y0097058D01*
X0091616Y0098171D01*
X0094817Y0101372D01*
G37*
G36*
X0123352Y0134361D02*
X0124465Y0133248D01*
X0121264Y0130047D01*
X0120151Y0131160D01*
X0123352Y0134361D01*
G37*
G36*
X0125579Y0132134D02*
X0126692Y0131021D01*
X0123491Y0127820D01*
X0122378Y0128933D01*
X0125579Y0132134D01*
G37*
G36*
X0118898Y0138815D02*
X0120011Y0137702D01*
X0116810Y0134501D01*
X0115697Y0135614D01*
X0118898Y0138815D01*
G37*
G36*
X0116671Y0141042D02*
X0117784Y0139929D01*
X0114583Y0136728D01*
X0113470Y0137841D01*
X0116671Y0141042D01*
G37*
D24*
X0083711Y0100094D02*
X0085008Y0098797D01*
X0084359Y0099446D02*
X0080467Y0095553D01*
X0079818Y0096202D02*
X0081116Y0094905D01*
X0083505Y0093812D02*
X0083505Y0092515D01*
X0084803Y0091217D01*
X0086100Y0091217D01*
X0087414Y0088606D02*
X0090009Y0086011D01*
X0088712Y0087308D02*
X0092604Y0091201D01*
X0090009Y0091201D01*
X0088695Y0093812D02*
X0088695Y0095110D01*
X0087398Y0096407D01*
X0086100Y0096407D01*
X0083505Y0093812D01*
X0018950Y0051693D02*
X0018950Y0049858D01*
X0018033Y0048941D01*
X0016198Y0049858D02*
X0016198Y0052611D01*
X0018033Y0052611D02*
X0014363Y0052611D01*
X0013445Y0051693D01*
X0013445Y0049858D01*
X0014363Y0048941D01*
X0015280Y0048941D01*
X0016198Y0049858D01*
X0018950Y0051693D02*
X0018033Y0052611D01*
X0018033Y0046165D02*
X0018950Y0045248D01*
X0018950Y0042495D01*
X0013445Y0042495D01*
X0013445Y0045248D01*
X0014363Y0046165D01*
X0015280Y0046165D01*
X0016198Y0045248D01*
X0016198Y0042495D01*
X0016198Y0045248D02*
X0017115Y0046165D01*
X0018033Y0046165D01*
X0018033Y0039720D02*
X0014363Y0039720D01*
X0013445Y0038802D01*
X0013445Y0036050D01*
X0018950Y0036050D01*
X0018950Y0038802D01*
X0018033Y0039720D01*
X0037533Y0183822D02*
X0038450Y0184740D01*
X0038450Y0185657D01*
X0037533Y0186575D01*
X0032945Y0186575D01*
X0032945Y0187492D02*
X0032945Y0185657D01*
X0034780Y0190268D02*
X0032945Y0192103D01*
X0034780Y0193938D01*
X0038450Y0193938D01*
X0035698Y0193938D02*
X0035698Y0190268D01*
X0034780Y0190268D02*
X0038450Y0190268D01*
X0038450Y0196713D02*
X0032945Y0196713D01*
X0034780Y0198548D01*
X0032945Y0200383D01*
X0038450Y0200383D01*
X0038450Y0203159D02*
X0032945Y0203159D01*
X0034780Y0204994D01*
X0032945Y0206829D01*
X0038450Y0206829D01*
X0038450Y0209604D02*
X0034780Y0209604D01*
X0032945Y0211439D01*
X0034780Y0213274D01*
X0038450Y0213274D01*
X0035698Y0213274D02*
X0035698Y0209604D01*
X0170668Y0164555D02*
X0170668Y0159050D01*
X0173420Y0159050D01*
X0174338Y0159967D01*
X0174338Y0163637D01*
X0173420Y0164555D01*
X0170668Y0164555D01*
X0177113Y0164555D02*
X0177113Y0159050D01*
X0179866Y0159050D01*
X0180783Y0159967D01*
X0180783Y0160885D01*
X0179866Y0161802D01*
X0177113Y0161802D01*
X0179866Y0161802D02*
X0180783Y0162720D01*
X0180783Y0163637D01*
X0179866Y0164555D01*
X0177113Y0164555D01*
X0183559Y0162720D02*
X0185394Y0164555D01*
X0185394Y0159050D01*
X0183559Y0159050D02*
X0187229Y0159050D01*
X0190004Y0159967D02*
X0190922Y0159050D01*
X0192757Y0159050D01*
X0193674Y0159967D01*
X0193674Y0161802D01*
X0192757Y0162720D01*
X0191839Y0162720D01*
X0190004Y0161802D01*
X0190004Y0164555D01*
X0193674Y0164555D01*
D25*
X0195200Y0170300D02*
X0197200Y0172300D01*
X0197200Y0212300D01*
X0177200Y0212300D01*
X0177200Y0212800D01*
X0197200Y0212800D01*
X0197200Y0212300D01*
X0197200Y0212800D02*
X0197200Y0224800D01*
X0187200Y0224800D01*
X0187200Y0223800D01*
X0177200Y0223800D01*
X0177200Y0224800D01*
X0176700Y0224800D01*
X0176700Y0215300D01*
X0176698Y0215202D01*
X0176692Y0215104D01*
X0176683Y0215006D01*
X0176669Y0214909D01*
X0176652Y0214812D01*
X0176631Y0214716D01*
X0176606Y0214621D01*
X0176578Y0214527D01*
X0176545Y0214435D01*
X0176510Y0214343D01*
X0176470Y0214253D01*
X0176428Y0214165D01*
X0176381Y0214078D01*
X0176332Y0213994D01*
X0176279Y0213911D01*
X0176223Y0213831D01*
X0176163Y0213752D01*
X0176101Y0213676D01*
X0176036Y0213603D01*
X0175968Y0213532D01*
X0175897Y0213464D01*
X0175824Y0213399D01*
X0175748Y0213337D01*
X0175669Y0213277D01*
X0175589Y0213221D01*
X0175506Y0213168D01*
X0175422Y0213119D01*
X0175335Y0213072D01*
X0175247Y0213030D01*
X0175157Y0212990D01*
X0175065Y0212955D01*
X0174973Y0212922D01*
X0174879Y0212894D01*
X0174784Y0212869D01*
X0174688Y0212848D01*
X0174591Y0212831D01*
X0174494Y0212817D01*
X0174396Y0212808D01*
X0174298Y0212802D01*
X0174200Y0212800D01*
X0173700Y0212800D02*
X0173700Y0172300D01*
X0175700Y0170300D01*
X0195200Y0170300D01*
X0178800Y0182800D02*
X0178802Y0182961D01*
X0178808Y0183121D01*
X0178818Y0183282D01*
X0178832Y0183442D01*
X0178850Y0183602D01*
X0178871Y0183761D01*
X0178897Y0183920D01*
X0178927Y0184078D01*
X0178960Y0184235D01*
X0178998Y0184392D01*
X0179039Y0184547D01*
X0179084Y0184701D01*
X0179133Y0184854D01*
X0179186Y0185006D01*
X0179242Y0185157D01*
X0179303Y0185306D01*
X0179366Y0185454D01*
X0179434Y0185600D01*
X0179505Y0185744D01*
X0179579Y0185886D01*
X0179657Y0186027D01*
X0179739Y0186165D01*
X0179824Y0186302D01*
X0179912Y0186436D01*
X0180004Y0186568D01*
X0180099Y0186698D01*
X0180197Y0186826D01*
X0180298Y0186951D01*
X0180402Y0187073D01*
X0180509Y0187193D01*
X0180619Y0187310D01*
X0180732Y0187425D01*
X0180848Y0187536D01*
X0180967Y0187645D01*
X0181088Y0187750D01*
X0181212Y0187853D01*
X0181338Y0187953D01*
X0181466Y0188049D01*
X0181597Y0188142D01*
X0181731Y0188232D01*
X0181866Y0188319D01*
X0182004Y0188402D01*
X0182143Y0188482D01*
X0182285Y0188558D01*
X0182428Y0188631D01*
X0182573Y0188700D01*
X0182720Y0188766D01*
X0182868Y0188828D01*
X0183018Y0188886D01*
X0183169Y0188941D01*
X0183322Y0188992D01*
X0183476Y0189039D01*
X0183631Y0189082D01*
X0183787Y0189121D01*
X0183943Y0189157D01*
X0184101Y0189188D01*
X0184259Y0189216D01*
X0184418Y0189240D01*
X0184578Y0189260D01*
X0184738Y0189276D01*
X0184898Y0189288D01*
X0185059Y0189296D01*
X0185220Y0189300D01*
X0185380Y0189300D01*
X0185541Y0189296D01*
X0185702Y0189288D01*
X0185862Y0189276D01*
X0186022Y0189260D01*
X0186182Y0189240D01*
X0186341Y0189216D01*
X0186499Y0189188D01*
X0186657Y0189157D01*
X0186813Y0189121D01*
X0186969Y0189082D01*
X0187124Y0189039D01*
X0187278Y0188992D01*
X0187431Y0188941D01*
X0187582Y0188886D01*
X0187732Y0188828D01*
X0187880Y0188766D01*
X0188027Y0188700D01*
X0188172Y0188631D01*
X0188315Y0188558D01*
X0188457Y0188482D01*
X0188596Y0188402D01*
X0188734Y0188319D01*
X0188869Y0188232D01*
X0189003Y0188142D01*
X0189134Y0188049D01*
X0189262Y0187953D01*
X0189388Y0187853D01*
X0189512Y0187750D01*
X0189633Y0187645D01*
X0189752Y0187536D01*
X0189868Y0187425D01*
X0189981Y0187310D01*
X0190091Y0187193D01*
X0190198Y0187073D01*
X0190302Y0186951D01*
X0190403Y0186826D01*
X0190501Y0186698D01*
X0190596Y0186568D01*
X0190688Y0186436D01*
X0190776Y0186302D01*
X0190861Y0186165D01*
X0190943Y0186027D01*
X0191021Y0185886D01*
X0191095Y0185744D01*
X0191166Y0185600D01*
X0191234Y0185454D01*
X0191297Y0185306D01*
X0191358Y0185157D01*
X0191414Y0185006D01*
X0191467Y0184854D01*
X0191516Y0184701D01*
X0191561Y0184547D01*
X0191602Y0184392D01*
X0191640Y0184235D01*
X0191673Y0184078D01*
X0191703Y0183920D01*
X0191729Y0183761D01*
X0191750Y0183602D01*
X0191768Y0183442D01*
X0191782Y0183282D01*
X0191792Y0183121D01*
X0191798Y0182961D01*
X0191800Y0182800D01*
X0191798Y0182639D01*
X0191792Y0182479D01*
X0191782Y0182318D01*
X0191768Y0182158D01*
X0191750Y0181998D01*
X0191729Y0181839D01*
X0191703Y0181680D01*
X0191673Y0181522D01*
X0191640Y0181365D01*
X0191602Y0181208D01*
X0191561Y0181053D01*
X0191516Y0180899D01*
X0191467Y0180746D01*
X0191414Y0180594D01*
X0191358Y0180443D01*
X0191297Y0180294D01*
X0191234Y0180146D01*
X0191166Y0180000D01*
X0191095Y0179856D01*
X0191021Y0179714D01*
X0190943Y0179573D01*
X0190861Y0179435D01*
X0190776Y0179298D01*
X0190688Y0179164D01*
X0190596Y0179032D01*
X0190501Y0178902D01*
X0190403Y0178774D01*
X0190302Y0178649D01*
X0190198Y0178527D01*
X0190091Y0178407D01*
X0189981Y0178290D01*
X0189868Y0178175D01*
X0189752Y0178064D01*
X0189633Y0177955D01*
X0189512Y0177850D01*
X0189388Y0177747D01*
X0189262Y0177647D01*
X0189134Y0177551D01*
X0189003Y0177458D01*
X0188869Y0177368D01*
X0188734Y0177281D01*
X0188596Y0177198D01*
X0188457Y0177118D01*
X0188315Y0177042D01*
X0188172Y0176969D01*
X0188027Y0176900D01*
X0187880Y0176834D01*
X0187732Y0176772D01*
X0187582Y0176714D01*
X0187431Y0176659D01*
X0187278Y0176608D01*
X0187124Y0176561D01*
X0186969Y0176518D01*
X0186813Y0176479D01*
X0186657Y0176443D01*
X0186499Y0176412D01*
X0186341Y0176384D01*
X0186182Y0176360D01*
X0186022Y0176340D01*
X0185862Y0176324D01*
X0185702Y0176312D01*
X0185541Y0176304D01*
X0185380Y0176300D01*
X0185220Y0176300D01*
X0185059Y0176304D01*
X0184898Y0176312D01*
X0184738Y0176324D01*
X0184578Y0176340D01*
X0184418Y0176360D01*
X0184259Y0176384D01*
X0184101Y0176412D01*
X0183943Y0176443D01*
X0183787Y0176479D01*
X0183631Y0176518D01*
X0183476Y0176561D01*
X0183322Y0176608D01*
X0183169Y0176659D01*
X0183018Y0176714D01*
X0182868Y0176772D01*
X0182720Y0176834D01*
X0182573Y0176900D01*
X0182428Y0176969D01*
X0182285Y0177042D01*
X0182143Y0177118D01*
X0182004Y0177198D01*
X0181866Y0177281D01*
X0181731Y0177368D01*
X0181597Y0177458D01*
X0181466Y0177551D01*
X0181338Y0177647D01*
X0181212Y0177747D01*
X0181088Y0177850D01*
X0180967Y0177955D01*
X0180848Y0178064D01*
X0180732Y0178175D01*
X0180619Y0178290D01*
X0180509Y0178407D01*
X0180402Y0178527D01*
X0180298Y0178649D01*
X0180197Y0178774D01*
X0180099Y0178902D01*
X0180004Y0179032D01*
X0179912Y0179164D01*
X0179824Y0179298D01*
X0179739Y0179435D01*
X0179657Y0179573D01*
X0179579Y0179714D01*
X0179505Y0179856D01*
X0179434Y0180000D01*
X0179366Y0180146D01*
X0179303Y0180294D01*
X0179242Y0180443D01*
X0179186Y0180594D01*
X0179133Y0180746D01*
X0179084Y0180899D01*
X0179039Y0181053D01*
X0178998Y0181208D01*
X0178960Y0181365D01*
X0178927Y0181522D01*
X0178897Y0181680D01*
X0178871Y0181839D01*
X0178850Y0181998D01*
X0178832Y0182158D01*
X0178818Y0182318D01*
X0178808Y0182479D01*
X0178802Y0182639D01*
X0178800Y0182800D01*
X0172700Y0209800D02*
X0172700Y0212800D01*
X0173700Y0212800D01*
X0177200Y0212800D01*
X0172700Y0212800D02*
X0066700Y0212800D01*
X0066700Y0209800D01*
X0172700Y0209800D01*
X0176700Y0224800D02*
X0062700Y0224800D01*
X0062700Y0215300D01*
X0062200Y0212800D02*
X0065700Y0212800D01*
X0065700Y0172300D01*
X0063700Y0170300D01*
X0044700Y0170300D01*
X0042200Y0172800D01*
X0042200Y0212300D01*
X0062200Y0212300D01*
X0062200Y0212800D01*
X0042200Y0212800D01*
X0042200Y0212300D01*
X0042200Y0212800D02*
X0042200Y0224800D01*
X0042200Y0226800D01*
X0052200Y0226800D01*
X0052200Y0224800D01*
X0052200Y0223800D01*
X0062200Y0223800D01*
X0062200Y0224800D01*
X0062700Y0224800D01*
X0062200Y0224800D02*
X0062200Y0226800D01*
X0177200Y0226800D01*
X0177200Y0224800D01*
X0177200Y0226800D02*
X0187200Y0226800D01*
X0197200Y0226800D01*
X0197200Y0224800D01*
X0197200Y0226800D02*
X0197200Y0228800D01*
X0169200Y0228800D01*
X0169200Y0249800D01*
X0170700Y0249800D02*
X0170698Y0249887D01*
X0170692Y0249974D01*
X0170683Y0250061D01*
X0170670Y0250147D01*
X0170653Y0250233D01*
X0170632Y0250318D01*
X0170607Y0250401D01*
X0170579Y0250484D01*
X0170548Y0250565D01*
X0170513Y0250645D01*
X0170474Y0250723D01*
X0170432Y0250800D01*
X0170387Y0250875D01*
X0170338Y0250947D01*
X0170287Y0251018D01*
X0170232Y0251086D01*
X0170175Y0251151D01*
X0170114Y0251214D01*
X0170051Y0251275D01*
X0169986Y0251332D01*
X0169918Y0251387D01*
X0169847Y0251438D01*
X0169775Y0251487D01*
X0169700Y0251532D01*
X0169623Y0251574D01*
X0169545Y0251613D01*
X0169465Y0251648D01*
X0169384Y0251679D01*
X0169301Y0251707D01*
X0169218Y0251732D01*
X0169133Y0251753D01*
X0169047Y0251770D01*
X0168961Y0251783D01*
X0168874Y0251792D01*
X0168787Y0251798D01*
X0168700Y0251800D01*
X0167700Y0251800D01*
X0071700Y0251800D01*
X0071700Y0230800D01*
X0070200Y0228800D02*
X0042200Y0228800D01*
X0042200Y0226800D01*
X0042200Y0224800D02*
X0052200Y0224800D01*
X0052200Y0226800D02*
X0062200Y0226800D01*
X0066200Y0228800D02*
X0066298Y0228802D01*
X0066396Y0228808D01*
X0066494Y0228817D01*
X0066591Y0228831D01*
X0066688Y0228848D01*
X0066784Y0228869D01*
X0066879Y0228894D01*
X0066973Y0228922D01*
X0067065Y0228955D01*
X0067157Y0228990D01*
X0067247Y0229030D01*
X0067335Y0229072D01*
X0067422Y0229119D01*
X0067506Y0229168D01*
X0067589Y0229221D01*
X0067669Y0229277D01*
X0067748Y0229337D01*
X0067824Y0229399D01*
X0067897Y0229464D01*
X0067968Y0229532D01*
X0068036Y0229603D01*
X0068101Y0229676D01*
X0068163Y0229752D01*
X0068223Y0229831D01*
X0068279Y0229911D01*
X0068332Y0229994D01*
X0068381Y0230078D01*
X0068428Y0230165D01*
X0068470Y0230253D01*
X0068510Y0230343D01*
X0068545Y0230435D01*
X0068578Y0230527D01*
X0068606Y0230621D01*
X0068631Y0230716D01*
X0068652Y0230812D01*
X0068669Y0230909D01*
X0068683Y0231006D01*
X0068692Y0231104D01*
X0068698Y0231202D01*
X0068700Y0231300D01*
X0068700Y0249800D01*
X0070200Y0249800D02*
X0070200Y0228800D01*
X0169200Y0228800D01*
X0167700Y0230800D02*
X0167700Y0251800D01*
X0170700Y0249800D02*
X0170700Y0231300D01*
X0170702Y0231202D01*
X0170708Y0231104D01*
X0170717Y0231006D01*
X0170731Y0230909D01*
X0170748Y0230812D01*
X0170769Y0230716D01*
X0170794Y0230621D01*
X0170822Y0230527D01*
X0170855Y0230435D01*
X0170890Y0230343D01*
X0170930Y0230253D01*
X0170972Y0230165D01*
X0171019Y0230078D01*
X0171068Y0229994D01*
X0171121Y0229911D01*
X0171177Y0229831D01*
X0171237Y0229752D01*
X0171299Y0229676D01*
X0171364Y0229603D01*
X0171432Y0229532D01*
X0171503Y0229464D01*
X0171576Y0229399D01*
X0171652Y0229337D01*
X0171731Y0229277D01*
X0171811Y0229221D01*
X0171894Y0229168D01*
X0171978Y0229119D01*
X0172065Y0229072D01*
X0172153Y0229030D01*
X0172243Y0228990D01*
X0172335Y0228955D01*
X0172427Y0228922D01*
X0172521Y0228894D01*
X0172616Y0228869D01*
X0172712Y0228848D01*
X0172809Y0228831D01*
X0172906Y0228817D01*
X0173004Y0228808D01*
X0173102Y0228802D01*
X0173200Y0228800D01*
X0187200Y0226800D02*
X0187200Y0224800D01*
X0155200Y0237800D02*
X0155200Y0246800D01*
X0153700Y0246800D01*
X0153700Y0239300D01*
X0147700Y0239300D01*
X0147700Y0246800D01*
X0146200Y0246800D01*
X0146200Y0237800D01*
X0155200Y0237800D01*
X0139700Y0237800D02*
X0139700Y0246800D01*
X0138200Y0246800D01*
X0138200Y0239300D01*
X0132200Y0239300D01*
X0132200Y0246800D01*
X0130700Y0246800D01*
X0130700Y0237800D01*
X0139700Y0237800D01*
X0124200Y0237800D02*
X0124200Y0246800D01*
X0122700Y0246800D01*
X0122700Y0239300D01*
X0116700Y0239300D01*
X0116700Y0246800D01*
X0115200Y0246800D01*
X0115200Y0237800D01*
X0124200Y0237800D01*
X0108700Y0237800D02*
X0108700Y0246800D01*
X0107200Y0246800D01*
X0107200Y0239300D01*
X0101200Y0239300D01*
X0101200Y0246800D01*
X0099700Y0246800D01*
X0099700Y0237800D01*
X0108700Y0237800D01*
X0093200Y0237800D02*
X0093200Y0246800D01*
X0091700Y0246800D01*
X0091700Y0239300D01*
X0085700Y0239300D01*
X0085700Y0246800D01*
X0084200Y0246800D01*
X0084200Y0237800D01*
X0093200Y0237800D01*
X0071700Y0251800D02*
X0070700Y0251800D01*
X0070613Y0251798D01*
X0070526Y0251792D01*
X0070439Y0251783D01*
X0070353Y0251770D01*
X0070267Y0251753D01*
X0070182Y0251732D01*
X0070099Y0251707D01*
X0070016Y0251679D01*
X0069935Y0251648D01*
X0069855Y0251613D01*
X0069777Y0251574D01*
X0069700Y0251532D01*
X0069625Y0251487D01*
X0069553Y0251438D01*
X0069482Y0251387D01*
X0069414Y0251332D01*
X0069349Y0251275D01*
X0069286Y0251214D01*
X0069225Y0251151D01*
X0069168Y0251086D01*
X0069113Y0251018D01*
X0069062Y0250947D01*
X0069013Y0250875D01*
X0068968Y0250800D01*
X0068926Y0250723D01*
X0068887Y0250645D01*
X0068852Y0250565D01*
X0068821Y0250484D01*
X0068793Y0250401D01*
X0068768Y0250318D01*
X0068747Y0250233D01*
X0068730Y0250147D01*
X0068717Y0250061D01*
X0068708Y0249974D01*
X0068702Y0249887D01*
X0068700Y0249800D01*
X0062700Y0215300D02*
X0062702Y0215202D01*
X0062708Y0215104D01*
X0062717Y0215006D01*
X0062731Y0214909D01*
X0062748Y0214812D01*
X0062769Y0214716D01*
X0062794Y0214621D01*
X0062822Y0214527D01*
X0062855Y0214435D01*
X0062890Y0214343D01*
X0062930Y0214253D01*
X0062972Y0214165D01*
X0063019Y0214078D01*
X0063068Y0213994D01*
X0063121Y0213911D01*
X0063177Y0213831D01*
X0063237Y0213752D01*
X0063299Y0213676D01*
X0063364Y0213603D01*
X0063432Y0213532D01*
X0063503Y0213464D01*
X0063576Y0213399D01*
X0063652Y0213337D01*
X0063731Y0213277D01*
X0063811Y0213221D01*
X0063894Y0213168D01*
X0063978Y0213119D01*
X0064065Y0213072D01*
X0064153Y0213030D01*
X0064243Y0212990D01*
X0064335Y0212955D01*
X0064427Y0212922D01*
X0064521Y0212894D01*
X0064616Y0212869D01*
X0064712Y0212848D01*
X0064809Y0212831D01*
X0064906Y0212817D01*
X0065004Y0212808D01*
X0065102Y0212802D01*
X0065200Y0212800D01*
X0065700Y0212800D02*
X0066700Y0212800D01*
X0047600Y0182800D02*
X0047602Y0182961D01*
X0047608Y0183121D01*
X0047618Y0183282D01*
X0047632Y0183442D01*
X0047650Y0183602D01*
X0047671Y0183761D01*
X0047697Y0183920D01*
X0047727Y0184078D01*
X0047760Y0184235D01*
X0047798Y0184392D01*
X0047839Y0184547D01*
X0047884Y0184701D01*
X0047933Y0184854D01*
X0047986Y0185006D01*
X0048042Y0185157D01*
X0048103Y0185306D01*
X0048166Y0185454D01*
X0048234Y0185600D01*
X0048305Y0185744D01*
X0048379Y0185886D01*
X0048457Y0186027D01*
X0048539Y0186165D01*
X0048624Y0186302D01*
X0048712Y0186436D01*
X0048804Y0186568D01*
X0048899Y0186698D01*
X0048997Y0186826D01*
X0049098Y0186951D01*
X0049202Y0187073D01*
X0049309Y0187193D01*
X0049419Y0187310D01*
X0049532Y0187425D01*
X0049648Y0187536D01*
X0049767Y0187645D01*
X0049888Y0187750D01*
X0050012Y0187853D01*
X0050138Y0187953D01*
X0050266Y0188049D01*
X0050397Y0188142D01*
X0050531Y0188232D01*
X0050666Y0188319D01*
X0050804Y0188402D01*
X0050943Y0188482D01*
X0051085Y0188558D01*
X0051228Y0188631D01*
X0051373Y0188700D01*
X0051520Y0188766D01*
X0051668Y0188828D01*
X0051818Y0188886D01*
X0051969Y0188941D01*
X0052122Y0188992D01*
X0052276Y0189039D01*
X0052431Y0189082D01*
X0052587Y0189121D01*
X0052743Y0189157D01*
X0052901Y0189188D01*
X0053059Y0189216D01*
X0053218Y0189240D01*
X0053378Y0189260D01*
X0053538Y0189276D01*
X0053698Y0189288D01*
X0053859Y0189296D01*
X0054020Y0189300D01*
X0054180Y0189300D01*
X0054341Y0189296D01*
X0054502Y0189288D01*
X0054662Y0189276D01*
X0054822Y0189260D01*
X0054982Y0189240D01*
X0055141Y0189216D01*
X0055299Y0189188D01*
X0055457Y0189157D01*
X0055613Y0189121D01*
X0055769Y0189082D01*
X0055924Y0189039D01*
X0056078Y0188992D01*
X0056231Y0188941D01*
X0056382Y0188886D01*
X0056532Y0188828D01*
X0056680Y0188766D01*
X0056827Y0188700D01*
X0056972Y0188631D01*
X0057115Y0188558D01*
X0057257Y0188482D01*
X0057396Y0188402D01*
X0057534Y0188319D01*
X0057669Y0188232D01*
X0057803Y0188142D01*
X0057934Y0188049D01*
X0058062Y0187953D01*
X0058188Y0187853D01*
X0058312Y0187750D01*
X0058433Y0187645D01*
X0058552Y0187536D01*
X0058668Y0187425D01*
X0058781Y0187310D01*
X0058891Y0187193D01*
X0058998Y0187073D01*
X0059102Y0186951D01*
X0059203Y0186826D01*
X0059301Y0186698D01*
X0059396Y0186568D01*
X0059488Y0186436D01*
X0059576Y0186302D01*
X0059661Y0186165D01*
X0059743Y0186027D01*
X0059821Y0185886D01*
X0059895Y0185744D01*
X0059966Y0185600D01*
X0060034Y0185454D01*
X0060097Y0185306D01*
X0060158Y0185157D01*
X0060214Y0185006D01*
X0060267Y0184854D01*
X0060316Y0184701D01*
X0060361Y0184547D01*
X0060402Y0184392D01*
X0060440Y0184235D01*
X0060473Y0184078D01*
X0060503Y0183920D01*
X0060529Y0183761D01*
X0060550Y0183602D01*
X0060568Y0183442D01*
X0060582Y0183282D01*
X0060592Y0183121D01*
X0060598Y0182961D01*
X0060600Y0182800D01*
X0060598Y0182639D01*
X0060592Y0182479D01*
X0060582Y0182318D01*
X0060568Y0182158D01*
X0060550Y0181998D01*
X0060529Y0181839D01*
X0060503Y0181680D01*
X0060473Y0181522D01*
X0060440Y0181365D01*
X0060402Y0181208D01*
X0060361Y0181053D01*
X0060316Y0180899D01*
X0060267Y0180746D01*
X0060214Y0180594D01*
X0060158Y0180443D01*
X0060097Y0180294D01*
X0060034Y0180146D01*
X0059966Y0180000D01*
X0059895Y0179856D01*
X0059821Y0179714D01*
X0059743Y0179573D01*
X0059661Y0179435D01*
X0059576Y0179298D01*
X0059488Y0179164D01*
X0059396Y0179032D01*
X0059301Y0178902D01*
X0059203Y0178774D01*
X0059102Y0178649D01*
X0058998Y0178527D01*
X0058891Y0178407D01*
X0058781Y0178290D01*
X0058668Y0178175D01*
X0058552Y0178064D01*
X0058433Y0177955D01*
X0058312Y0177850D01*
X0058188Y0177747D01*
X0058062Y0177647D01*
X0057934Y0177551D01*
X0057803Y0177458D01*
X0057669Y0177368D01*
X0057534Y0177281D01*
X0057396Y0177198D01*
X0057257Y0177118D01*
X0057115Y0177042D01*
X0056972Y0176969D01*
X0056827Y0176900D01*
X0056680Y0176834D01*
X0056532Y0176772D01*
X0056382Y0176714D01*
X0056231Y0176659D01*
X0056078Y0176608D01*
X0055924Y0176561D01*
X0055769Y0176518D01*
X0055613Y0176479D01*
X0055457Y0176443D01*
X0055299Y0176412D01*
X0055141Y0176384D01*
X0054982Y0176360D01*
X0054822Y0176340D01*
X0054662Y0176324D01*
X0054502Y0176312D01*
X0054341Y0176304D01*
X0054180Y0176300D01*
X0054020Y0176300D01*
X0053859Y0176304D01*
X0053698Y0176312D01*
X0053538Y0176324D01*
X0053378Y0176340D01*
X0053218Y0176360D01*
X0053059Y0176384D01*
X0052901Y0176412D01*
X0052743Y0176443D01*
X0052587Y0176479D01*
X0052431Y0176518D01*
X0052276Y0176561D01*
X0052122Y0176608D01*
X0051969Y0176659D01*
X0051818Y0176714D01*
X0051668Y0176772D01*
X0051520Y0176834D01*
X0051373Y0176900D01*
X0051228Y0176969D01*
X0051085Y0177042D01*
X0050943Y0177118D01*
X0050804Y0177198D01*
X0050666Y0177281D01*
X0050531Y0177368D01*
X0050397Y0177458D01*
X0050266Y0177551D01*
X0050138Y0177647D01*
X0050012Y0177747D01*
X0049888Y0177850D01*
X0049767Y0177955D01*
X0049648Y0178064D01*
X0049532Y0178175D01*
X0049419Y0178290D01*
X0049309Y0178407D01*
X0049202Y0178527D01*
X0049098Y0178649D01*
X0048997Y0178774D01*
X0048899Y0178902D01*
X0048804Y0179032D01*
X0048712Y0179164D01*
X0048624Y0179298D01*
X0048539Y0179435D01*
X0048457Y0179573D01*
X0048379Y0179714D01*
X0048305Y0179856D01*
X0048234Y0180000D01*
X0048166Y0180146D01*
X0048103Y0180294D01*
X0048042Y0180443D01*
X0047986Y0180594D01*
X0047933Y0180746D01*
X0047884Y0180899D01*
X0047839Y0181053D01*
X0047798Y0181208D01*
X0047760Y0181365D01*
X0047727Y0181522D01*
X0047697Y0181680D01*
X0047671Y0181839D01*
X0047650Y0181998D01*
X0047632Y0182158D01*
X0047618Y0182318D01*
X0047608Y0182479D01*
X0047602Y0182639D01*
X0047600Y0182800D01*
X0029700Y0182800D02*
X0029700Y0177800D01*
X0027200Y0175300D01*
X0012200Y0175300D01*
X0009700Y0172800D01*
X0009700Y0167800D01*
X0012200Y0165300D01*
X0027200Y0165300D01*
X0029700Y0162800D01*
X0029700Y0157800D01*
X0027200Y0155300D01*
X0012200Y0155300D01*
X0009700Y0152800D01*
X0009700Y0147800D01*
X0012200Y0145300D01*
X0009700Y0142800D01*
X0009700Y0137800D01*
X0012200Y0135300D01*
X0027200Y0135300D01*
X0029700Y0137800D01*
X0029700Y0142800D01*
X0027200Y0145300D01*
X0012200Y0145300D01*
X0012200Y0155300D02*
X0009700Y0157800D01*
X0009700Y0162800D01*
X0012200Y0165300D01*
X0012200Y0175300D02*
X0009700Y0177800D01*
X0009700Y0182800D01*
X0012200Y0185300D01*
X0027200Y0185300D01*
X0029700Y0182800D01*
X0027200Y0185300D02*
X0029700Y0187800D01*
X0029700Y0192800D01*
X0027200Y0195300D01*
X0012200Y0195300D01*
X0009700Y0192800D01*
X0009700Y0187800D01*
X0012200Y0185300D01*
X0012200Y0195300D02*
X0009700Y0197800D01*
X0009700Y0202800D01*
X0012200Y0205300D01*
X0027200Y0205300D01*
X0029700Y0202800D01*
X0029700Y0197800D01*
X0027200Y0195300D01*
X0027200Y0205300D02*
X0029700Y0207800D01*
X0029700Y0212800D01*
X0027200Y0215300D01*
X0012200Y0215300D01*
X0009700Y0212800D01*
X0009700Y0207800D01*
X0012200Y0205300D01*
X0027200Y0175300D02*
X0029700Y0172800D01*
X0029700Y0167800D01*
X0027200Y0165300D01*
X0027200Y0155300D02*
X0029700Y0152800D01*
X0029700Y0147800D01*
X0027200Y0145300D01*
X0028200Y0082800D02*
X0026200Y0080800D01*
X0026200Y0040800D01*
X0046200Y0040800D01*
X0046200Y0040300D01*
X0026200Y0040300D01*
X0026200Y0040800D01*
X0026200Y0040300D02*
X0026200Y0028300D01*
X0036200Y0028300D01*
X0036200Y0029300D01*
X0046200Y0029300D01*
X0046200Y0028300D01*
X0046700Y0028300D01*
X0046700Y0037800D01*
X0046702Y0037898D01*
X0046708Y0037996D01*
X0046717Y0038094D01*
X0046731Y0038191D01*
X0046748Y0038288D01*
X0046769Y0038384D01*
X0046794Y0038479D01*
X0046822Y0038573D01*
X0046855Y0038665D01*
X0046890Y0038757D01*
X0046930Y0038847D01*
X0046972Y0038935D01*
X0047019Y0039022D01*
X0047068Y0039106D01*
X0047121Y0039189D01*
X0047177Y0039269D01*
X0047237Y0039348D01*
X0047299Y0039424D01*
X0047364Y0039497D01*
X0047432Y0039568D01*
X0047503Y0039636D01*
X0047576Y0039701D01*
X0047652Y0039763D01*
X0047731Y0039823D01*
X0047811Y0039879D01*
X0047894Y0039932D01*
X0047978Y0039981D01*
X0048065Y0040028D01*
X0048153Y0040070D01*
X0048243Y0040110D01*
X0048335Y0040145D01*
X0048427Y0040178D01*
X0048521Y0040206D01*
X0048616Y0040231D01*
X0048712Y0040252D01*
X0048809Y0040269D01*
X0048906Y0040283D01*
X0049004Y0040292D01*
X0049102Y0040298D01*
X0049200Y0040300D01*
X0049700Y0040300D02*
X0049700Y0080800D01*
X0047700Y0082800D01*
X0028200Y0082800D01*
X0031400Y0070300D02*
X0031402Y0070461D01*
X0031408Y0070621D01*
X0031418Y0070782D01*
X0031432Y0070942D01*
X0031450Y0071102D01*
X0031471Y0071261D01*
X0031497Y0071420D01*
X0031527Y0071578D01*
X0031560Y0071735D01*
X0031598Y0071892D01*
X0031639Y0072047D01*
X0031684Y0072201D01*
X0031733Y0072354D01*
X0031786Y0072506D01*
X0031842Y0072657D01*
X0031903Y0072806D01*
X0031966Y0072954D01*
X0032034Y0073100D01*
X0032105Y0073244D01*
X0032179Y0073386D01*
X0032257Y0073527D01*
X0032339Y0073665D01*
X0032424Y0073802D01*
X0032512Y0073936D01*
X0032604Y0074068D01*
X0032699Y0074198D01*
X0032797Y0074326D01*
X0032898Y0074451D01*
X0033002Y0074573D01*
X0033109Y0074693D01*
X0033219Y0074810D01*
X0033332Y0074925D01*
X0033448Y0075036D01*
X0033567Y0075145D01*
X0033688Y0075250D01*
X0033812Y0075353D01*
X0033938Y0075453D01*
X0034066Y0075549D01*
X0034197Y0075642D01*
X0034331Y0075732D01*
X0034466Y0075819D01*
X0034604Y0075902D01*
X0034743Y0075982D01*
X0034885Y0076058D01*
X0035028Y0076131D01*
X0035173Y0076200D01*
X0035320Y0076266D01*
X0035468Y0076328D01*
X0035618Y0076386D01*
X0035769Y0076441D01*
X0035922Y0076492D01*
X0036076Y0076539D01*
X0036231Y0076582D01*
X0036387Y0076621D01*
X0036543Y0076657D01*
X0036701Y0076688D01*
X0036859Y0076716D01*
X0037018Y0076740D01*
X0037178Y0076760D01*
X0037338Y0076776D01*
X0037498Y0076788D01*
X0037659Y0076796D01*
X0037820Y0076800D01*
X0037980Y0076800D01*
X0038141Y0076796D01*
X0038302Y0076788D01*
X0038462Y0076776D01*
X0038622Y0076760D01*
X0038782Y0076740D01*
X0038941Y0076716D01*
X0039099Y0076688D01*
X0039257Y0076657D01*
X0039413Y0076621D01*
X0039569Y0076582D01*
X0039724Y0076539D01*
X0039878Y0076492D01*
X0040031Y0076441D01*
X0040182Y0076386D01*
X0040332Y0076328D01*
X0040480Y0076266D01*
X0040627Y0076200D01*
X0040772Y0076131D01*
X0040915Y0076058D01*
X0041057Y0075982D01*
X0041196Y0075902D01*
X0041334Y0075819D01*
X0041469Y0075732D01*
X0041603Y0075642D01*
X0041734Y0075549D01*
X0041862Y0075453D01*
X0041988Y0075353D01*
X0042112Y0075250D01*
X0042233Y0075145D01*
X0042352Y0075036D01*
X0042468Y0074925D01*
X0042581Y0074810D01*
X0042691Y0074693D01*
X0042798Y0074573D01*
X0042902Y0074451D01*
X0043003Y0074326D01*
X0043101Y0074198D01*
X0043196Y0074068D01*
X0043288Y0073936D01*
X0043376Y0073802D01*
X0043461Y0073665D01*
X0043543Y0073527D01*
X0043621Y0073386D01*
X0043695Y0073244D01*
X0043766Y0073100D01*
X0043834Y0072954D01*
X0043897Y0072806D01*
X0043958Y0072657D01*
X0044014Y0072506D01*
X0044067Y0072354D01*
X0044116Y0072201D01*
X0044161Y0072047D01*
X0044202Y0071892D01*
X0044240Y0071735D01*
X0044273Y0071578D01*
X0044303Y0071420D01*
X0044329Y0071261D01*
X0044350Y0071102D01*
X0044368Y0070942D01*
X0044382Y0070782D01*
X0044392Y0070621D01*
X0044398Y0070461D01*
X0044400Y0070300D01*
X0044398Y0070139D01*
X0044392Y0069979D01*
X0044382Y0069818D01*
X0044368Y0069658D01*
X0044350Y0069498D01*
X0044329Y0069339D01*
X0044303Y0069180D01*
X0044273Y0069022D01*
X0044240Y0068865D01*
X0044202Y0068708D01*
X0044161Y0068553D01*
X0044116Y0068399D01*
X0044067Y0068246D01*
X0044014Y0068094D01*
X0043958Y0067943D01*
X0043897Y0067794D01*
X0043834Y0067646D01*
X0043766Y0067500D01*
X0043695Y0067356D01*
X0043621Y0067214D01*
X0043543Y0067073D01*
X0043461Y0066935D01*
X0043376Y0066798D01*
X0043288Y0066664D01*
X0043196Y0066532D01*
X0043101Y0066402D01*
X0043003Y0066274D01*
X0042902Y0066149D01*
X0042798Y0066027D01*
X0042691Y0065907D01*
X0042581Y0065790D01*
X0042468Y0065675D01*
X0042352Y0065564D01*
X0042233Y0065455D01*
X0042112Y0065350D01*
X0041988Y0065247D01*
X0041862Y0065147D01*
X0041734Y0065051D01*
X0041603Y0064958D01*
X0041469Y0064868D01*
X0041334Y0064781D01*
X0041196Y0064698D01*
X0041057Y0064618D01*
X0040915Y0064542D01*
X0040772Y0064469D01*
X0040627Y0064400D01*
X0040480Y0064334D01*
X0040332Y0064272D01*
X0040182Y0064214D01*
X0040031Y0064159D01*
X0039878Y0064108D01*
X0039724Y0064061D01*
X0039569Y0064018D01*
X0039413Y0063979D01*
X0039257Y0063943D01*
X0039099Y0063912D01*
X0038941Y0063884D01*
X0038782Y0063860D01*
X0038622Y0063840D01*
X0038462Y0063824D01*
X0038302Y0063812D01*
X0038141Y0063804D01*
X0037980Y0063800D01*
X0037820Y0063800D01*
X0037659Y0063804D01*
X0037498Y0063812D01*
X0037338Y0063824D01*
X0037178Y0063840D01*
X0037018Y0063860D01*
X0036859Y0063884D01*
X0036701Y0063912D01*
X0036543Y0063943D01*
X0036387Y0063979D01*
X0036231Y0064018D01*
X0036076Y0064061D01*
X0035922Y0064108D01*
X0035769Y0064159D01*
X0035618Y0064214D01*
X0035468Y0064272D01*
X0035320Y0064334D01*
X0035173Y0064400D01*
X0035028Y0064469D01*
X0034885Y0064542D01*
X0034743Y0064618D01*
X0034604Y0064698D01*
X0034466Y0064781D01*
X0034331Y0064868D01*
X0034197Y0064958D01*
X0034066Y0065051D01*
X0033938Y0065147D01*
X0033812Y0065247D01*
X0033688Y0065350D01*
X0033567Y0065455D01*
X0033448Y0065564D01*
X0033332Y0065675D01*
X0033219Y0065790D01*
X0033109Y0065907D01*
X0033002Y0066027D01*
X0032898Y0066149D01*
X0032797Y0066274D01*
X0032699Y0066402D01*
X0032604Y0066532D01*
X0032512Y0066664D01*
X0032424Y0066798D01*
X0032339Y0066935D01*
X0032257Y0067073D01*
X0032179Y0067214D01*
X0032105Y0067356D01*
X0032034Y0067500D01*
X0031966Y0067646D01*
X0031903Y0067794D01*
X0031842Y0067943D01*
X0031786Y0068094D01*
X0031733Y0068246D01*
X0031684Y0068399D01*
X0031639Y0068553D01*
X0031598Y0068708D01*
X0031560Y0068865D01*
X0031527Y0069022D01*
X0031497Y0069180D01*
X0031471Y0069339D01*
X0031450Y0069498D01*
X0031432Y0069658D01*
X0031418Y0069818D01*
X0031408Y0069979D01*
X0031402Y0070139D01*
X0031400Y0070300D01*
X0050700Y0043300D02*
X0050700Y0040300D01*
X0049700Y0040300D01*
X0046200Y0040300D01*
X0050700Y0040300D02*
X0123700Y0040300D01*
X0123700Y0043300D01*
X0050700Y0043300D01*
X0046700Y0028300D02*
X0127700Y0028300D01*
X0127700Y0037800D01*
X0127698Y0037898D01*
X0127692Y0037996D01*
X0127683Y0038094D01*
X0127669Y0038191D01*
X0127652Y0038288D01*
X0127631Y0038384D01*
X0127606Y0038479D01*
X0127578Y0038573D01*
X0127545Y0038665D01*
X0127510Y0038757D01*
X0127470Y0038847D01*
X0127428Y0038935D01*
X0127381Y0039022D01*
X0127332Y0039106D01*
X0127279Y0039189D01*
X0127223Y0039269D01*
X0127163Y0039348D01*
X0127101Y0039424D01*
X0127036Y0039497D01*
X0126968Y0039568D01*
X0126897Y0039636D01*
X0126824Y0039701D01*
X0126748Y0039763D01*
X0126669Y0039823D01*
X0126589Y0039879D01*
X0126506Y0039932D01*
X0126422Y0039981D01*
X0126335Y0040028D01*
X0126247Y0040070D01*
X0126157Y0040110D01*
X0126065Y0040145D01*
X0125973Y0040178D01*
X0125879Y0040206D01*
X0125784Y0040231D01*
X0125688Y0040252D01*
X0125591Y0040269D01*
X0125494Y0040283D01*
X0125396Y0040292D01*
X0125298Y0040298D01*
X0125200Y0040300D01*
X0124700Y0040300D02*
X0124700Y0080800D01*
X0126700Y0082800D01*
X0145700Y0082800D01*
X0148200Y0080300D01*
X0148200Y0040800D01*
X0128200Y0040800D01*
X0128200Y0040300D01*
X0124700Y0040300D01*
X0123700Y0040300D01*
X0128200Y0040300D02*
X0148200Y0040300D01*
X0148200Y0040800D01*
X0148200Y0040300D02*
X0148200Y0028300D01*
X0148200Y0026300D01*
X0138200Y0026300D01*
X0138200Y0028300D01*
X0138200Y0029300D01*
X0128200Y0029300D01*
X0128200Y0028300D01*
X0127700Y0028300D01*
X0128200Y0028300D02*
X0128200Y0026300D01*
X0046200Y0026300D01*
X0046200Y0028300D01*
X0046200Y0026300D02*
X0036200Y0026300D01*
X0026200Y0026300D01*
X0026200Y0028300D01*
X0026200Y0026300D02*
X0026200Y0024300D01*
X0054200Y0024300D01*
X0054200Y0003300D01*
X0052700Y0003300D02*
X0052702Y0003213D01*
X0052708Y0003126D01*
X0052717Y0003039D01*
X0052730Y0002953D01*
X0052747Y0002867D01*
X0052768Y0002782D01*
X0052793Y0002699D01*
X0052821Y0002616D01*
X0052852Y0002535D01*
X0052887Y0002455D01*
X0052926Y0002377D01*
X0052968Y0002300D01*
X0053013Y0002225D01*
X0053062Y0002153D01*
X0053113Y0002082D01*
X0053168Y0002014D01*
X0053225Y0001949D01*
X0053286Y0001886D01*
X0053349Y0001825D01*
X0053414Y0001768D01*
X0053482Y0001713D01*
X0053553Y0001662D01*
X0053625Y0001613D01*
X0053700Y0001568D01*
X0053777Y0001526D01*
X0053855Y0001487D01*
X0053935Y0001452D01*
X0054016Y0001421D01*
X0054099Y0001393D01*
X0054182Y0001368D01*
X0054267Y0001347D01*
X0054353Y0001330D01*
X0054439Y0001317D01*
X0054526Y0001308D01*
X0054613Y0001302D01*
X0054700Y0001300D01*
X0055700Y0001300D01*
X0118700Y0001300D01*
X0118700Y0022300D01*
X0120200Y0024300D02*
X0148200Y0024300D01*
X0148200Y0026300D01*
X0148200Y0028300D02*
X0138200Y0028300D01*
X0138200Y0026300D02*
X0128200Y0026300D01*
X0124200Y0024300D02*
X0124102Y0024298D01*
X0124004Y0024292D01*
X0123906Y0024283D01*
X0123809Y0024269D01*
X0123712Y0024252D01*
X0123616Y0024231D01*
X0123521Y0024206D01*
X0123427Y0024178D01*
X0123335Y0024145D01*
X0123243Y0024110D01*
X0123153Y0024070D01*
X0123065Y0024028D01*
X0122978Y0023981D01*
X0122894Y0023932D01*
X0122811Y0023879D01*
X0122731Y0023823D01*
X0122652Y0023763D01*
X0122576Y0023701D01*
X0122503Y0023636D01*
X0122432Y0023568D01*
X0122364Y0023497D01*
X0122299Y0023424D01*
X0122237Y0023348D01*
X0122177Y0023269D01*
X0122121Y0023189D01*
X0122068Y0023106D01*
X0122019Y0023022D01*
X0121972Y0022935D01*
X0121930Y0022847D01*
X0121890Y0022757D01*
X0121855Y0022665D01*
X0121822Y0022573D01*
X0121794Y0022479D01*
X0121769Y0022384D01*
X0121748Y0022288D01*
X0121731Y0022191D01*
X0121717Y0022094D01*
X0121708Y0021996D01*
X0121702Y0021898D01*
X0121700Y0021800D01*
X0121700Y0003300D01*
X0120200Y0003300D02*
X0120200Y0024300D01*
X0054200Y0024300D01*
X0055700Y0022300D02*
X0055700Y0001300D01*
X0052700Y0003300D02*
X0052700Y0021800D01*
X0052698Y0021898D01*
X0052692Y0021996D01*
X0052683Y0022094D01*
X0052669Y0022191D01*
X0052652Y0022288D01*
X0052631Y0022384D01*
X0052606Y0022479D01*
X0052578Y0022573D01*
X0052545Y0022665D01*
X0052510Y0022757D01*
X0052470Y0022847D01*
X0052428Y0022935D01*
X0052381Y0023022D01*
X0052332Y0023106D01*
X0052279Y0023189D01*
X0052223Y0023269D01*
X0052163Y0023348D01*
X0052101Y0023424D01*
X0052036Y0023497D01*
X0051968Y0023568D01*
X0051897Y0023636D01*
X0051824Y0023701D01*
X0051748Y0023763D01*
X0051669Y0023823D01*
X0051589Y0023879D01*
X0051506Y0023932D01*
X0051422Y0023981D01*
X0051335Y0024028D01*
X0051247Y0024070D01*
X0051157Y0024110D01*
X0051065Y0024145D01*
X0050973Y0024178D01*
X0050879Y0024206D01*
X0050784Y0024231D01*
X0050688Y0024252D01*
X0050591Y0024269D01*
X0050494Y0024283D01*
X0050396Y0024292D01*
X0050298Y0024298D01*
X0050200Y0024300D01*
X0036200Y0026300D02*
X0036200Y0028300D01*
X0067200Y0015300D02*
X0067200Y0006300D01*
X0068700Y0006300D01*
X0068700Y0013800D01*
X0074700Y0013800D01*
X0074700Y0006300D01*
X0076200Y0006300D01*
X0076200Y0015300D01*
X0067200Y0015300D01*
X0082700Y0015300D02*
X0082700Y0006300D01*
X0084200Y0006300D01*
X0084200Y0013800D01*
X0090200Y0013800D01*
X0090200Y0006300D01*
X0091700Y0006300D01*
X0091700Y0015300D01*
X0082700Y0015300D01*
X0098200Y0015300D02*
X0098200Y0006300D01*
X0099700Y0006300D01*
X0099700Y0013800D01*
X0105700Y0013800D01*
X0105700Y0006300D01*
X0107200Y0006300D01*
X0107200Y0015300D01*
X0098200Y0015300D01*
X0118700Y0001300D02*
X0119700Y0001300D01*
X0119787Y0001302D01*
X0119874Y0001308D01*
X0119961Y0001317D01*
X0120047Y0001330D01*
X0120133Y0001347D01*
X0120218Y0001368D01*
X0120301Y0001393D01*
X0120384Y0001421D01*
X0120465Y0001452D01*
X0120545Y0001487D01*
X0120623Y0001526D01*
X0120700Y0001568D01*
X0120775Y0001613D01*
X0120847Y0001662D01*
X0120918Y0001713D01*
X0120986Y0001768D01*
X0121051Y0001825D01*
X0121114Y0001886D01*
X0121175Y0001949D01*
X0121232Y0002014D01*
X0121287Y0002082D01*
X0121338Y0002153D01*
X0121387Y0002225D01*
X0121432Y0002300D01*
X0121474Y0002377D01*
X0121513Y0002455D01*
X0121548Y0002535D01*
X0121579Y0002616D01*
X0121607Y0002699D01*
X0121632Y0002782D01*
X0121653Y0002867D01*
X0121670Y0002953D01*
X0121683Y0003039D01*
X0121692Y0003126D01*
X0121698Y0003213D01*
X0121700Y0003300D01*
X0177200Y0042800D02*
X0177200Y0047800D01*
X0179700Y0050300D01*
X0194700Y0050300D01*
X0197200Y0047800D01*
X0197200Y0042800D01*
X0194700Y0040300D01*
X0179700Y0040300D01*
X0177200Y0042800D01*
X0179700Y0050300D02*
X0177200Y0052800D01*
X0177200Y0057800D01*
X0179700Y0060300D01*
X0194700Y0060300D01*
X0197200Y0057800D01*
X0197200Y0052800D01*
X0194700Y0050300D01*
X0194700Y0060300D02*
X0197200Y0062800D01*
X0197200Y0067800D01*
X0194700Y0070300D01*
X0179700Y0070300D01*
X0177200Y0067800D01*
X0177200Y0062800D01*
X0179700Y0060300D01*
X0179700Y0070300D02*
X0177200Y0072800D01*
X0177200Y0077800D01*
X0179700Y0080300D01*
X0194700Y0080300D01*
X0197200Y0077800D01*
X0197200Y0072800D01*
X0194700Y0070300D01*
X0194700Y0080300D02*
X0197200Y0082800D01*
X0197200Y0087800D01*
X0194700Y0090300D01*
X0179700Y0090300D01*
X0177200Y0087800D01*
X0177200Y0082800D01*
X0179700Y0080300D01*
X0171102Y0077001D02*
X0171102Y0073599D01*
X0168298Y0073599D02*
X0168298Y0077001D01*
X0170313Y0107800D02*
X0164088Y0107800D01*
X0164020Y0107802D01*
X0163953Y0107807D01*
X0163886Y0107816D01*
X0163819Y0107829D01*
X0163754Y0107846D01*
X0163689Y0107865D01*
X0163625Y0107889D01*
X0163563Y0107916D01*
X0163502Y0107946D01*
X0163444Y0107979D01*
X0163387Y0108015D01*
X0163332Y0108055D01*
X0163279Y0108097D01*
X0163228Y0108143D01*
X0163181Y0108190D01*
X0163135Y0108241D01*
X0163093Y0108294D01*
X0163053Y0108349D01*
X0163017Y0108406D01*
X0162984Y0108464D01*
X0162954Y0108525D01*
X0162927Y0108587D01*
X0162903Y0108651D01*
X0162884Y0108716D01*
X0162867Y0108781D01*
X0162854Y0108848D01*
X0162845Y0108915D01*
X0162840Y0108982D01*
X0162838Y0109050D01*
X0162838Y0121550D01*
X0162840Y0121618D01*
X0162845Y0121685D01*
X0162854Y0121752D01*
X0162867Y0121819D01*
X0162884Y0121884D01*
X0162903Y0121949D01*
X0162927Y0122013D01*
X0162954Y0122075D01*
X0162984Y0122136D01*
X0163017Y0122194D01*
X0163053Y0122251D01*
X0163093Y0122306D01*
X0163135Y0122359D01*
X0163181Y0122410D01*
X0163228Y0122457D01*
X0163279Y0122503D01*
X0163332Y0122545D01*
X0163387Y0122585D01*
X0163444Y0122621D01*
X0163502Y0122654D01*
X0163563Y0122684D01*
X0163625Y0122711D01*
X0163689Y0122735D01*
X0163754Y0122754D01*
X0163819Y0122771D01*
X0163886Y0122784D01*
X0163953Y0122793D01*
X0164020Y0122798D01*
X0164088Y0122800D01*
X0170313Y0122800D01*
X0170381Y0122798D01*
X0170448Y0122793D01*
X0170515Y0122784D01*
X0170582Y0122771D01*
X0170647Y0122754D01*
X0170712Y0122735D01*
X0170776Y0122711D01*
X0170838Y0122684D01*
X0170899Y0122654D01*
X0170957Y0122621D01*
X0171014Y0122585D01*
X0171069Y0122545D01*
X0171122Y0122503D01*
X0171173Y0122457D01*
X0171220Y0122410D01*
X0171266Y0122359D01*
X0171308Y0122306D01*
X0171348Y0122251D01*
X0171384Y0122194D01*
X0171417Y0122136D01*
X0171447Y0122075D01*
X0171474Y0122013D01*
X0171498Y0121949D01*
X0171517Y0121884D01*
X0171534Y0121819D01*
X0171547Y0121752D01*
X0171556Y0121685D01*
X0171561Y0121618D01*
X0171563Y0121550D01*
X0171563Y0109050D01*
X0171561Y0108982D01*
X0171556Y0108915D01*
X0171547Y0108848D01*
X0171534Y0108781D01*
X0171517Y0108716D01*
X0171498Y0108651D01*
X0171474Y0108587D01*
X0171447Y0108525D01*
X0171417Y0108464D01*
X0171384Y0108406D01*
X0171348Y0108349D01*
X0171308Y0108294D01*
X0171266Y0108241D01*
X0171220Y0108190D01*
X0171173Y0108143D01*
X0171122Y0108097D01*
X0171069Y0108055D01*
X0171014Y0108015D01*
X0170957Y0107979D01*
X0170899Y0107946D01*
X0170838Y0107916D01*
X0170776Y0107889D01*
X0170712Y0107865D01*
X0170647Y0107846D01*
X0170582Y0107829D01*
X0170515Y0107816D01*
X0170448Y0107807D01*
X0170381Y0107802D01*
X0170313Y0107800D01*
X0182837Y0109050D02*
X0182837Y0121550D01*
X0182839Y0121618D01*
X0182844Y0121685D01*
X0182853Y0121752D01*
X0182866Y0121819D01*
X0182883Y0121884D01*
X0182902Y0121949D01*
X0182926Y0122013D01*
X0182953Y0122075D01*
X0182983Y0122136D01*
X0183016Y0122194D01*
X0183052Y0122251D01*
X0183092Y0122306D01*
X0183134Y0122359D01*
X0183180Y0122410D01*
X0183227Y0122457D01*
X0183278Y0122503D01*
X0183331Y0122545D01*
X0183386Y0122585D01*
X0183443Y0122621D01*
X0183501Y0122654D01*
X0183562Y0122684D01*
X0183624Y0122711D01*
X0183688Y0122735D01*
X0183753Y0122754D01*
X0183818Y0122771D01*
X0183885Y0122784D01*
X0183952Y0122793D01*
X0184019Y0122798D01*
X0184087Y0122800D01*
X0190312Y0122800D01*
X0190380Y0122798D01*
X0190447Y0122793D01*
X0190514Y0122784D01*
X0190581Y0122771D01*
X0190646Y0122754D01*
X0190711Y0122735D01*
X0190775Y0122711D01*
X0190837Y0122684D01*
X0190898Y0122654D01*
X0190956Y0122621D01*
X0191013Y0122585D01*
X0191068Y0122545D01*
X0191121Y0122503D01*
X0191172Y0122457D01*
X0191219Y0122410D01*
X0191265Y0122359D01*
X0191307Y0122306D01*
X0191347Y0122251D01*
X0191383Y0122194D01*
X0191416Y0122136D01*
X0191446Y0122075D01*
X0191473Y0122013D01*
X0191497Y0121949D01*
X0191516Y0121884D01*
X0191533Y0121819D01*
X0191546Y0121752D01*
X0191555Y0121685D01*
X0191560Y0121618D01*
X0191562Y0121550D01*
X0191562Y0109050D01*
X0191560Y0108982D01*
X0191555Y0108915D01*
X0191546Y0108848D01*
X0191533Y0108781D01*
X0191516Y0108716D01*
X0191497Y0108651D01*
X0191473Y0108587D01*
X0191446Y0108525D01*
X0191416Y0108464D01*
X0191383Y0108406D01*
X0191347Y0108349D01*
X0191307Y0108294D01*
X0191265Y0108241D01*
X0191219Y0108190D01*
X0191172Y0108143D01*
X0191121Y0108097D01*
X0191068Y0108055D01*
X0191013Y0108015D01*
X0190956Y0107979D01*
X0190898Y0107946D01*
X0190837Y0107916D01*
X0190775Y0107889D01*
X0190711Y0107865D01*
X0190646Y0107846D01*
X0190581Y0107829D01*
X0190514Y0107816D01*
X0190447Y0107807D01*
X0190380Y0107802D01*
X0190312Y0107800D01*
X0184087Y0107800D01*
X0184019Y0107802D01*
X0183952Y0107807D01*
X0183885Y0107816D01*
X0183818Y0107829D01*
X0183753Y0107846D01*
X0183688Y0107865D01*
X0183624Y0107889D01*
X0183562Y0107916D01*
X0183501Y0107946D01*
X0183443Y0107979D01*
X0183386Y0108015D01*
X0183331Y0108055D01*
X0183278Y0108097D01*
X0183227Y0108143D01*
X0183180Y0108190D01*
X0183134Y0108241D01*
X0183092Y0108294D01*
X0183052Y0108349D01*
X0183016Y0108406D01*
X0182983Y0108464D01*
X0182953Y0108525D01*
X0182926Y0108587D01*
X0182902Y0108651D01*
X0182883Y0108716D01*
X0182866Y0108781D01*
X0182853Y0108848D01*
X0182844Y0108915D01*
X0182839Y0108982D01*
X0182837Y0109050D01*
X0189200Y0131300D02*
X0165200Y0131300D01*
X0165040Y0131302D01*
X0164881Y0131308D01*
X0164722Y0131318D01*
X0164563Y0131331D01*
X0164404Y0131349D01*
X0164246Y0131370D01*
X0164089Y0131396D01*
X0163932Y0131425D01*
X0163776Y0131458D01*
X0163621Y0131495D01*
X0163466Y0131535D01*
X0163313Y0131580D01*
X0163161Y0131628D01*
X0163010Y0131680D01*
X0162861Y0131736D01*
X0162713Y0131795D01*
X0162566Y0131858D01*
X0162421Y0131924D01*
X0162278Y0131994D01*
X0162136Y0132068D01*
X0161996Y0132144D01*
X0161858Y0132225D01*
X0161723Y0132308D01*
X0161589Y0132395D01*
X0161457Y0132486D01*
X0161328Y0132579D01*
X0161201Y0132676D01*
X0161076Y0132775D01*
X0160954Y0132878D01*
X0160835Y0132984D01*
X0160718Y0133092D01*
X0160604Y0133204D01*
X0160492Y0133318D01*
X0160384Y0133435D01*
X0160278Y0133554D01*
X0160175Y0133676D01*
X0160076Y0133801D01*
X0159979Y0133928D01*
X0159886Y0134057D01*
X0159795Y0134189D01*
X0159708Y0134323D01*
X0159625Y0134458D01*
X0159544Y0134596D01*
X0159468Y0134736D01*
X0159394Y0134878D01*
X0159324Y0135021D01*
X0159258Y0135166D01*
X0159195Y0135313D01*
X0159136Y0135461D01*
X0159080Y0135610D01*
X0159028Y0135761D01*
X0158980Y0135913D01*
X0158935Y0136066D01*
X0158895Y0136221D01*
X0158858Y0136376D01*
X0158825Y0136532D01*
X0158796Y0136689D01*
X0158770Y0136846D01*
X0158749Y0137004D01*
X0158731Y0137163D01*
X0158718Y0137322D01*
X0158708Y0137481D01*
X0158702Y0137640D01*
X0158700Y0137800D01*
X0158702Y0137960D01*
X0158708Y0138119D01*
X0158718Y0138278D01*
X0158731Y0138437D01*
X0158749Y0138596D01*
X0158770Y0138754D01*
X0158796Y0138911D01*
X0158825Y0139068D01*
X0158858Y0139224D01*
X0158895Y0139379D01*
X0158935Y0139534D01*
X0158980Y0139687D01*
X0159028Y0139839D01*
X0159080Y0139990D01*
X0159136Y0140139D01*
X0159195Y0140287D01*
X0159258Y0140434D01*
X0159324Y0140579D01*
X0159394Y0140722D01*
X0159468Y0140864D01*
X0159544Y0141004D01*
X0159625Y0141142D01*
X0159708Y0141277D01*
X0159795Y0141411D01*
X0159886Y0141543D01*
X0159979Y0141672D01*
X0160076Y0141799D01*
X0160175Y0141924D01*
X0160278Y0142046D01*
X0160384Y0142165D01*
X0160492Y0142282D01*
X0160604Y0142396D01*
X0160718Y0142508D01*
X0160835Y0142616D01*
X0160954Y0142722D01*
X0161076Y0142825D01*
X0161201Y0142924D01*
X0161328Y0143021D01*
X0161457Y0143114D01*
X0161589Y0143205D01*
X0161723Y0143292D01*
X0161858Y0143375D01*
X0161996Y0143456D01*
X0162136Y0143532D01*
X0162278Y0143606D01*
X0162421Y0143676D01*
X0162566Y0143742D01*
X0162713Y0143805D01*
X0162861Y0143864D01*
X0163010Y0143920D01*
X0163161Y0143972D01*
X0163313Y0144020D01*
X0163466Y0144065D01*
X0163621Y0144105D01*
X0163776Y0144142D01*
X0163932Y0144175D01*
X0164089Y0144204D01*
X0164246Y0144230D01*
X0164404Y0144251D01*
X0164563Y0144269D01*
X0164722Y0144282D01*
X0164881Y0144292D01*
X0165040Y0144298D01*
X0165200Y0144300D01*
X0189200Y0144300D01*
X0189360Y0144298D01*
X0189519Y0144292D01*
X0189678Y0144282D01*
X0189837Y0144269D01*
X0189996Y0144251D01*
X0190154Y0144230D01*
X0190311Y0144204D01*
X0190468Y0144175D01*
X0190624Y0144142D01*
X0190779Y0144105D01*
X0190934Y0144065D01*
X0191087Y0144020D01*
X0191239Y0143972D01*
X0191390Y0143920D01*
X0191539Y0143864D01*
X0191687Y0143805D01*
X0191834Y0143742D01*
X0191979Y0143676D01*
X0192122Y0143606D01*
X0192264Y0143532D01*
X0192404Y0143456D01*
X0192542Y0143375D01*
X0192677Y0143292D01*
X0192811Y0143205D01*
X0192943Y0143114D01*
X0193072Y0143021D01*
X0193199Y0142924D01*
X0193324Y0142825D01*
X0193446Y0142722D01*
X0193565Y0142616D01*
X0193682Y0142508D01*
X0193796Y0142396D01*
X0193908Y0142282D01*
X0194016Y0142165D01*
X0194122Y0142046D01*
X0194225Y0141924D01*
X0194324Y0141799D01*
X0194421Y0141672D01*
X0194514Y0141543D01*
X0194605Y0141411D01*
X0194692Y0141277D01*
X0194775Y0141142D01*
X0194856Y0141004D01*
X0194932Y0140864D01*
X0195006Y0140722D01*
X0195076Y0140579D01*
X0195142Y0140434D01*
X0195205Y0140287D01*
X0195264Y0140139D01*
X0195320Y0139990D01*
X0195372Y0139839D01*
X0195420Y0139687D01*
X0195465Y0139534D01*
X0195505Y0139379D01*
X0195542Y0139224D01*
X0195575Y0139068D01*
X0195604Y0138911D01*
X0195630Y0138754D01*
X0195651Y0138596D01*
X0195669Y0138437D01*
X0195682Y0138278D01*
X0195692Y0138119D01*
X0195698Y0137960D01*
X0195700Y0137800D01*
X0195698Y0137640D01*
X0195692Y0137481D01*
X0195682Y0137322D01*
X0195669Y0137163D01*
X0195651Y0137004D01*
X0195630Y0136846D01*
X0195604Y0136689D01*
X0195575Y0136532D01*
X0195542Y0136376D01*
X0195505Y0136221D01*
X0195465Y0136066D01*
X0195420Y0135913D01*
X0195372Y0135761D01*
X0195320Y0135610D01*
X0195264Y0135461D01*
X0195205Y0135313D01*
X0195142Y0135166D01*
X0195076Y0135021D01*
X0195006Y0134878D01*
X0194932Y0134736D01*
X0194856Y0134596D01*
X0194775Y0134458D01*
X0194692Y0134323D01*
X0194605Y0134189D01*
X0194514Y0134057D01*
X0194421Y0133928D01*
X0194324Y0133801D01*
X0194225Y0133676D01*
X0194122Y0133554D01*
X0194016Y0133435D01*
X0193908Y0133318D01*
X0193796Y0133204D01*
X0193682Y0133092D01*
X0193565Y0132984D01*
X0193446Y0132878D01*
X0193324Y0132775D01*
X0193199Y0132676D01*
X0193072Y0132579D01*
X0192943Y0132486D01*
X0192811Y0132395D01*
X0192677Y0132308D01*
X0192542Y0132225D01*
X0192404Y0132144D01*
X0192264Y0132068D01*
X0192122Y0131994D01*
X0191979Y0131924D01*
X0191834Y0131858D01*
X0191687Y0131795D01*
X0191539Y0131736D01*
X0191390Y0131680D01*
X0191239Y0131628D01*
X0191087Y0131580D01*
X0190934Y0131535D01*
X0190779Y0131495D01*
X0190624Y0131458D01*
X0190468Y0131425D01*
X0190311Y0131396D01*
X0190154Y0131370D01*
X0189996Y0131349D01*
X0189837Y0131331D01*
X0189678Y0131318D01*
X0189519Y0131308D01*
X0189360Y0131302D01*
X0189200Y0131300D01*
X0182200Y0137800D02*
X0179700Y0137800D01*
X0179700Y0134800D01*
X0178200Y0134800D02*
X0176200Y0134800D01*
X0176200Y0140800D01*
X0178200Y0140800D01*
X0178200Y0134800D01*
X0179700Y0137800D02*
X0179700Y0140800D01*
X0174700Y0140800D02*
X0174700Y0137800D01*
X0172200Y0137800D01*
X0174700Y0137800D02*
X0174700Y0134800D01*
X0130000Y0070300D02*
X0130002Y0070461D01*
X0130008Y0070621D01*
X0130018Y0070782D01*
X0130032Y0070942D01*
X0130050Y0071102D01*
X0130071Y0071261D01*
X0130097Y0071420D01*
X0130127Y0071578D01*
X0130160Y0071735D01*
X0130198Y0071892D01*
X0130239Y0072047D01*
X0130284Y0072201D01*
X0130333Y0072354D01*
X0130386Y0072506D01*
X0130442Y0072657D01*
X0130503Y0072806D01*
X0130566Y0072954D01*
X0130634Y0073100D01*
X0130705Y0073244D01*
X0130779Y0073386D01*
X0130857Y0073527D01*
X0130939Y0073665D01*
X0131024Y0073802D01*
X0131112Y0073936D01*
X0131204Y0074068D01*
X0131299Y0074198D01*
X0131397Y0074326D01*
X0131498Y0074451D01*
X0131602Y0074573D01*
X0131709Y0074693D01*
X0131819Y0074810D01*
X0131932Y0074925D01*
X0132048Y0075036D01*
X0132167Y0075145D01*
X0132288Y0075250D01*
X0132412Y0075353D01*
X0132538Y0075453D01*
X0132666Y0075549D01*
X0132797Y0075642D01*
X0132931Y0075732D01*
X0133066Y0075819D01*
X0133204Y0075902D01*
X0133343Y0075982D01*
X0133485Y0076058D01*
X0133628Y0076131D01*
X0133773Y0076200D01*
X0133920Y0076266D01*
X0134068Y0076328D01*
X0134218Y0076386D01*
X0134369Y0076441D01*
X0134522Y0076492D01*
X0134676Y0076539D01*
X0134831Y0076582D01*
X0134987Y0076621D01*
X0135143Y0076657D01*
X0135301Y0076688D01*
X0135459Y0076716D01*
X0135618Y0076740D01*
X0135778Y0076760D01*
X0135938Y0076776D01*
X0136098Y0076788D01*
X0136259Y0076796D01*
X0136420Y0076800D01*
X0136580Y0076800D01*
X0136741Y0076796D01*
X0136902Y0076788D01*
X0137062Y0076776D01*
X0137222Y0076760D01*
X0137382Y0076740D01*
X0137541Y0076716D01*
X0137699Y0076688D01*
X0137857Y0076657D01*
X0138013Y0076621D01*
X0138169Y0076582D01*
X0138324Y0076539D01*
X0138478Y0076492D01*
X0138631Y0076441D01*
X0138782Y0076386D01*
X0138932Y0076328D01*
X0139080Y0076266D01*
X0139227Y0076200D01*
X0139372Y0076131D01*
X0139515Y0076058D01*
X0139657Y0075982D01*
X0139796Y0075902D01*
X0139934Y0075819D01*
X0140069Y0075732D01*
X0140203Y0075642D01*
X0140334Y0075549D01*
X0140462Y0075453D01*
X0140588Y0075353D01*
X0140712Y0075250D01*
X0140833Y0075145D01*
X0140952Y0075036D01*
X0141068Y0074925D01*
X0141181Y0074810D01*
X0141291Y0074693D01*
X0141398Y0074573D01*
X0141502Y0074451D01*
X0141603Y0074326D01*
X0141701Y0074198D01*
X0141796Y0074068D01*
X0141888Y0073936D01*
X0141976Y0073802D01*
X0142061Y0073665D01*
X0142143Y0073527D01*
X0142221Y0073386D01*
X0142295Y0073244D01*
X0142366Y0073100D01*
X0142434Y0072954D01*
X0142497Y0072806D01*
X0142558Y0072657D01*
X0142614Y0072506D01*
X0142667Y0072354D01*
X0142716Y0072201D01*
X0142761Y0072047D01*
X0142802Y0071892D01*
X0142840Y0071735D01*
X0142873Y0071578D01*
X0142903Y0071420D01*
X0142929Y0071261D01*
X0142950Y0071102D01*
X0142968Y0070942D01*
X0142982Y0070782D01*
X0142992Y0070621D01*
X0142998Y0070461D01*
X0143000Y0070300D01*
X0142998Y0070139D01*
X0142992Y0069979D01*
X0142982Y0069818D01*
X0142968Y0069658D01*
X0142950Y0069498D01*
X0142929Y0069339D01*
X0142903Y0069180D01*
X0142873Y0069022D01*
X0142840Y0068865D01*
X0142802Y0068708D01*
X0142761Y0068553D01*
X0142716Y0068399D01*
X0142667Y0068246D01*
X0142614Y0068094D01*
X0142558Y0067943D01*
X0142497Y0067794D01*
X0142434Y0067646D01*
X0142366Y0067500D01*
X0142295Y0067356D01*
X0142221Y0067214D01*
X0142143Y0067073D01*
X0142061Y0066935D01*
X0141976Y0066798D01*
X0141888Y0066664D01*
X0141796Y0066532D01*
X0141701Y0066402D01*
X0141603Y0066274D01*
X0141502Y0066149D01*
X0141398Y0066027D01*
X0141291Y0065907D01*
X0141181Y0065790D01*
X0141068Y0065675D01*
X0140952Y0065564D01*
X0140833Y0065455D01*
X0140712Y0065350D01*
X0140588Y0065247D01*
X0140462Y0065147D01*
X0140334Y0065051D01*
X0140203Y0064958D01*
X0140069Y0064868D01*
X0139934Y0064781D01*
X0139796Y0064698D01*
X0139657Y0064618D01*
X0139515Y0064542D01*
X0139372Y0064469D01*
X0139227Y0064400D01*
X0139080Y0064334D01*
X0138932Y0064272D01*
X0138782Y0064214D01*
X0138631Y0064159D01*
X0138478Y0064108D01*
X0138324Y0064061D01*
X0138169Y0064018D01*
X0138013Y0063979D01*
X0137857Y0063943D01*
X0137699Y0063912D01*
X0137541Y0063884D01*
X0137382Y0063860D01*
X0137222Y0063840D01*
X0137062Y0063824D01*
X0136902Y0063812D01*
X0136741Y0063804D01*
X0136580Y0063800D01*
X0136420Y0063800D01*
X0136259Y0063804D01*
X0136098Y0063812D01*
X0135938Y0063824D01*
X0135778Y0063840D01*
X0135618Y0063860D01*
X0135459Y0063884D01*
X0135301Y0063912D01*
X0135143Y0063943D01*
X0134987Y0063979D01*
X0134831Y0064018D01*
X0134676Y0064061D01*
X0134522Y0064108D01*
X0134369Y0064159D01*
X0134218Y0064214D01*
X0134068Y0064272D01*
X0133920Y0064334D01*
X0133773Y0064400D01*
X0133628Y0064469D01*
X0133485Y0064542D01*
X0133343Y0064618D01*
X0133204Y0064698D01*
X0133066Y0064781D01*
X0132931Y0064868D01*
X0132797Y0064958D01*
X0132666Y0065051D01*
X0132538Y0065147D01*
X0132412Y0065247D01*
X0132288Y0065350D01*
X0132167Y0065455D01*
X0132048Y0065564D01*
X0131932Y0065675D01*
X0131819Y0065790D01*
X0131709Y0065907D01*
X0131602Y0066027D01*
X0131498Y0066149D01*
X0131397Y0066274D01*
X0131299Y0066402D01*
X0131204Y0066532D01*
X0131112Y0066664D01*
X0131024Y0066798D01*
X0130939Y0066935D01*
X0130857Y0067073D01*
X0130779Y0067214D01*
X0130705Y0067356D01*
X0130634Y0067500D01*
X0130566Y0067646D01*
X0130503Y0067794D01*
X0130442Y0067943D01*
X0130386Y0068094D01*
X0130333Y0068246D01*
X0130284Y0068399D01*
X0130239Y0068553D01*
X0130198Y0068708D01*
X0130160Y0068865D01*
X0130127Y0069022D01*
X0130097Y0069180D01*
X0130071Y0069339D01*
X0130050Y0069498D01*
X0130032Y0069658D01*
X0130018Y0069818D01*
X0130008Y0069979D01*
X0130002Y0070139D01*
X0130000Y0070300D01*
D26*
X0118953Y0066803D02*
X0118953Y0063801D01*
X0118202Y0063050D01*
X0116701Y0063050D01*
X0115950Y0063801D01*
X0116701Y0065302D02*
X0118953Y0065302D01*
X0118953Y0066803D02*
X0118202Y0067554D01*
X0116701Y0067554D01*
X0115950Y0066803D01*
X0115950Y0066053D01*
X0116701Y0065302D01*
X0116701Y0073050D02*
X0115950Y0073801D01*
X0116701Y0073050D02*
X0118202Y0073050D01*
X0118953Y0073801D01*
X0118953Y0075302D01*
X0118202Y0076053D01*
X0117451Y0076053D01*
X0115950Y0075302D01*
X0115950Y0077554D01*
X0118953Y0077554D01*
X0069754Y0094349D02*
X0060865Y0085461D01*
X0054999Y0085461D01*
X0043178Y0097282D01*
X0048787Y0091673D01*
X0063542Y0106427D01*
X0057932Y0112037D01*
X0043178Y0097282D01*
X0057932Y0112037D01*
X0069754Y0100215D01*
X0069754Y0094349D01*
X0061187Y0104072D02*
X0049968Y0104072D01*
X0050466Y0104571D02*
X0061685Y0104571D01*
X0062184Y0105069D02*
X0050965Y0105069D01*
X0051463Y0105568D02*
X0062682Y0105568D01*
X0063181Y0106066D02*
X0051962Y0106066D01*
X0052460Y0106565D02*
X0063404Y0106565D01*
X0062906Y0107063D02*
X0052959Y0107063D01*
X0053457Y0107562D02*
X0062407Y0107562D01*
X0061909Y0108060D02*
X0053956Y0108060D01*
X0054454Y0108559D02*
X0061410Y0108559D01*
X0060912Y0109057D02*
X0054953Y0109057D01*
X0055451Y0109556D02*
X0060413Y0109556D01*
X0059915Y0110054D02*
X0055950Y0110054D01*
X0056448Y0110553D02*
X0059416Y0110553D01*
X0058918Y0111051D02*
X0056947Y0111051D01*
X0057445Y0111550D02*
X0058419Y0111550D01*
X0060688Y0103574D02*
X0049469Y0103574D01*
X0048971Y0103075D02*
X0060190Y0103075D01*
X0059691Y0102577D02*
X0048472Y0102577D01*
X0047974Y0102078D02*
X0059193Y0102078D01*
X0058694Y0101580D02*
X0047475Y0101580D01*
X0046977Y0101081D02*
X0058196Y0101081D01*
X0057697Y0100583D02*
X0046478Y0100583D01*
X0045980Y0100084D02*
X0057199Y0100084D01*
X0056700Y0099586D02*
X0045481Y0099586D01*
X0044983Y0099087D02*
X0056202Y0099087D01*
X0055703Y0098589D02*
X0044484Y0098589D01*
X0043985Y0098090D02*
X0055205Y0098090D01*
X0054706Y0097592D02*
X0043487Y0097592D01*
X0043367Y0097093D02*
X0054208Y0097093D01*
X0053709Y0096595D02*
X0043865Y0096595D01*
X0044364Y0096096D02*
X0053211Y0096096D01*
X0052712Y0095598D02*
X0044862Y0095598D01*
X0045361Y0095099D02*
X0052213Y0095099D01*
X0051715Y0094601D02*
X0045859Y0094601D01*
X0046358Y0094102D02*
X0051216Y0094102D01*
X0050718Y0093603D02*
X0046856Y0093603D01*
X0047355Y0093105D02*
X0050219Y0093105D01*
X0049721Y0092606D02*
X0047853Y0092606D01*
X0048352Y0092108D02*
X0049222Y0092108D01*
X0058951Y0077554D02*
X0057450Y0076053D01*
X0058951Y0077554D02*
X0058951Y0073050D01*
X0057450Y0073050D02*
X0060453Y0073050D01*
X0060453Y0067054D02*
X0058951Y0066303D01*
X0057450Y0064802D01*
X0059702Y0064802D01*
X0060453Y0064051D01*
X0060453Y0063301D01*
X0059702Y0062550D01*
X0058201Y0062550D01*
X0057450Y0063301D01*
X0057450Y0064802D01*
X0034951Y0048154D02*
X0033450Y0049655D01*
X0033450Y0048905D01*
X0032699Y0048905D01*
X0032699Y0049655D01*
X0033450Y0049655D01*
X0032699Y0051223D02*
X0033450Y0051974D01*
X0033450Y0053475D01*
X0032699Y0054226D01*
X0031198Y0054226D01*
X0030447Y0053475D01*
X0030447Y0052724D01*
X0031198Y0051223D01*
X0028946Y0051223D01*
X0028946Y0054226D01*
X0031198Y0055827D02*
X0028946Y0058079D01*
X0033450Y0058079D01*
X0031198Y0058830D02*
X0031198Y0055827D01*
X0030447Y0046553D02*
X0029697Y0046553D01*
X0028946Y0045802D01*
X0028946Y0044301D01*
X0029697Y0043550D01*
X0030447Y0046553D02*
X0033450Y0043550D01*
X0033450Y0046553D01*
X0057450Y0036554D02*
X0057450Y0032050D01*
X0060453Y0032050D02*
X0060453Y0036554D01*
X0058951Y0035053D01*
X0057450Y0036554D01*
X0062054Y0035803D02*
X0062054Y0032801D01*
X0065056Y0035803D01*
X0065056Y0032801D01*
X0064306Y0032050D01*
X0062805Y0032050D01*
X0062054Y0032801D01*
X0062054Y0035803D02*
X0062805Y0036554D01*
X0064306Y0036554D01*
X0065056Y0035803D01*
X0066658Y0035803D02*
X0066658Y0035053D01*
X0067408Y0034302D01*
X0069660Y0034302D01*
X0069660Y0035803D02*
X0068910Y0036554D01*
X0067408Y0036554D01*
X0066658Y0035803D01*
X0066658Y0032801D02*
X0067408Y0032050D01*
X0068910Y0032050D01*
X0069660Y0032801D01*
X0069660Y0035803D01*
X0072597Y0175550D02*
X0071846Y0176301D01*
X0071846Y0177051D01*
X0072597Y0177802D01*
X0074098Y0177802D01*
X0074849Y0177051D01*
X0074849Y0176301D01*
X0074098Y0175550D01*
X0072597Y0175550D01*
X0072597Y0177802D02*
X0071846Y0178553D01*
X0071846Y0179303D01*
X0072597Y0180054D01*
X0074098Y0180054D01*
X0074849Y0179303D01*
X0074849Y0178553D01*
X0074098Y0177802D01*
X0073597Y0185550D02*
X0072846Y0186301D01*
X0073597Y0185550D02*
X0075098Y0185550D01*
X0075849Y0186301D01*
X0075849Y0187802D01*
X0075098Y0188553D01*
X0074347Y0188553D01*
X0072846Y0187802D01*
X0072846Y0190054D01*
X0075849Y0190054D01*
X0071245Y0185550D02*
X0068242Y0185550D01*
X0069743Y0185550D02*
X0069743Y0190054D01*
X0068242Y0188553D01*
X0152638Y0216550D02*
X0152638Y0221054D01*
X0154139Y0219553D01*
X0155641Y0221054D01*
X0155641Y0216550D01*
X0157242Y0216550D02*
X0160245Y0216550D01*
X0158743Y0216550D02*
X0158743Y0221054D01*
X0157242Y0219553D01*
X0161846Y0218802D02*
X0163347Y0219553D01*
X0164098Y0219553D01*
X0164849Y0218802D01*
X0164849Y0217301D01*
X0164098Y0216550D01*
X0162597Y0216550D01*
X0161846Y0217301D01*
X0161846Y0218802D02*
X0161846Y0221054D01*
X0164849Y0221054D01*
X0189946Y0207698D02*
X0192198Y0205446D01*
X0192198Y0208449D01*
X0194450Y0207698D02*
X0189946Y0207698D01*
X0189946Y0203845D02*
X0189946Y0200842D01*
X0192198Y0200842D01*
X0191447Y0202343D01*
X0191447Y0203094D01*
X0192198Y0203845D01*
X0193699Y0203845D01*
X0194450Y0203094D01*
X0194450Y0201593D01*
X0193699Y0200842D01*
X0193699Y0199274D02*
X0193699Y0198523D01*
X0194450Y0198523D01*
X0194450Y0199274D01*
X0193699Y0199274D01*
X0194450Y0199274D02*
X0195951Y0197773D01*
X0194450Y0196171D02*
X0194450Y0193169D01*
X0191447Y0196171D01*
X0190697Y0196171D01*
X0189946Y0195421D01*
X0189946Y0193920D01*
X0190697Y0193169D01*
X0164849Y0189803D02*
X0164849Y0186801D01*
X0164098Y0186050D01*
X0162597Y0186050D01*
X0161846Y0186801D01*
X0162597Y0188302D02*
X0164849Y0188302D01*
X0164849Y0189803D02*
X0164098Y0190554D01*
X0162597Y0190554D01*
X0161846Y0189803D01*
X0161846Y0189053D01*
X0162597Y0188302D01*
X0163347Y0180054D02*
X0163347Y0175550D01*
X0161846Y0175550D02*
X0164849Y0175550D01*
X0161846Y0178553D02*
X0163347Y0180054D01*
D27*
X0174700Y0220050D03*
X0064700Y0220050D03*
X0048700Y0033050D03*
X0125700Y0033050D03*
D28*
X0136500Y0043550D03*
X0037900Y0043550D03*
X0053900Y0209550D03*
X0185500Y0209550D03*
D29*
X0119700Y0227800D03*
D30*
X0119700Y0211300D03*
D31*
X0114300Y0195550D03*
X0103500Y0195550D03*
X0092700Y0195550D03*
X0081900Y0195550D03*
X0125100Y0195550D03*
X0135900Y0195550D03*
X0146700Y0195550D03*
X0157500Y0195550D03*
X0108800Y0057550D03*
X0098000Y0057550D03*
X0087200Y0057550D03*
X0076400Y0057550D03*
X0065600Y0057550D03*
D32*
X0071000Y0052550D03*
X0081800Y0052550D03*
X0092600Y0052550D03*
X0103400Y0052550D03*
X0098100Y0200550D03*
X0087300Y0200550D03*
X0108900Y0200550D03*
X0119700Y0200550D03*
X0130500Y0200550D03*
X0141300Y0200550D03*
X0152100Y0200550D03*
D33*
X0087200Y0041800D03*
D34*
X0087200Y0025300D03*
D35*
X0182200Y0045300D03*
X0182200Y0055300D03*
X0182200Y0065300D03*
X0182200Y0075300D03*
X0182200Y0085300D03*
X0192200Y0085300D03*
X0192200Y0075300D03*
X0192200Y0065300D03*
X0192200Y0055300D03*
X0192200Y0045300D03*
X0024700Y0140300D03*
X0024700Y0150300D03*
X0024700Y0160300D03*
X0024700Y0170300D03*
X0024700Y0180300D03*
X0024700Y0190300D03*
X0024700Y0200300D03*
X0024700Y0210300D03*
X0014700Y0210300D03*
X0014700Y0200300D03*
X0014700Y0190300D03*
X0014700Y0180300D03*
X0014700Y0170300D03*
X0014700Y0160300D03*
X0014700Y0150300D03*
X0014700Y0140300D03*
D36*
X0158840Y0062075D02*
X0158840Y0056220D01*
X0170550Y0056220D01*
X0166647Y0056220D02*
X0166647Y0062075D01*
X0164695Y0064026D01*
X0160792Y0064026D01*
X0158840Y0062075D01*
X0160792Y0050215D02*
X0158840Y0048263D01*
X0158840Y0044360D01*
X0160792Y0042408D01*
X0162743Y0042408D01*
X0164695Y0044360D01*
X0164695Y0048263D01*
X0166647Y0050215D01*
X0168598Y0050215D01*
X0170550Y0048263D01*
X0170550Y0044360D01*
X0168598Y0042408D01*
X0170550Y0037103D02*
X0170550Y0033200D01*
X0170550Y0035152D02*
X0158840Y0035152D01*
X0158840Y0037103D02*
X0158840Y0033200D01*
D37*
X0169700Y0072800D03*
X0169700Y0077800D03*
M02*
