G75*
%MOIN*%
%OFA0B0*%
%FSLAX25Y25*%
%IPPOS*%
%LPD*%
%AMOC8*
5,1,8,0,0,1.08239X$1,22.5*
%
%ADD10C,0.00000*%
%ADD11OC8,0.06000*%
%ADD12C,0.20000*%
%ADD13C,0.05200*%
%ADD14R,0.05118X0.05906*%
%ADD15C,0.03562*%
%ADD16C,0.03200*%
%ADD17C,0.02400*%
%ADD18C,0.01600*%
D10*
X0014700Y0027800D02*
X0196550Y0027800D01*
X0196731Y0027802D01*
X0196912Y0027809D01*
X0197093Y0027820D01*
X0197274Y0027835D01*
X0197454Y0027855D01*
X0197634Y0027879D01*
X0197813Y0027907D01*
X0197991Y0027940D01*
X0198168Y0027977D01*
X0198345Y0028018D01*
X0198520Y0028063D01*
X0198695Y0028113D01*
X0198868Y0028167D01*
X0199039Y0028225D01*
X0199210Y0028287D01*
X0199378Y0028354D01*
X0199545Y0028424D01*
X0199711Y0028498D01*
X0199874Y0028577D01*
X0200035Y0028659D01*
X0200195Y0028745D01*
X0200352Y0028835D01*
X0200507Y0028929D01*
X0200660Y0029026D01*
X0200810Y0029128D01*
X0200958Y0029232D01*
X0201104Y0029341D01*
X0201246Y0029452D01*
X0201386Y0029568D01*
X0201523Y0029686D01*
X0201658Y0029808D01*
X0201789Y0029933D01*
X0201917Y0030061D01*
X0202042Y0030192D01*
X0202164Y0030327D01*
X0202282Y0030464D01*
X0202398Y0030604D01*
X0202509Y0030746D01*
X0202618Y0030892D01*
X0202722Y0031040D01*
X0202824Y0031190D01*
X0202921Y0031343D01*
X0203015Y0031498D01*
X0203105Y0031655D01*
X0203191Y0031815D01*
X0203273Y0031976D01*
X0203352Y0032139D01*
X0203426Y0032305D01*
X0203496Y0032472D01*
X0203563Y0032640D01*
X0203625Y0032811D01*
X0203683Y0032982D01*
X0203737Y0033155D01*
X0203787Y0033330D01*
X0203832Y0033505D01*
X0203873Y0033682D01*
X0203910Y0033859D01*
X0203943Y0034037D01*
X0203971Y0034216D01*
X0203995Y0034396D01*
X0204015Y0034576D01*
X0204030Y0034757D01*
X0204041Y0034938D01*
X0204048Y0035119D01*
X0204050Y0035300D01*
X0204050Y0217150D01*
X0204048Y0217331D01*
X0204041Y0217512D01*
X0204030Y0217693D01*
X0204015Y0217874D01*
X0203995Y0218054D01*
X0203971Y0218234D01*
X0203943Y0218413D01*
X0203910Y0218591D01*
X0203873Y0218768D01*
X0203832Y0218945D01*
X0203787Y0219120D01*
X0203737Y0219295D01*
X0203683Y0219468D01*
X0203625Y0219639D01*
X0203563Y0219810D01*
X0203496Y0219978D01*
X0203426Y0220145D01*
X0203352Y0220311D01*
X0203273Y0220474D01*
X0203191Y0220635D01*
X0203105Y0220795D01*
X0203015Y0220952D01*
X0202921Y0221107D01*
X0202824Y0221260D01*
X0202722Y0221410D01*
X0202618Y0221558D01*
X0202509Y0221704D01*
X0202398Y0221846D01*
X0202282Y0221986D01*
X0202164Y0222123D01*
X0202042Y0222258D01*
X0201917Y0222389D01*
X0201789Y0222517D01*
X0201658Y0222642D01*
X0201523Y0222764D01*
X0201386Y0222882D01*
X0201246Y0222998D01*
X0201104Y0223109D01*
X0200958Y0223218D01*
X0200810Y0223322D01*
X0200660Y0223424D01*
X0200507Y0223521D01*
X0200352Y0223615D01*
X0200195Y0223705D01*
X0200035Y0223791D01*
X0199874Y0223873D01*
X0199711Y0223952D01*
X0199545Y0224026D01*
X0199378Y0224096D01*
X0199210Y0224163D01*
X0199039Y0224225D01*
X0198868Y0224283D01*
X0198695Y0224337D01*
X0198520Y0224387D01*
X0198345Y0224432D01*
X0198168Y0224473D01*
X0197991Y0224510D01*
X0197813Y0224543D01*
X0197634Y0224571D01*
X0197454Y0224595D01*
X0197274Y0224615D01*
X0197093Y0224630D01*
X0196912Y0224641D01*
X0196731Y0224648D01*
X0196550Y0224650D01*
X0014700Y0224650D01*
X0014519Y0224648D01*
X0014338Y0224641D01*
X0014157Y0224630D01*
X0013976Y0224615D01*
X0013796Y0224595D01*
X0013616Y0224571D01*
X0013437Y0224543D01*
X0013259Y0224510D01*
X0013082Y0224473D01*
X0012905Y0224432D01*
X0012730Y0224387D01*
X0012555Y0224337D01*
X0012382Y0224283D01*
X0012211Y0224225D01*
X0012040Y0224163D01*
X0011872Y0224096D01*
X0011705Y0224026D01*
X0011539Y0223952D01*
X0011376Y0223873D01*
X0011215Y0223791D01*
X0011055Y0223705D01*
X0010898Y0223615D01*
X0010743Y0223521D01*
X0010590Y0223424D01*
X0010440Y0223322D01*
X0010292Y0223218D01*
X0010146Y0223109D01*
X0010004Y0222998D01*
X0009864Y0222882D01*
X0009727Y0222764D01*
X0009592Y0222642D01*
X0009461Y0222517D01*
X0009333Y0222389D01*
X0009208Y0222258D01*
X0009086Y0222123D01*
X0008968Y0221986D01*
X0008852Y0221846D01*
X0008741Y0221704D01*
X0008632Y0221558D01*
X0008528Y0221410D01*
X0008426Y0221260D01*
X0008329Y0221107D01*
X0008235Y0220952D01*
X0008145Y0220795D01*
X0008059Y0220635D01*
X0007977Y0220474D01*
X0007898Y0220311D01*
X0007824Y0220145D01*
X0007754Y0219978D01*
X0007687Y0219810D01*
X0007625Y0219639D01*
X0007567Y0219468D01*
X0007513Y0219295D01*
X0007463Y0219120D01*
X0007418Y0218945D01*
X0007377Y0218768D01*
X0007340Y0218591D01*
X0007307Y0218413D01*
X0007279Y0218234D01*
X0007255Y0218054D01*
X0007235Y0217874D01*
X0007220Y0217693D01*
X0007209Y0217512D01*
X0007202Y0217331D01*
X0007200Y0217150D01*
X0007200Y0035300D01*
X0007202Y0035119D01*
X0007209Y0034938D01*
X0007220Y0034757D01*
X0007235Y0034576D01*
X0007255Y0034396D01*
X0007279Y0034216D01*
X0007307Y0034037D01*
X0007340Y0033859D01*
X0007377Y0033682D01*
X0007418Y0033505D01*
X0007463Y0033330D01*
X0007513Y0033155D01*
X0007567Y0032982D01*
X0007625Y0032811D01*
X0007687Y0032640D01*
X0007754Y0032472D01*
X0007824Y0032305D01*
X0007898Y0032139D01*
X0007977Y0031976D01*
X0008059Y0031815D01*
X0008145Y0031655D01*
X0008235Y0031498D01*
X0008329Y0031343D01*
X0008426Y0031190D01*
X0008528Y0031040D01*
X0008632Y0030892D01*
X0008741Y0030746D01*
X0008852Y0030604D01*
X0008968Y0030464D01*
X0009086Y0030327D01*
X0009208Y0030192D01*
X0009333Y0030061D01*
X0009461Y0029933D01*
X0009592Y0029808D01*
X0009727Y0029686D01*
X0009864Y0029568D01*
X0010004Y0029452D01*
X0010146Y0029341D01*
X0010292Y0029232D01*
X0010440Y0029128D01*
X0010590Y0029026D01*
X0010743Y0028929D01*
X0010898Y0028835D01*
X0011055Y0028745D01*
X0011215Y0028659D01*
X0011376Y0028577D01*
X0011539Y0028498D01*
X0011705Y0028424D01*
X0011872Y0028354D01*
X0012040Y0028287D01*
X0012211Y0028225D01*
X0012382Y0028167D01*
X0012555Y0028113D01*
X0012730Y0028063D01*
X0012905Y0028018D01*
X0013082Y0027977D01*
X0013259Y0027940D01*
X0013437Y0027907D01*
X0013616Y0027879D01*
X0013796Y0027855D01*
X0013976Y0027835D01*
X0014157Y0027820D01*
X0014338Y0027809D01*
X0014519Y0027802D01*
X0014700Y0027800D01*
D11*
X0065600Y0075300D03*
X0071000Y0065300D03*
X0076400Y0075300D03*
X0081800Y0065300D03*
X0087200Y0075300D03*
X0092600Y0065300D03*
X0098000Y0075300D03*
X0103400Y0065300D03*
X0108800Y0075300D03*
X0182200Y0075300D03*
X0182200Y0065300D03*
X0182200Y0055300D03*
X0182200Y0045300D03*
X0192200Y0045300D03*
X0192200Y0055300D03*
X0192200Y0065300D03*
X0192200Y0075300D03*
X0192200Y0085300D03*
X0182200Y0085300D03*
X0157500Y0177800D03*
X0152100Y0187800D03*
X0146700Y0177800D03*
X0141300Y0187800D03*
X0135900Y0177800D03*
X0130500Y0187800D03*
X0125100Y0177800D03*
X0119700Y0187800D03*
X0114300Y0177800D03*
X0108900Y0187800D03*
X0103500Y0177800D03*
X0098100Y0187800D03*
X0092700Y0177800D03*
X0087300Y0187800D03*
X0081900Y0177800D03*
X0024700Y0180300D03*
X0024700Y0170300D03*
X0024700Y0160300D03*
X0024700Y0150300D03*
X0024700Y0140300D03*
X0014700Y0140300D03*
X0014700Y0150300D03*
X0014700Y0160300D03*
X0014700Y0170300D03*
X0014700Y0180300D03*
X0014700Y0190300D03*
X0014700Y0200300D03*
X0014700Y0210300D03*
X0024700Y0210300D03*
X0024700Y0200300D03*
X0024700Y0190300D03*
D12*
X0054100Y0182800D03*
X0037900Y0070300D03*
X0136500Y0070300D03*
X0185300Y0182800D03*
D13*
X0186700Y0137800D03*
X0167700Y0137800D03*
D14*
G36*
X0119239Y0131918D02*
X0122858Y0128299D01*
X0118683Y0124124D01*
X0115064Y0127743D01*
X0119239Y0131918D01*
G37*
G36*
X0113949Y0137208D02*
X0117568Y0133589D01*
X0113393Y0129414D01*
X0109774Y0133033D01*
X0113949Y0137208D01*
G37*
G36*
X0091680Y0137705D02*
X0095299Y0141324D01*
X0099474Y0137149D01*
X0095855Y0133530D01*
X0091680Y0137705D01*
G37*
G36*
X0086391Y0132416D02*
X0090010Y0136035D01*
X0094185Y0131860D01*
X0090566Y0128241D01*
X0086391Y0132416D01*
G37*
G36*
X0088217Y0117208D02*
X0091836Y0113589D01*
X0087661Y0109414D01*
X0084042Y0113033D01*
X0088217Y0117208D01*
G37*
G36*
X0093507Y0111918D02*
X0097126Y0108299D01*
X0092951Y0104124D01*
X0089332Y0107743D01*
X0093507Y0111918D01*
G37*
G36*
X0107641Y0102933D02*
X0111260Y0106552D01*
X0115435Y0102377D01*
X0111816Y0098758D01*
X0107641Y0102933D01*
G37*
G36*
X0112930Y0108223D02*
X0116549Y0111842D01*
X0120724Y0107667D01*
X0117105Y0104048D01*
X0112930Y0108223D01*
G37*
D15*
X0110950Y0102800D03*
X0106575Y0089050D03*
X0096784Y0102800D03*
X0098450Y0124050D03*
X0104700Y0139050D03*
X0112825Y0132800D03*
X0123450Y0144050D03*
X0124700Y0119050D03*
X0119700Y0084050D03*
X0158450Y0089050D03*
X0100950Y0161550D03*
X0087825Y0152175D03*
X0075950Y0166550D03*
X0073450Y0138425D03*
X0069700Y0119050D03*
X0076575Y0097800D03*
X0063918Y0091297D03*
X0163450Y0164050D03*
X0019075Y0221550D03*
D16*
X0024700Y0200300D02*
X0059700Y0200300D01*
X0072200Y0187800D01*
X0081900Y0177800D01*
X0081900Y0130600D01*
X0088450Y0124050D01*
X0098450Y0124050D01*
X0098450Y0134554D01*
X0095577Y0137427D01*
X0118961Y0128021D02*
X0123450Y0132511D01*
X0123450Y0144050D01*
X0116827Y0107945D02*
X0122121Y0102651D01*
X0122121Y0097175D01*
X0182825Y0097175D01*
X0192200Y0087800D01*
X0192200Y0085300D01*
X0122121Y0097175D02*
X0108800Y0083854D01*
X0100246Y0083854D01*
X0092803Y0091297D01*
X0092803Y0107596D01*
X0093229Y0108021D01*
X0092803Y0091297D02*
X0063918Y0091297D01*
X0108800Y0083854D02*
X0108800Y0075300D01*
D17*
X0104881Y0078169D02*
X0101919Y0078169D01*
X0102800Y0077288D02*
X0099988Y0080100D01*
X0096012Y0080100D01*
X0093200Y0077288D01*
X0093200Y0073312D01*
X0095225Y0071287D01*
X0095225Y0070029D01*
X0094754Y0070500D01*
X0092600Y0070500D01*
X0092600Y0065300D01*
X0092600Y0065300D01*
X0092600Y0060100D01*
X0094754Y0060100D01*
X0095225Y0060571D01*
X0095225Y0056658D01*
X0095621Y0055702D01*
X0096352Y0054971D01*
X0108227Y0043096D01*
X0109183Y0042700D01*
X0178012Y0042700D01*
X0180212Y0040500D01*
X0184188Y0040500D01*
X0187000Y0043312D01*
X0187000Y0047288D01*
X0184188Y0050100D01*
X0180212Y0050100D01*
X0178012Y0047900D01*
X0110777Y0047900D01*
X0100425Y0058252D01*
X0100425Y0061487D01*
X0101412Y0060500D01*
X0104523Y0060500D01*
X0111927Y0053096D01*
X0112883Y0052700D01*
X0178012Y0052700D01*
X0180212Y0050500D01*
X0184188Y0050500D01*
X0187000Y0053312D01*
X0187000Y0057288D01*
X0184188Y0060100D01*
X0180212Y0060100D01*
X0178012Y0057900D01*
X0114477Y0057900D01*
X0108200Y0064177D01*
X0108200Y0067288D01*
X0105388Y0070100D01*
X0101412Y0070100D01*
X0100425Y0069113D01*
X0100425Y0070937D01*
X0102800Y0073312D01*
X0102800Y0077288D01*
X0104000Y0077288D02*
X0104000Y0073312D01*
X0106812Y0070500D01*
X0110788Y0070500D01*
X0113600Y0073312D01*
X0113600Y0077288D01*
X0112200Y0078688D01*
X0112200Y0082446D01*
X0123529Y0093775D01*
X0181417Y0093775D01*
X0187652Y0087540D01*
X0187400Y0087288D01*
X0187400Y0083312D01*
X0190212Y0080500D01*
X0194188Y0080500D01*
X0197000Y0083312D01*
X0197000Y0087288D01*
X0195450Y0088838D01*
X0195082Y0089726D01*
X0194126Y0090682D01*
X0184751Y0100057D01*
X0183501Y0100575D01*
X0125521Y0100575D01*
X0125521Y0103327D01*
X0125003Y0104577D01*
X0124047Y0105533D01*
X0122524Y0107056D01*
X0122524Y0108412D01*
X0117294Y0113642D01*
X0115803Y0113642D01*
X0111129Y0108969D01*
X0111129Y0108753D01*
X0110970Y0108753D01*
X0110410Y0108603D01*
X0109908Y0108313D01*
X0107950Y0106355D01*
X0111537Y0102768D01*
X0111425Y0102655D01*
X0111537Y0102543D01*
X0108229Y0099234D01*
X0110465Y0096997D01*
X0110967Y0096708D01*
X0111526Y0096558D01*
X0112106Y0096558D01*
X0112665Y0096708D01*
X0113167Y0096997D01*
X0115125Y0098955D01*
X0111538Y0102543D01*
X0111650Y0102655D01*
X0115237Y0099068D01*
X0117195Y0101026D01*
X0117485Y0101528D01*
X0117635Y0102087D01*
X0117635Y0102247D01*
X0117716Y0102247D01*
X0118721Y0101243D01*
X0118721Y0098583D01*
X0107392Y0087254D01*
X0101654Y0087254D01*
X0096203Y0092705D01*
X0096203Y0099219D01*
X0097497Y0099219D01*
X0098813Y0099764D01*
X0099820Y0100771D01*
X0100365Y0102088D01*
X0100365Y0102704D01*
X0103673Y0106012D01*
X0104404Y0106743D01*
X0104800Y0107699D01*
X0104800Y0137568D01*
X0104404Y0138524D01*
X0104119Y0138809D01*
X0104119Y0139291D01*
X0104404Y0139576D01*
X0104800Y0140532D01*
X0104800Y0153317D01*
X0104404Y0154273D01*
X0089900Y0168777D01*
X0089900Y0173812D01*
X0090712Y0173000D01*
X0094688Y0173000D01*
X0097500Y0175812D01*
X0097500Y0179788D01*
X0094688Y0182600D01*
X0090712Y0182600D01*
X0089900Y0181788D01*
X0089900Y0183612D01*
X0092100Y0185812D01*
X0092100Y0189788D01*
X0089288Y0192600D01*
X0085312Y0192600D01*
X0082500Y0189788D01*
X0082500Y0185812D01*
X0084700Y0183612D01*
X0084700Y0181788D01*
X0083888Y0182600D01*
X0081981Y0182600D01*
X0075093Y0189701D01*
X0075082Y0189726D01*
X0074622Y0190186D01*
X0074170Y0190653D01*
X0074145Y0190663D01*
X0061626Y0203182D01*
X0060376Y0203700D01*
X0028088Y0203700D01*
X0026688Y0205100D01*
X0022712Y0205100D01*
X0019900Y0202288D01*
X0019900Y0198312D01*
X0022712Y0195500D01*
X0026688Y0195500D01*
X0028088Y0196900D01*
X0058292Y0196900D01*
X0069777Y0185414D01*
X0077100Y0177865D01*
X0077100Y0175812D01*
X0078500Y0174412D01*
X0078500Y0129924D01*
X0079018Y0128674D01*
X0086524Y0121168D01*
X0087774Y0120650D01*
X0097300Y0120650D01*
X0097738Y0120469D01*
X0099162Y0120469D01*
X0099600Y0120650D01*
X0099600Y0109293D01*
X0098926Y0108619D01*
X0098926Y0109045D01*
X0094253Y0113719D01*
X0094037Y0113719D01*
X0094037Y0113879D01*
X0093887Y0114438D01*
X0093597Y0114940D01*
X0091639Y0116898D01*
X0088052Y0113311D01*
X0087939Y0113423D01*
X0087827Y0113311D01*
X0084518Y0116620D01*
X0082281Y0114383D01*
X0081992Y0113882D01*
X0081842Y0113322D01*
X0081842Y0112743D01*
X0081992Y0112183D01*
X0082281Y0111682D01*
X0084239Y0109723D01*
X0087827Y0113311D01*
X0087939Y0113198D01*
X0084352Y0109611D01*
X0086310Y0107653D01*
X0086812Y0107363D01*
X0087371Y0107213D01*
X0087531Y0107213D01*
X0087531Y0106997D01*
X0089403Y0105125D01*
X0089403Y0094697D01*
X0065067Y0094697D01*
X0064630Y0094878D01*
X0063205Y0094878D01*
X0061889Y0094333D01*
X0060882Y0093325D01*
X0060336Y0092009D01*
X0060336Y0090585D01*
X0060882Y0089268D01*
X0061889Y0088261D01*
X0063205Y0087716D01*
X0064630Y0087716D01*
X0065067Y0087897D01*
X0091395Y0087897D01*
X0097363Y0081928D01*
X0098320Y0080972D01*
X0099569Y0080454D01*
X0105400Y0080454D01*
X0105400Y0078688D01*
X0104000Y0077288D01*
X0104000Y0075770D02*
X0102800Y0075770D01*
X0102800Y0073372D02*
X0104000Y0073372D01*
X0106339Y0070973D02*
X0100461Y0070973D01*
X0095225Y0070973D02*
X0089661Y0070973D01*
X0089188Y0070500D02*
X0092000Y0073312D01*
X0092000Y0077288D01*
X0089188Y0080100D01*
X0085212Y0080100D01*
X0082400Y0077288D01*
X0082400Y0073312D01*
X0085212Y0070500D01*
X0089188Y0070500D01*
X0090446Y0070500D02*
X0087400Y0067454D01*
X0087400Y0065300D01*
X0092600Y0065300D01*
X0092600Y0065300D01*
X0092600Y0065300D01*
X0092600Y0070500D01*
X0090446Y0070500D01*
X0088521Y0068575D02*
X0085314Y0068575D01*
X0086600Y0067288D02*
X0083788Y0070100D01*
X0079812Y0070100D01*
X0077000Y0067288D01*
X0077000Y0063312D01*
X0079812Y0060500D01*
X0083788Y0060500D01*
X0086600Y0063312D01*
X0086600Y0067288D01*
X0086600Y0066176D02*
X0087400Y0066176D01*
X0087400Y0065300D02*
X0087400Y0063146D01*
X0090446Y0060100D01*
X0092600Y0060100D01*
X0092600Y0065300D01*
X0087400Y0065300D01*
X0087400Y0063778D02*
X0086600Y0063778D01*
X0084667Y0061379D02*
X0089167Y0061379D01*
X0092600Y0061379D02*
X0092600Y0061379D01*
X0092600Y0063778D02*
X0092600Y0063778D01*
X0092600Y0066176D02*
X0092600Y0066176D01*
X0092600Y0068575D02*
X0092600Y0068575D01*
X0092000Y0073372D02*
X0093200Y0073372D01*
X0093200Y0075770D02*
X0092000Y0075770D01*
X0091119Y0078169D02*
X0094081Y0078169D01*
X0097363Y0081928D02*
X0097363Y0081928D01*
X0096326Y0082966D02*
X0009400Y0082966D01*
X0009400Y0085364D02*
X0093927Y0085364D01*
X0091529Y0087763D02*
X0064743Y0087763D01*
X0063092Y0087763D02*
X0009400Y0087763D01*
X0009400Y0090161D02*
X0060512Y0090161D01*
X0060565Y0092560D02*
X0009400Y0092560D01*
X0009400Y0094958D02*
X0089403Y0094958D01*
X0089403Y0097357D02*
X0009400Y0097357D01*
X0009400Y0099755D02*
X0089403Y0099755D01*
X0089403Y0102154D02*
X0009400Y0102154D01*
X0009400Y0104552D02*
X0089403Y0104552D01*
X0087578Y0106951D02*
X0009400Y0106951D01*
X0009400Y0109349D02*
X0084613Y0109349D01*
X0086264Y0111748D02*
X0086489Y0111748D01*
X0087939Y0113423D02*
X0084630Y0116732D01*
X0086867Y0118969D01*
X0087368Y0119258D01*
X0087928Y0119408D01*
X0088507Y0119408D01*
X0089067Y0119258D01*
X0089568Y0118969D01*
X0091526Y0117011D01*
X0087939Y0113423D01*
X0087216Y0114146D02*
X0086991Y0114146D01*
X0088662Y0114146D02*
X0088887Y0114146D01*
X0091061Y0116545D02*
X0091286Y0116545D01*
X0091992Y0116545D02*
X0099600Y0116545D01*
X0099600Y0118943D02*
X0089594Y0118943D01*
X0086842Y0118943D02*
X0009400Y0118943D01*
X0009400Y0116545D02*
X0084443Y0116545D01*
X0084593Y0116545D02*
X0084818Y0116545D01*
X0082145Y0114146D02*
X0009400Y0114146D01*
X0009400Y0111748D02*
X0082243Y0111748D01*
X0086350Y0121342D02*
X0009400Y0121342D01*
X0009400Y0123740D02*
X0083951Y0123740D01*
X0081553Y0126139D02*
X0009400Y0126139D01*
X0009400Y0128537D02*
X0079154Y0128537D01*
X0078500Y0130936D02*
X0009400Y0130936D01*
X0009400Y0133334D02*
X0078500Y0133334D01*
X0078500Y0135733D02*
X0026921Y0135733D01*
X0026688Y0135500D02*
X0029500Y0138312D01*
X0029500Y0142288D01*
X0026688Y0145100D01*
X0022712Y0145100D01*
X0019900Y0142288D01*
X0019900Y0138312D01*
X0022712Y0135500D01*
X0026688Y0135500D01*
X0029320Y0138132D02*
X0078500Y0138132D01*
X0078500Y0140530D02*
X0029500Y0140530D01*
X0028860Y0142929D02*
X0078500Y0142929D01*
X0078500Y0145327D02*
X0009400Y0145327D01*
X0009400Y0142929D02*
X0010540Y0142929D01*
X0009900Y0142288D02*
X0012712Y0145100D01*
X0016688Y0145100D01*
X0019500Y0142288D01*
X0019500Y0138312D01*
X0016688Y0135500D01*
X0012712Y0135500D01*
X0009900Y0138312D01*
X0009900Y0142288D01*
X0009900Y0140530D02*
X0009400Y0140530D01*
X0009400Y0138132D02*
X0010080Y0138132D01*
X0009400Y0135733D02*
X0012479Y0135733D01*
X0016921Y0135733D02*
X0022479Y0135733D01*
X0020080Y0138132D02*
X0019320Y0138132D01*
X0019500Y0140530D02*
X0019900Y0140530D01*
X0020540Y0142929D02*
X0018860Y0142929D01*
X0022712Y0145500D02*
X0026688Y0145500D01*
X0029500Y0148312D01*
X0029500Y0152288D01*
X0026688Y0155100D01*
X0022712Y0155100D01*
X0019900Y0152288D01*
X0019900Y0148312D01*
X0022712Y0145500D01*
X0020486Y0147726D02*
X0018914Y0147726D01*
X0019500Y0148312D02*
X0016688Y0145500D01*
X0012712Y0145500D01*
X0009900Y0148312D01*
X0009900Y0152288D01*
X0012712Y0155100D01*
X0016688Y0155100D01*
X0019500Y0152288D01*
X0019500Y0148312D01*
X0019500Y0150124D02*
X0019900Y0150124D01*
X0020134Y0152523D02*
X0019266Y0152523D01*
X0016867Y0154921D02*
X0022533Y0154921D01*
X0022712Y0155500D02*
X0026688Y0155500D01*
X0029500Y0158312D01*
X0029500Y0162288D01*
X0026688Y0165100D01*
X0022712Y0165100D01*
X0019900Y0162288D01*
X0019900Y0158312D01*
X0022712Y0155500D01*
X0020892Y0157320D02*
X0018508Y0157320D01*
X0019500Y0158312D02*
X0016688Y0155500D01*
X0012712Y0155500D01*
X0009900Y0158312D01*
X0009900Y0162288D01*
X0012712Y0165100D01*
X0016688Y0165100D01*
X0019500Y0162288D01*
X0019500Y0158312D01*
X0019500Y0159718D02*
X0019900Y0159718D01*
X0019900Y0162117D02*
X0019500Y0162117D01*
X0017273Y0164515D02*
X0022127Y0164515D01*
X0022712Y0165500D02*
X0026688Y0165500D01*
X0029500Y0168312D01*
X0029500Y0172288D01*
X0026688Y0175100D01*
X0022712Y0175100D01*
X0019900Y0172288D01*
X0019900Y0168312D01*
X0022712Y0165500D01*
X0021298Y0166914D02*
X0018102Y0166914D01*
X0019500Y0168312D02*
X0016688Y0165500D01*
X0012712Y0165500D01*
X0009900Y0168312D01*
X0009900Y0172288D01*
X0012712Y0175100D01*
X0016688Y0175100D01*
X0019500Y0172288D01*
X0019500Y0168312D01*
X0019500Y0169312D02*
X0019900Y0169312D01*
X0019900Y0171711D02*
X0019500Y0171711D01*
X0017679Y0174109D02*
X0021721Y0174109D01*
X0022712Y0175500D02*
X0026688Y0175500D01*
X0029500Y0178312D01*
X0029500Y0182288D01*
X0026688Y0185100D01*
X0022712Y0185100D01*
X0019900Y0182288D01*
X0019900Y0178312D01*
X0022712Y0175500D01*
X0021704Y0176508D02*
X0017696Y0176508D01*
X0016688Y0175500D02*
X0019500Y0178312D01*
X0019500Y0182288D01*
X0016688Y0185100D01*
X0012712Y0185100D01*
X0009900Y0182288D01*
X0009900Y0178312D01*
X0012712Y0175500D01*
X0016688Y0175500D01*
X0019500Y0178906D02*
X0019900Y0178906D01*
X0019900Y0181305D02*
X0019500Y0181305D01*
X0018085Y0183703D02*
X0021315Y0183703D01*
X0022712Y0185500D02*
X0026688Y0185500D01*
X0029500Y0188312D01*
X0029500Y0192288D01*
X0026688Y0195100D01*
X0022712Y0195100D01*
X0019900Y0192288D01*
X0019900Y0188312D01*
X0022712Y0185500D01*
X0022110Y0186102D02*
X0017290Y0186102D01*
X0016688Y0185500D02*
X0019500Y0188312D01*
X0019500Y0192288D01*
X0016688Y0195100D01*
X0012712Y0195100D01*
X0009900Y0192288D01*
X0009900Y0188312D01*
X0012712Y0185500D01*
X0016688Y0185500D01*
X0019500Y0188500D02*
X0019900Y0188500D01*
X0019900Y0190899D02*
X0019500Y0190899D01*
X0018491Y0193297D02*
X0020909Y0193297D01*
X0022516Y0195696D02*
X0016884Y0195696D01*
X0016688Y0195500D02*
X0019500Y0198312D01*
X0019500Y0202288D01*
X0016688Y0205100D01*
X0012712Y0205100D01*
X0009900Y0202288D01*
X0009900Y0198312D01*
X0012712Y0195500D01*
X0016688Y0195500D01*
X0019283Y0198094D02*
X0020117Y0198094D01*
X0019900Y0200493D02*
X0019500Y0200493D01*
X0018897Y0202891D02*
X0020503Y0202891D01*
X0022712Y0205500D02*
X0026688Y0205500D01*
X0029500Y0208312D01*
X0029500Y0212288D01*
X0026688Y0215100D01*
X0022712Y0215100D01*
X0019900Y0212288D01*
X0019900Y0208312D01*
X0022712Y0205500D01*
X0020523Y0207688D02*
X0019442Y0207688D01*
X0019900Y0208146D02*
X0019900Y0210300D01*
X0019900Y0212454D01*
X0016854Y0215500D01*
X0014700Y0215500D01*
X0014700Y0210300D01*
X0014700Y0210300D01*
X0019900Y0210300D01*
X0014700Y0210300D01*
X0014700Y0210300D01*
X0014700Y0210300D01*
X0009500Y0210300D01*
X0009500Y0212454D01*
X0012546Y0215500D01*
X0014700Y0215500D01*
X0014700Y0210300D01*
X0014700Y0205100D01*
X0016854Y0205100D01*
X0019900Y0208146D01*
X0019900Y0210087D02*
X0019900Y0210087D01*
X0019869Y0212485D02*
X0020097Y0212485D01*
X0022496Y0214884D02*
X0017470Y0214884D01*
X0014700Y0214884D02*
X0014700Y0214884D01*
X0014700Y0212485D02*
X0014700Y0212485D01*
X0014700Y0210300D02*
X0009500Y0210300D01*
X0009500Y0208146D01*
X0012546Y0205100D01*
X0014700Y0205100D01*
X0014700Y0210300D01*
X0014700Y0210300D01*
X0014700Y0210087D02*
X0014700Y0210087D01*
X0014700Y0207688D02*
X0014700Y0207688D01*
X0014700Y0205290D02*
X0014700Y0205290D01*
X0017044Y0205290D02*
X0201850Y0205290D01*
X0201850Y0207688D02*
X0028877Y0207688D01*
X0029500Y0210087D02*
X0201850Y0210087D01*
X0201850Y0212485D02*
X0029303Y0212485D01*
X0026904Y0214884D02*
X0201850Y0214884D01*
X0201850Y0217150D02*
X0201850Y0035300D01*
X0201785Y0034471D01*
X0201273Y0032894D01*
X0200298Y0031552D01*
X0198957Y0030578D01*
X0197379Y0030065D01*
X0196550Y0030000D01*
X0014700Y0030000D01*
X0013871Y0030065D01*
X0012294Y0030578D01*
X0010952Y0031552D01*
X0009978Y0032894D01*
X0009465Y0034471D01*
X0009400Y0035300D01*
X0009400Y0217150D01*
X0009465Y0217979D01*
X0009978Y0219557D01*
X0010952Y0220898D01*
X0012294Y0221873D01*
X0013871Y0222385D01*
X0014700Y0222450D01*
X0196550Y0222450D01*
X0197379Y0222385D01*
X0198957Y0221873D01*
X0200298Y0220898D01*
X0201273Y0219557D01*
X0201785Y0217979D01*
X0201850Y0217150D01*
X0201840Y0217282D02*
X0009410Y0217282D01*
X0009400Y0214884D02*
X0011930Y0214884D01*
X0009531Y0212485D02*
X0009400Y0212485D01*
X0009400Y0210087D02*
X0009500Y0210087D01*
X0009400Y0207688D02*
X0009958Y0207688D01*
X0009400Y0205290D02*
X0012356Y0205290D01*
X0010503Y0202891D02*
X0009400Y0202891D01*
X0009400Y0200493D02*
X0009900Y0200493D01*
X0010117Y0198094D02*
X0009400Y0198094D01*
X0009400Y0195696D02*
X0012516Y0195696D01*
X0010909Y0193297D02*
X0009400Y0193297D01*
X0009400Y0190899D02*
X0009900Y0190899D01*
X0009900Y0188500D02*
X0009400Y0188500D01*
X0009400Y0186102D02*
X0012110Y0186102D01*
X0011315Y0183703D02*
X0009400Y0183703D01*
X0009400Y0181305D02*
X0009900Y0181305D01*
X0009900Y0178906D02*
X0009400Y0178906D01*
X0009400Y0176508D02*
X0011704Y0176508D01*
X0011721Y0174109D02*
X0009400Y0174109D01*
X0009400Y0171711D02*
X0009900Y0171711D01*
X0009900Y0169312D02*
X0009400Y0169312D01*
X0009400Y0166914D02*
X0011298Y0166914D01*
X0012127Y0164515D02*
X0009400Y0164515D01*
X0009400Y0162117D02*
X0009900Y0162117D01*
X0009900Y0159718D02*
X0009400Y0159718D01*
X0009400Y0157320D02*
X0010892Y0157320D01*
X0009400Y0154921D02*
X0012533Y0154921D01*
X0010134Y0152523D02*
X0009400Y0152523D01*
X0009400Y0150124D02*
X0009900Y0150124D01*
X0009400Y0147726D02*
X0010486Y0147726D01*
X0026867Y0154921D02*
X0078500Y0154921D01*
X0078500Y0152523D02*
X0029266Y0152523D01*
X0029500Y0150124D02*
X0078500Y0150124D01*
X0078500Y0147726D02*
X0028914Y0147726D01*
X0028508Y0157320D02*
X0078500Y0157320D01*
X0078500Y0159718D02*
X0029500Y0159718D01*
X0029500Y0162117D02*
X0078500Y0162117D01*
X0078500Y0164515D02*
X0027273Y0164515D01*
X0028102Y0166914D02*
X0078500Y0166914D01*
X0078500Y0169312D02*
X0029500Y0169312D01*
X0029500Y0171711D02*
X0049009Y0171711D01*
X0049424Y0171511D02*
X0050717Y0171058D01*
X0052053Y0170753D01*
X0052900Y0170658D01*
X0052900Y0181600D01*
X0055300Y0181600D01*
X0055300Y0184000D01*
X0066242Y0184000D01*
X0066147Y0184847D01*
X0065842Y0186183D01*
X0065389Y0187476D01*
X0064795Y0188711D01*
X0064066Y0189871D01*
X0063211Y0190942D01*
X0062242Y0191911D01*
X0061171Y0192766D01*
X0060011Y0193495D01*
X0058776Y0194089D01*
X0057483Y0194542D01*
X0056147Y0194847D01*
X0055300Y0194942D01*
X0055300Y0184000D01*
X0052900Y0184000D01*
X0052900Y0194942D01*
X0052053Y0194847D01*
X0050717Y0194542D01*
X0049424Y0194089D01*
X0048189Y0193495D01*
X0047029Y0192766D01*
X0045958Y0191911D01*
X0044989Y0190942D01*
X0044134Y0189871D01*
X0043405Y0188711D01*
X0042811Y0187476D01*
X0042358Y0186183D01*
X0042053Y0184847D01*
X0041958Y0184000D01*
X0052900Y0184000D01*
X0052900Y0181600D01*
X0041958Y0181600D01*
X0042053Y0180753D01*
X0042358Y0179417D01*
X0042811Y0178124D01*
X0043405Y0176889D01*
X0044134Y0175729D01*
X0044989Y0174658D01*
X0045958Y0173689D01*
X0047029Y0172834D01*
X0048189Y0172105D01*
X0049424Y0171511D01*
X0052900Y0171711D02*
X0055300Y0171711D01*
X0055300Y0170658D02*
X0056147Y0170753D01*
X0057483Y0171058D01*
X0058776Y0171511D01*
X0060011Y0172105D01*
X0061171Y0172834D01*
X0062242Y0173689D01*
X0063211Y0174658D01*
X0064066Y0175729D01*
X0064795Y0176889D01*
X0065389Y0178124D01*
X0065842Y0179417D01*
X0066147Y0180753D01*
X0066242Y0181600D01*
X0055300Y0181600D01*
X0055300Y0170658D01*
X0055300Y0174109D02*
X0052900Y0174109D01*
X0052900Y0176508D02*
X0055300Y0176508D01*
X0055300Y0178906D02*
X0052900Y0178906D01*
X0052900Y0181305D02*
X0055300Y0181305D01*
X0055300Y0183703D02*
X0071437Y0183703D01*
X0073764Y0181305D02*
X0066209Y0181305D01*
X0065663Y0178906D02*
X0076090Y0178906D01*
X0077100Y0176508D02*
X0064555Y0176508D01*
X0062663Y0174109D02*
X0078500Y0174109D01*
X0078500Y0171711D02*
X0059191Y0171711D01*
X0052900Y0183703D02*
X0028085Y0183703D01*
X0027290Y0186102D02*
X0042340Y0186102D01*
X0043304Y0188500D02*
X0029500Y0188500D01*
X0029500Y0190899D02*
X0044954Y0190899D01*
X0047875Y0193297D02*
X0028491Y0193297D01*
X0026884Y0195696D02*
X0059496Y0195696D01*
X0060325Y0193297D02*
X0061894Y0193297D01*
X0063246Y0190899D02*
X0064293Y0190899D01*
X0064896Y0188500D02*
X0066691Y0188500D01*
X0065860Y0186102D02*
X0069090Y0186102D01*
X0073910Y0190899D02*
X0083611Y0190899D01*
X0082500Y0188500D02*
X0076257Y0188500D01*
X0078584Y0186102D02*
X0082500Y0186102D01*
X0080911Y0183703D02*
X0084609Y0183703D01*
X0089991Y0183703D02*
X0095409Y0183703D01*
X0096112Y0183000D02*
X0100088Y0183000D01*
X0102900Y0185812D01*
X0102900Y0189788D01*
X0100088Y0192600D01*
X0096112Y0192600D01*
X0093300Y0189788D01*
X0093300Y0185812D01*
X0096112Y0183000D01*
X0095983Y0181305D02*
X0100217Y0181305D01*
X0101512Y0182600D02*
X0098700Y0179788D01*
X0098700Y0175812D01*
X0101512Y0173000D01*
X0105488Y0173000D01*
X0108300Y0175812D01*
X0108300Y0179788D01*
X0105488Y0182600D01*
X0101512Y0182600D01*
X0100791Y0183703D02*
X0106209Y0183703D01*
X0106912Y0183000D02*
X0104100Y0185812D01*
X0104100Y0189788D01*
X0106912Y0192600D01*
X0110888Y0192600D01*
X0113700Y0189788D01*
X0113700Y0185812D01*
X0110888Y0183000D01*
X0106912Y0183000D01*
X0106783Y0181305D02*
X0111017Y0181305D01*
X0112312Y0182600D02*
X0109500Y0179788D01*
X0109500Y0175812D01*
X0112312Y0173000D01*
X0116288Y0173000D01*
X0119100Y0175812D01*
X0119100Y0179788D01*
X0116288Y0182600D01*
X0112312Y0182600D01*
X0111591Y0183703D02*
X0117009Y0183703D01*
X0117712Y0183000D02*
X0114900Y0185812D01*
X0114900Y0189788D01*
X0117712Y0192600D01*
X0121688Y0192600D01*
X0124500Y0189788D01*
X0124500Y0185812D01*
X0121688Y0183000D01*
X0117712Y0183000D01*
X0117583Y0181305D02*
X0121817Y0181305D01*
X0123112Y0182600D02*
X0120300Y0179788D01*
X0120300Y0175812D01*
X0123112Y0173000D01*
X0127088Y0173000D01*
X0129900Y0175812D01*
X0129900Y0179788D01*
X0127088Y0182600D01*
X0123112Y0182600D01*
X0122391Y0183703D02*
X0127809Y0183703D01*
X0128512Y0183000D02*
X0132488Y0183000D01*
X0135300Y0185812D01*
X0135300Y0189788D01*
X0132488Y0192600D01*
X0128512Y0192600D01*
X0125700Y0189788D01*
X0125700Y0185812D01*
X0128512Y0183000D01*
X0128383Y0181305D02*
X0132617Y0181305D01*
X0133912Y0182600D02*
X0131100Y0179788D01*
X0131100Y0175812D01*
X0133912Y0173000D01*
X0137888Y0173000D01*
X0140700Y0175812D01*
X0140700Y0179788D01*
X0137888Y0182600D01*
X0133912Y0182600D01*
X0133191Y0183703D02*
X0138609Y0183703D01*
X0139312Y0183000D02*
X0143288Y0183000D01*
X0146100Y0185812D01*
X0146100Y0189788D01*
X0143288Y0192600D01*
X0139312Y0192600D01*
X0136500Y0189788D01*
X0136500Y0185812D01*
X0139312Y0183000D01*
X0139183Y0181305D02*
X0143417Y0181305D01*
X0144712Y0182600D02*
X0141900Y0179788D01*
X0141900Y0175812D01*
X0144712Y0173000D01*
X0148688Y0173000D01*
X0151500Y0175812D01*
X0151500Y0179788D01*
X0148688Y0182600D01*
X0144712Y0182600D01*
X0143991Y0183703D02*
X0149409Y0183703D01*
X0150112Y0183000D02*
X0154088Y0183000D01*
X0156900Y0185812D01*
X0156900Y0189788D01*
X0154088Y0192600D01*
X0150112Y0192600D01*
X0147300Y0189788D01*
X0147300Y0185812D01*
X0150112Y0183000D01*
X0149983Y0181305D02*
X0153651Y0181305D01*
X0152300Y0179954D02*
X0152300Y0177800D01*
X0157500Y0177800D01*
X0162700Y0177800D01*
X0162700Y0179954D01*
X0159654Y0183000D01*
X0157500Y0183000D01*
X0157500Y0177800D01*
X0157500Y0177800D01*
X0157500Y0177800D01*
X0162700Y0177800D01*
X0162700Y0175646D01*
X0159654Y0172600D01*
X0157500Y0172600D01*
X0157500Y0177800D01*
X0157500Y0177800D01*
X0157500Y0177800D01*
X0157500Y0183000D01*
X0155346Y0183000D01*
X0152300Y0179954D01*
X0152300Y0178906D02*
X0151500Y0178906D01*
X0152300Y0177800D02*
X0152300Y0175646D01*
X0155346Y0172600D01*
X0157500Y0172600D01*
X0157500Y0177800D01*
X0152300Y0177800D01*
X0152300Y0176508D02*
X0151500Y0176508D01*
X0149797Y0174109D02*
X0153837Y0174109D01*
X0157500Y0174109D02*
X0157500Y0174109D01*
X0157500Y0176508D02*
X0157500Y0176508D01*
X0157500Y0178906D02*
X0157500Y0178906D01*
X0157500Y0181305D02*
X0157500Y0181305D01*
X0154791Y0183703D02*
X0184100Y0183703D01*
X0184100Y0184000D02*
X0184100Y0181600D01*
X0186500Y0181600D01*
X0186500Y0184000D01*
X0197442Y0184000D01*
X0197347Y0184847D01*
X0197042Y0186183D01*
X0196589Y0187476D01*
X0195995Y0188711D01*
X0195266Y0189871D01*
X0194411Y0190942D01*
X0193442Y0191911D01*
X0192371Y0192766D01*
X0191211Y0193495D01*
X0189976Y0194089D01*
X0188683Y0194542D01*
X0187347Y0194847D01*
X0186500Y0194942D01*
X0186500Y0184000D01*
X0184100Y0184000D01*
X0184100Y0194942D01*
X0183253Y0194847D01*
X0181917Y0194542D01*
X0180624Y0194089D01*
X0179389Y0193495D01*
X0178229Y0192766D01*
X0177158Y0191911D01*
X0176189Y0190942D01*
X0175334Y0189871D01*
X0174605Y0188711D01*
X0174011Y0187476D01*
X0173558Y0186183D01*
X0173253Y0184847D01*
X0173158Y0184000D01*
X0184100Y0184000D01*
X0184100Y0186102D02*
X0186500Y0186102D01*
X0186500Y0188500D02*
X0184100Y0188500D01*
X0184100Y0190899D02*
X0186500Y0190899D01*
X0186500Y0193297D02*
X0184100Y0193297D01*
X0179075Y0193297D02*
X0071511Y0193297D01*
X0069113Y0195696D02*
X0201850Y0195696D01*
X0201850Y0198094D02*
X0066714Y0198094D01*
X0064315Y0200493D02*
X0201850Y0200493D01*
X0201850Y0202891D02*
X0061917Y0202891D01*
X0055300Y0193297D02*
X0052900Y0193297D01*
X0052900Y0190899D02*
X0055300Y0190899D01*
X0055300Y0188500D02*
X0052900Y0188500D01*
X0052900Y0186102D02*
X0055300Y0186102D01*
X0045537Y0174109D02*
X0027679Y0174109D01*
X0027696Y0176508D02*
X0043645Y0176508D01*
X0042537Y0178906D02*
X0029500Y0178906D01*
X0029500Y0181305D02*
X0041991Y0181305D01*
X0010068Y0219681D02*
X0201182Y0219681D01*
X0198320Y0222079D02*
X0012930Y0222079D01*
X0085300Y0166023D02*
X0085300Y0134437D01*
X0086588Y0135725D01*
X0090175Y0132138D01*
X0090287Y0132250D01*
X0086700Y0135837D01*
X0088658Y0137795D01*
X0089160Y0138085D01*
X0089720Y0138235D01*
X0089879Y0138235D01*
X0089879Y0138451D01*
X0094553Y0143124D01*
X0096044Y0143124D01*
X0098919Y0140250D01*
X0098919Y0140885D01*
X0099315Y0141840D01*
X0099600Y0142126D01*
X0099600Y0151723D01*
X0085827Y0165496D01*
X0085300Y0166023D01*
X0085300Y0164515D02*
X0086808Y0164515D01*
X0085300Y0162117D02*
X0089206Y0162117D01*
X0091605Y0159718D02*
X0085300Y0159718D01*
X0085300Y0157320D02*
X0094003Y0157320D01*
X0096402Y0154921D02*
X0085300Y0154921D01*
X0085300Y0152523D02*
X0098800Y0152523D01*
X0099600Y0150124D02*
X0085300Y0150124D01*
X0085300Y0147726D02*
X0099600Y0147726D01*
X0099600Y0145327D02*
X0085300Y0145327D01*
X0085300Y0142929D02*
X0094357Y0142929D01*
X0096240Y0142929D02*
X0099600Y0142929D01*
X0098919Y0140530D02*
X0098638Y0140530D01*
X0104567Y0138132D02*
X0111762Y0138132D01*
X0112599Y0138969D02*
X0110362Y0136732D01*
X0113671Y0133423D01*
X0113559Y0133311D01*
X0110250Y0136620D01*
X0108014Y0134383D01*
X0107724Y0133882D01*
X0107574Y0133322D01*
X0107574Y0132743D01*
X0107724Y0132183D01*
X0108014Y0131682D01*
X0109972Y0129723D01*
X0113559Y0133311D01*
X0113671Y0133198D01*
X0110084Y0129611D01*
X0112042Y0127653D01*
X0112544Y0127363D01*
X0113103Y0127213D01*
X0113263Y0127213D01*
X0113263Y0126997D01*
X0117937Y0122324D01*
X0119428Y0122324D01*
X0124658Y0127554D01*
X0124658Y0128911D01*
X0125376Y0129628D01*
X0126332Y0130585D01*
X0126850Y0131834D01*
X0126850Y0142900D01*
X0127031Y0143338D01*
X0127031Y0144762D01*
X0126486Y0146079D01*
X0125479Y0147086D01*
X0124162Y0147631D01*
X0122738Y0147631D01*
X0121421Y0147086D01*
X0120414Y0146079D01*
X0119869Y0144762D01*
X0119869Y0143338D01*
X0120050Y0142900D01*
X0120050Y0133919D01*
X0119850Y0133719D01*
X0119769Y0133719D01*
X0119769Y0133879D01*
X0119619Y0134438D01*
X0119329Y0134940D01*
X0117371Y0136898D01*
X0113784Y0133311D01*
X0113671Y0133423D01*
X0117259Y0137011D01*
X0115301Y0138969D01*
X0114799Y0139258D01*
X0114239Y0139408D01*
X0113660Y0139408D01*
X0113101Y0139258D01*
X0112599Y0138969D01*
X0111362Y0135733D02*
X0111137Y0135733D01*
X0109363Y0135733D02*
X0104800Y0135733D01*
X0104800Y0133334D02*
X0107577Y0133334D01*
X0108759Y0130936D02*
X0104800Y0130936D01*
X0104800Y0128537D02*
X0111158Y0128537D01*
X0111184Y0130936D02*
X0111409Y0130936D01*
X0113535Y0133334D02*
X0113583Y0133334D01*
X0113760Y0133334D02*
X0113808Y0133334D01*
X0115981Y0135733D02*
X0116206Y0135733D01*
X0118536Y0135733D02*
X0120050Y0135733D01*
X0120050Y0138132D02*
X0116138Y0138132D01*
X0120050Y0140530D02*
X0104799Y0140530D01*
X0104800Y0142929D02*
X0120038Y0142929D01*
X0120103Y0145327D02*
X0104800Y0145327D01*
X0104800Y0147726D02*
X0201850Y0147726D01*
X0201850Y0150124D02*
X0104800Y0150124D01*
X0104800Y0152523D02*
X0201850Y0152523D01*
X0201850Y0154921D02*
X0103756Y0154921D01*
X0101357Y0157320D02*
X0201850Y0157320D01*
X0201850Y0159718D02*
X0098959Y0159718D01*
X0096560Y0162117D02*
X0201850Y0162117D01*
X0201850Y0164515D02*
X0094162Y0164515D01*
X0091763Y0166914D02*
X0201850Y0166914D01*
X0201850Y0169312D02*
X0089900Y0169312D01*
X0089900Y0171711D02*
X0180209Y0171711D01*
X0180624Y0171511D02*
X0181917Y0171058D01*
X0183253Y0170753D01*
X0184100Y0170658D01*
X0184100Y0181600D01*
X0173158Y0181600D01*
X0173253Y0180753D01*
X0173558Y0179417D01*
X0174011Y0178124D01*
X0174605Y0176889D01*
X0175334Y0175729D01*
X0176189Y0174658D01*
X0177158Y0173689D01*
X0178229Y0172834D01*
X0179389Y0172105D01*
X0180624Y0171511D01*
X0184100Y0171711D02*
X0186500Y0171711D01*
X0186500Y0170658D02*
X0187347Y0170753D01*
X0188683Y0171058D01*
X0189976Y0171511D01*
X0191211Y0172105D01*
X0192371Y0172834D01*
X0193442Y0173689D01*
X0194411Y0174658D01*
X0195266Y0175729D01*
X0195995Y0176889D01*
X0196589Y0178124D01*
X0197042Y0179417D01*
X0197347Y0180753D01*
X0197442Y0181600D01*
X0186500Y0181600D01*
X0186500Y0170658D01*
X0186500Y0174109D02*
X0184100Y0174109D01*
X0184100Y0176508D02*
X0186500Y0176508D01*
X0186500Y0178906D02*
X0184100Y0178906D01*
X0184100Y0181305D02*
X0186500Y0181305D01*
X0186500Y0183703D02*
X0201850Y0183703D01*
X0201850Y0181305D02*
X0197409Y0181305D01*
X0196863Y0178906D02*
X0201850Y0178906D01*
X0201850Y0176508D02*
X0195755Y0176508D01*
X0193863Y0174109D02*
X0201850Y0174109D01*
X0201850Y0171711D02*
X0190391Y0171711D01*
X0176737Y0174109D02*
X0161163Y0174109D01*
X0162700Y0176508D02*
X0174845Y0176508D01*
X0173737Y0178906D02*
X0162700Y0178906D01*
X0161349Y0181305D02*
X0173191Y0181305D01*
X0173540Y0186102D02*
X0156900Y0186102D01*
X0156900Y0188500D02*
X0174504Y0188500D01*
X0176154Y0190899D02*
X0155789Y0190899D01*
X0148411Y0190899D02*
X0144989Y0190899D01*
X0146100Y0188500D02*
X0147300Y0188500D01*
X0147300Y0186102D02*
X0146100Y0186102D01*
X0141900Y0178906D02*
X0140700Y0178906D01*
X0140700Y0176508D02*
X0141900Y0176508D01*
X0143603Y0174109D02*
X0138997Y0174109D01*
X0132803Y0174109D02*
X0128197Y0174109D01*
X0129900Y0176508D02*
X0131100Y0176508D01*
X0131100Y0178906D02*
X0129900Y0178906D01*
X0125700Y0186102D02*
X0124500Y0186102D01*
X0124500Y0188500D02*
X0125700Y0188500D01*
X0126811Y0190899D02*
X0123389Y0190899D01*
X0116011Y0190899D02*
X0112589Y0190899D01*
X0113700Y0188500D02*
X0114900Y0188500D01*
X0114900Y0186102D02*
X0113700Y0186102D01*
X0109500Y0178906D02*
X0108300Y0178906D01*
X0108300Y0176508D02*
X0109500Y0176508D01*
X0111203Y0174109D02*
X0106597Y0174109D01*
X0100403Y0174109D02*
X0095797Y0174109D01*
X0097500Y0176508D02*
X0098700Y0176508D01*
X0098700Y0178906D02*
X0097500Y0178906D01*
X0093300Y0186102D02*
X0092100Y0186102D01*
X0092100Y0188500D02*
X0093300Y0188500D01*
X0094411Y0190899D02*
X0090989Y0190899D01*
X0101789Y0190899D02*
X0105211Y0190899D01*
X0104100Y0188500D02*
X0102900Y0188500D01*
X0102900Y0186102D02*
X0104100Y0186102D01*
X0119100Y0178906D02*
X0120300Y0178906D01*
X0120300Y0176508D02*
X0119100Y0176508D01*
X0117397Y0174109D02*
X0122003Y0174109D01*
X0135300Y0186102D02*
X0136500Y0186102D01*
X0136500Y0188500D02*
X0135300Y0188500D01*
X0134189Y0190899D02*
X0137611Y0190899D01*
X0126797Y0145327D02*
X0201850Y0145327D01*
X0201850Y0142929D02*
X0126862Y0142929D01*
X0126850Y0140530D02*
X0164207Y0140530D01*
X0163970Y0140292D02*
X0163300Y0138675D01*
X0163300Y0136925D01*
X0163970Y0135308D01*
X0165208Y0134070D01*
X0166825Y0133400D01*
X0168575Y0133400D01*
X0170192Y0134070D01*
X0171430Y0135308D01*
X0172100Y0136925D01*
X0172100Y0138675D01*
X0171430Y0140292D01*
X0170192Y0141530D01*
X0168575Y0142200D01*
X0166825Y0142200D01*
X0165208Y0141530D01*
X0163970Y0140292D01*
X0163300Y0138132D02*
X0126850Y0138132D01*
X0126850Y0135733D02*
X0163794Y0135733D01*
X0171606Y0135733D02*
X0182794Y0135733D01*
X0182970Y0135308D02*
X0184208Y0134070D01*
X0185825Y0133400D01*
X0187575Y0133400D01*
X0189192Y0134070D01*
X0190430Y0135308D01*
X0191100Y0136925D01*
X0191100Y0138675D01*
X0190430Y0140292D01*
X0189192Y0141530D01*
X0187575Y0142200D01*
X0185825Y0142200D01*
X0184208Y0141530D01*
X0182970Y0140292D01*
X0182300Y0138675D01*
X0182300Y0136925D01*
X0182970Y0135308D01*
X0182300Y0138132D02*
X0172100Y0138132D01*
X0171192Y0140530D02*
X0183207Y0140530D01*
X0190192Y0140530D02*
X0201850Y0140530D01*
X0201850Y0138132D02*
X0191100Y0138132D01*
X0190606Y0135733D02*
X0201850Y0135733D01*
X0201850Y0133334D02*
X0126850Y0133334D01*
X0126478Y0130936D02*
X0201850Y0130936D01*
X0201850Y0128537D02*
X0124658Y0128537D01*
X0123243Y0126139D02*
X0201850Y0126139D01*
X0201850Y0123740D02*
X0120844Y0123740D01*
X0116520Y0123740D02*
X0104800Y0123740D01*
X0104800Y0121342D02*
X0201850Y0121342D01*
X0201850Y0118943D02*
X0104800Y0118943D01*
X0104800Y0116545D02*
X0201850Y0116545D01*
X0201850Y0114146D02*
X0104800Y0114146D01*
X0104800Y0111748D02*
X0113909Y0111748D01*
X0111510Y0109349D02*
X0104800Y0109349D01*
X0104490Y0106951D02*
X0108546Y0106951D01*
X0107838Y0106243D02*
X0105880Y0104285D01*
X0105590Y0103783D01*
X0105440Y0103223D01*
X0105440Y0102644D01*
X0105590Y0102085D01*
X0105880Y0101583D01*
X0108116Y0099346D01*
X0111425Y0102655D01*
X0107838Y0106243D01*
X0109528Y0104552D02*
X0109753Y0104552D01*
X0110924Y0102154D02*
X0111149Y0102154D01*
X0111926Y0102154D02*
X0112151Y0102154D01*
X0114325Y0099755D02*
X0114550Y0099755D01*
X0115925Y0099755D02*
X0118721Y0099755D01*
X0117809Y0102154D02*
X0117635Y0102154D01*
X0117494Y0097357D02*
X0113526Y0097357D01*
X0115096Y0094958D02*
X0096203Y0094958D01*
X0096203Y0097357D02*
X0110106Y0097357D01*
X0108750Y0099755D02*
X0108525Y0099755D01*
X0107707Y0099755D02*
X0098792Y0099755D01*
X0100365Y0102154D02*
X0105571Y0102154D01*
X0106148Y0104552D02*
X0102214Y0104552D01*
X0103673Y0106012D02*
X0103673Y0106012D01*
X0099600Y0109349D02*
X0098622Y0109349D01*
X0099600Y0111748D02*
X0096223Y0111748D01*
X0093965Y0114146D02*
X0099600Y0114146D01*
X0104800Y0126139D02*
X0114122Y0126139D01*
X0119188Y0111748D02*
X0201850Y0111748D01*
X0201850Y0109349D02*
X0121587Y0109349D01*
X0122629Y0106951D02*
X0201850Y0106951D01*
X0201850Y0104552D02*
X0125013Y0104552D01*
X0125521Y0102154D02*
X0201850Y0102154D01*
X0201850Y0099755D02*
X0185053Y0099755D01*
X0187451Y0097357D02*
X0201850Y0097357D01*
X0201850Y0094958D02*
X0189850Y0094958D01*
X0192248Y0092560D02*
X0201850Y0092560D01*
X0201850Y0090161D02*
X0194647Y0090161D01*
X0196525Y0087763D02*
X0201850Y0087763D01*
X0201850Y0085364D02*
X0197000Y0085364D01*
X0196654Y0082966D02*
X0201850Y0082966D01*
X0201850Y0080567D02*
X0194255Y0080567D01*
X0194354Y0080500D02*
X0192200Y0080500D01*
X0192200Y0075300D01*
X0192200Y0075300D01*
X0197400Y0075300D01*
X0197400Y0077454D01*
X0194354Y0080500D01*
X0192200Y0080500D02*
X0190046Y0080500D01*
X0187000Y0077454D01*
X0187000Y0075300D01*
X0192200Y0075300D01*
X0192200Y0075300D01*
X0192200Y0075300D01*
X0192200Y0080500D01*
X0190145Y0080567D02*
X0184255Y0080567D01*
X0184188Y0080500D02*
X0187000Y0083312D01*
X0187000Y0087288D01*
X0184188Y0090100D01*
X0180212Y0090100D01*
X0177400Y0087288D01*
X0177400Y0086650D01*
X0122164Y0086650D01*
X0121729Y0087086D01*
X0120412Y0087631D01*
X0118988Y0087631D01*
X0117671Y0087086D01*
X0116664Y0086079D01*
X0116119Y0084762D01*
X0116119Y0083338D01*
X0116664Y0082021D01*
X0117671Y0081014D01*
X0118988Y0080469D01*
X0120412Y0080469D01*
X0121729Y0081014D01*
X0122164Y0081450D01*
X0131535Y0081450D01*
X0130589Y0080995D01*
X0129429Y0080266D01*
X0128358Y0079411D01*
X0127389Y0078442D01*
X0126534Y0077371D01*
X0125805Y0076211D01*
X0125211Y0074976D01*
X0124758Y0073683D01*
X0124453Y0072347D01*
X0124358Y0071500D01*
X0135300Y0071500D01*
X0135300Y0069100D01*
X0137700Y0069100D01*
X0137700Y0071500D01*
X0148642Y0071500D01*
X0148547Y0072347D01*
X0148242Y0073683D01*
X0147789Y0074976D01*
X0147195Y0076211D01*
X0146466Y0077371D01*
X0145611Y0078442D01*
X0144642Y0079411D01*
X0143571Y0080266D01*
X0142411Y0080995D01*
X0141465Y0081450D01*
X0179262Y0081450D01*
X0180212Y0080500D01*
X0184188Y0080500D01*
X0184188Y0080100D02*
X0180212Y0080100D01*
X0177400Y0077288D01*
X0177400Y0073312D01*
X0180212Y0070500D01*
X0184188Y0070500D01*
X0187000Y0073312D01*
X0187000Y0077288D01*
X0184188Y0080100D01*
X0186119Y0078169D02*
X0187715Y0078169D01*
X0187000Y0075770D02*
X0187000Y0075770D01*
X0187000Y0075300D02*
X0187000Y0073146D01*
X0189846Y0070300D01*
X0187000Y0067454D01*
X0187000Y0065300D01*
X0192200Y0065300D01*
X0197400Y0065300D01*
X0197400Y0067454D01*
X0194554Y0070300D01*
X0197400Y0073146D01*
X0197400Y0075300D01*
X0192200Y0075300D01*
X0192200Y0065300D01*
X0192200Y0065300D01*
X0192200Y0065300D01*
X0192200Y0065300D01*
X0197400Y0065300D01*
X0197400Y0063146D01*
X0194554Y0060300D01*
X0197400Y0057454D01*
X0197400Y0055300D01*
X0192200Y0055300D01*
X0192200Y0055300D01*
X0192200Y0055300D01*
X0192200Y0065300D01*
X0192200Y0065300D01*
X0192200Y0070500D01*
X0192200Y0075300D01*
X0192200Y0075300D01*
X0187000Y0075300D01*
X0187000Y0073372D02*
X0187000Y0073372D01*
X0189173Y0070973D02*
X0184661Y0070973D01*
X0184188Y0070100D02*
X0180212Y0070100D01*
X0177400Y0067288D01*
X0177400Y0063312D01*
X0180212Y0060500D01*
X0184188Y0060500D01*
X0187000Y0063312D01*
X0187000Y0067288D01*
X0184188Y0070100D01*
X0185714Y0068575D02*
X0188121Y0068575D01*
X0187000Y0066176D02*
X0187000Y0066176D01*
X0187000Y0065300D02*
X0187000Y0063146D01*
X0189846Y0060300D01*
X0187000Y0057454D01*
X0187000Y0055300D01*
X0192200Y0055300D01*
X0192200Y0055300D01*
X0197400Y0055300D01*
X0197400Y0053146D01*
X0194554Y0050300D01*
X0197400Y0047454D01*
X0197400Y0045300D01*
X0192200Y0045300D01*
X0192200Y0045300D01*
X0192200Y0045300D01*
X0192200Y0055300D01*
X0192200Y0060500D01*
X0192200Y0065300D01*
X0187000Y0065300D01*
X0187000Y0063778D02*
X0187000Y0063778D01*
X0188767Y0061379D02*
X0185067Y0061379D01*
X0185308Y0058981D02*
X0188527Y0058981D01*
X0187000Y0056582D02*
X0187000Y0056582D01*
X0187000Y0055300D02*
X0187000Y0053146D01*
X0189846Y0050300D01*
X0187000Y0047454D01*
X0187000Y0045300D01*
X0192200Y0045300D01*
X0192200Y0045300D01*
X0197400Y0045300D01*
X0197400Y0043146D01*
X0194354Y0040100D01*
X0192200Y0040100D01*
X0192200Y0045300D01*
X0192200Y0045300D01*
X0192200Y0050100D01*
X0192200Y0055300D01*
X0192200Y0055300D01*
X0187000Y0055300D01*
X0187000Y0054184D02*
X0187000Y0054184D01*
X0188361Y0051785D02*
X0185473Y0051785D01*
X0184902Y0049387D02*
X0188933Y0049387D01*
X0187000Y0046988D02*
X0187000Y0046988D01*
X0187000Y0045300D02*
X0187000Y0043146D01*
X0190046Y0040100D01*
X0192200Y0040100D01*
X0192200Y0045300D01*
X0187000Y0045300D01*
X0187000Y0044590D02*
X0187000Y0044590D01*
X0187955Y0042191D02*
X0185879Y0042191D01*
X0192200Y0042191D02*
X0192200Y0042191D01*
X0192200Y0044590D02*
X0192200Y0044590D01*
X0192200Y0046988D02*
X0192200Y0046988D01*
X0192200Y0049387D02*
X0192200Y0049387D01*
X0192200Y0051785D02*
X0192200Y0051785D01*
X0192200Y0054184D02*
X0192200Y0054184D01*
X0192200Y0056582D02*
X0192200Y0056582D01*
X0192200Y0058981D02*
X0192200Y0058981D01*
X0192200Y0061379D02*
X0192200Y0061379D01*
X0192200Y0063778D02*
X0192200Y0063778D01*
X0192200Y0066176D02*
X0192200Y0066176D01*
X0192200Y0068575D02*
X0192200Y0068575D01*
X0192200Y0070973D02*
X0192200Y0070973D01*
X0192200Y0073372D02*
X0192200Y0073372D01*
X0192200Y0075770D02*
X0192200Y0075770D01*
X0192200Y0078169D02*
X0192200Y0078169D01*
X0196685Y0078169D02*
X0201850Y0078169D01*
X0201850Y0075770D02*
X0197400Y0075770D01*
X0197400Y0073372D02*
X0201850Y0073372D01*
X0201850Y0070973D02*
X0195227Y0070973D01*
X0196279Y0068575D02*
X0201850Y0068575D01*
X0201850Y0066176D02*
X0197400Y0066176D01*
X0197400Y0063778D02*
X0201850Y0063778D01*
X0201850Y0061379D02*
X0195633Y0061379D01*
X0195873Y0058981D02*
X0201850Y0058981D01*
X0201850Y0056582D02*
X0197400Y0056582D01*
X0197400Y0054184D02*
X0201850Y0054184D01*
X0201850Y0051785D02*
X0196039Y0051785D01*
X0195467Y0049387D02*
X0201850Y0049387D01*
X0201850Y0046988D02*
X0197400Y0046988D01*
X0197400Y0044590D02*
X0201850Y0044590D01*
X0201850Y0042191D02*
X0196445Y0042191D01*
X0201850Y0039793D02*
X0009400Y0039793D01*
X0009400Y0042191D02*
X0178521Y0042191D01*
X0179498Y0049387D02*
X0109290Y0049387D01*
X0106892Y0051785D02*
X0178927Y0051785D01*
X0179092Y0058981D02*
X0141090Y0058981D01*
X0141176Y0059011D02*
X0142411Y0059605D01*
X0143571Y0060334D01*
X0144642Y0061189D01*
X0145611Y0062158D01*
X0146466Y0063229D01*
X0147195Y0064389D01*
X0147789Y0065624D01*
X0148242Y0066917D01*
X0148547Y0068253D01*
X0148642Y0069100D01*
X0137700Y0069100D01*
X0137700Y0058158D01*
X0138547Y0058253D01*
X0139883Y0058558D01*
X0141176Y0059011D01*
X0137700Y0058981D02*
X0135300Y0058981D01*
X0135300Y0058158D02*
X0134453Y0058253D01*
X0133117Y0058558D01*
X0131824Y0059011D01*
X0130589Y0059605D01*
X0129429Y0060334D01*
X0128358Y0061189D01*
X0127389Y0062158D01*
X0126534Y0063229D01*
X0125805Y0064389D01*
X0125211Y0065624D01*
X0124758Y0066917D01*
X0124453Y0068253D01*
X0124358Y0069100D01*
X0135300Y0069100D01*
X0135300Y0058158D01*
X0135300Y0061379D02*
X0137700Y0061379D01*
X0137700Y0063778D02*
X0135300Y0063778D01*
X0135300Y0066176D02*
X0137700Y0066176D01*
X0137700Y0068575D02*
X0135300Y0068575D01*
X0135300Y0070973D02*
X0111261Y0070973D01*
X0113600Y0073372D02*
X0124687Y0073372D01*
X0125593Y0075770D02*
X0113600Y0075770D01*
X0112719Y0078169D02*
X0127171Y0078169D01*
X0129909Y0080567D02*
X0120650Y0080567D01*
X0118750Y0080567D02*
X0112200Y0080567D01*
X0112720Y0082966D02*
X0116273Y0082966D01*
X0116368Y0085364D02*
X0115118Y0085364D01*
X0117517Y0087763D02*
X0177875Y0087763D01*
X0182632Y0092560D02*
X0122314Y0092560D01*
X0119915Y0090161D02*
X0185030Y0090161D01*
X0186525Y0087763D02*
X0187429Y0087763D01*
X0187400Y0085364D02*
X0187000Y0085364D01*
X0186654Y0082966D02*
X0187746Y0082966D01*
X0180145Y0080567D02*
X0143091Y0080567D01*
X0145829Y0078169D02*
X0178281Y0078169D01*
X0177400Y0075770D02*
X0147407Y0075770D01*
X0148313Y0073372D02*
X0177400Y0073372D01*
X0179739Y0070973D02*
X0137700Y0070973D01*
X0144833Y0061379D02*
X0179333Y0061379D01*
X0177400Y0063778D02*
X0146810Y0063778D01*
X0147982Y0066176D02*
X0177400Y0066176D01*
X0178686Y0068575D02*
X0148583Y0068575D01*
X0131910Y0058981D02*
X0113396Y0058981D01*
X0110998Y0061379D02*
X0128167Y0061379D01*
X0126190Y0063778D02*
X0108599Y0063778D01*
X0108200Y0066176D02*
X0125018Y0066176D01*
X0124417Y0068575D02*
X0106914Y0068575D01*
X0100533Y0061379D02*
X0100425Y0061379D01*
X0100425Y0058981D02*
X0106042Y0058981D01*
X0108441Y0056582D02*
X0102095Y0056582D01*
X0104493Y0054184D02*
X0110839Y0054184D01*
X0104335Y0046988D02*
X0009400Y0046988D01*
X0009400Y0044590D02*
X0106733Y0044590D01*
X0101936Y0049387D02*
X0009400Y0049387D01*
X0009400Y0051785D02*
X0099538Y0051785D01*
X0097139Y0054184D02*
X0009400Y0054184D01*
X0009400Y0056582D02*
X0095256Y0056582D01*
X0095225Y0058981D02*
X0042490Y0058981D01*
X0042576Y0059011D02*
X0043811Y0059605D01*
X0044971Y0060334D01*
X0046042Y0061189D01*
X0047011Y0062158D01*
X0047866Y0063229D01*
X0048595Y0064389D01*
X0049189Y0065624D01*
X0049642Y0066917D01*
X0049947Y0068253D01*
X0050042Y0069100D01*
X0039100Y0069100D01*
X0039100Y0071500D01*
X0050042Y0071500D01*
X0049947Y0072347D01*
X0049642Y0073683D01*
X0049189Y0074976D01*
X0048595Y0076211D01*
X0047866Y0077371D01*
X0047011Y0078442D01*
X0046042Y0079411D01*
X0044971Y0080266D01*
X0043811Y0080995D01*
X0042576Y0081589D01*
X0041283Y0082042D01*
X0039947Y0082347D01*
X0039100Y0082442D01*
X0039100Y0071500D01*
X0036700Y0071500D01*
X0036700Y0082442D01*
X0035853Y0082347D01*
X0034517Y0082042D01*
X0033224Y0081589D01*
X0031989Y0080995D01*
X0030829Y0080266D01*
X0029758Y0079411D01*
X0028789Y0078442D01*
X0027934Y0077371D01*
X0027205Y0076211D01*
X0026611Y0074976D01*
X0026158Y0073683D01*
X0025853Y0072347D01*
X0025758Y0071500D01*
X0036700Y0071500D01*
X0036700Y0069100D01*
X0039100Y0069100D01*
X0039100Y0058158D01*
X0039947Y0058253D01*
X0041283Y0058558D01*
X0042576Y0059011D01*
X0039100Y0058981D02*
X0036700Y0058981D01*
X0036700Y0058158D02*
X0035853Y0058253D01*
X0034517Y0058558D01*
X0033224Y0059011D01*
X0031989Y0059605D01*
X0030829Y0060334D01*
X0029758Y0061189D01*
X0028789Y0062158D01*
X0027934Y0063229D01*
X0027205Y0064389D01*
X0026611Y0065624D01*
X0026158Y0066917D01*
X0025853Y0068253D01*
X0025758Y0069100D01*
X0036700Y0069100D01*
X0036700Y0058158D01*
X0036700Y0061379D02*
X0039100Y0061379D01*
X0039100Y0063778D02*
X0036700Y0063778D01*
X0036700Y0066176D02*
X0039100Y0066176D01*
X0039100Y0068575D02*
X0036700Y0068575D01*
X0036700Y0070973D02*
X0009400Y0070973D01*
X0009400Y0068575D02*
X0025817Y0068575D01*
X0026418Y0066176D02*
X0009400Y0066176D01*
X0009400Y0063778D02*
X0027590Y0063778D01*
X0029567Y0061379D02*
X0009400Y0061379D01*
X0009400Y0058981D02*
X0033310Y0058981D01*
X0039100Y0070973D02*
X0063139Y0070973D01*
X0063612Y0070500D02*
X0067588Y0070500D01*
X0070400Y0073312D01*
X0070400Y0077288D01*
X0067588Y0080100D01*
X0063612Y0080100D01*
X0060800Y0077288D01*
X0060800Y0073312D01*
X0063612Y0070500D01*
X0060800Y0073372D02*
X0049713Y0073372D01*
X0048807Y0075770D02*
X0060800Y0075770D01*
X0061681Y0078169D02*
X0047229Y0078169D01*
X0044491Y0080567D02*
X0099297Y0080567D01*
X0101146Y0087763D02*
X0107900Y0087763D01*
X0110299Y0090161D02*
X0098747Y0090161D01*
X0096348Y0092560D02*
X0112697Y0092560D01*
X0084739Y0070973D02*
X0078861Y0070973D01*
X0078388Y0070500D02*
X0081200Y0073312D01*
X0081200Y0077288D01*
X0078388Y0080100D01*
X0074412Y0080100D01*
X0071600Y0077288D01*
X0071600Y0073312D01*
X0074412Y0070500D01*
X0078388Y0070500D01*
X0078286Y0068575D02*
X0074514Y0068575D01*
X0075800Y0067288D02*
X0072988Y0070100D01*
X0069012Y0070100D01*
X0066200Y0067288D01*
X0066200Y0063312D01*
X0069012Y0060500D01*
X0072988Y0060500D01*
X0075800Y0063312D01*
X0075800Y0067288D01*
X0075800Y0066176D02*
X0077000Y0066176D01*
X0077000Y0063778D02*
X0075800Y0063778D01*
X0073867Y0061379D02*
X0078933Y0061379D01*
X0073939Y0070973D02*
X0068061Y0070973D01*
X0067486Y0068575D02*
X0049983Y0068575D01*
X0049382Y0066176D02*
X0066200Y0066176D01*
X0066200Y0063778D02*
X0048210Y0063778D01*
X0046233Y0061379D02*
X0068133Y0061379D01*
X0070400Y0073372D02*
X0071600Y0073372D01*
X0071600Y0075770D02*
X0070400Y0075770D01*
X0069519Y0078169D02*
X0072481Y0078169D01*
X0080319Y0078169D02*
X0083281Y0078169D01*
X0082400Y0075770D02*
X0081200Y0075770D01*
X0081200Y0073372D02*
X0082400Y0073372D01*
X0039100Y0073372D02*
X0036700Y0073372D01*
X0036700Y0075770D02*
X0039100Y0075770D01*
X0039100Y0078169D02*
X0036700Y0078169D01*
X0036700Y0080567D02*
X0039100Y0080567D01*
X0031309Y0080567D02*
X0009400Y0080567D01*
X0009400Y0078169D02*
X0028571Y0078169D01*
X0026993Y0075770D02*
X0009400Y0075770D01*
X0009400Y0073372D02*
X0026087Y0073372D01*
X0009400Y0037394D02*
X0201850Y0037394D01*
X0201826Y0034996D02*
X0009424Y0034996D01*
X0010193Y0032597D02*
X0201057Y0032597D01*
X0197790Y0030199D02*
X0013461Y0030199D01*
X0092887Y0127450D02*
X0095050Y0127450D01*
X0095050Y0129613D01*
X0093987Y0128550D01*
X0090400Y0132137D01*
X0090288Y0132025D01*
X0093875Y0128438D01*
X0092887Y0127450D01*
X0093775Y0128537D02*
X0095050Y0128537D01*
X0091602Y0130936D02*
X0091377Y0130936D01*
X0089203Y0133334D02*
X0088978Y0133334D01*
X0086805Y0135733D02*
X0085300Y0135733D01*
X0085300Y0138132D02*
X0089334Y0138132D01*
X0091959Y0140530D02*
X0085300Y0140530D01*
X0191525Y0193297D02*
X0201850Y0193297D01*
X0201850Y0190899D02*
X0194446Y0190899D01*
X0196096Y0188500D02*
X0201850Y0188500D01*
X0201850Y0186102D02*
X0197060Y0186102D01*
D18*
X0182200Y0085300D02*
X0180950Y0084050D01*
X0119700Y0084050D01*
X0103400Y0065300D02*
X0113400Y0055300D01*
X0182200Y0055300D01*
X0182200Y0045300D02*
X0109700Y0045300D01*
X0097825Y0057175D01*
X0097825Y0075125D01*
X0098000Y0075300D01*
X0096784Y0102800D02*
X0102200Y0108216D01*
X0102200Y0137051D01*
X0101519Y0137732D01*
X0101519Y0140368D01*
X0102200Y0141049D01*
X0102200Y0152800D01*
X0087300Y0167700D01*
X0087300Y0187800D01*
X0088553Y0135197D02*
X0088553Y0133872D01*
X0090288Y0132138D01*
M02*
