G75*
%MOIN*%
%OFA0B0*%
%FSLAX25Y25*%
%IPPOS*%
%LPD*%
%AMOC8*
5,1,8,0,0,1.08239X$1,22.5*
%
%ADD10C,0.00000*%
%ADD11R,0.06306X0.02369*%
%ADD12R,0.02369X0.06306*%
%ADD13OC8,0.06400*%
%ADD14C,0.20400*%
%ADD15C,0.05600*%
%ADD16R,0.06306X0.05518*%
%ADD17R,0.04731X0.04337*%
%ADD18R,0.06699X0.12211*%
D10*
X0014700Y0027800D02*
X0196550Y0027800D01*
X0196731Y0027802D01*
X0196912Y0027809D01*
X0197093Y0027820D01*
X0197274Y0027835D01*
X0197454Y0027855D01*
X0197634Y0027879D01*
X0197813Y0027907D01*
X0197991Y0027940D01*
X0198168Y0027977D01*
X0198345Y0028018D01*
X0198520Y0028063D01*
X0198695Y0028113D01*
X0198868Y0028167D01*
X0199039Y0028225D01*
X0199210Y0028287D01*
X0199378Y0028354D01*
X0199545Y0028424D01*
X0199711Y0028498D01*
X0199874Y0028577D01*
X0200035Y0028659D01*
X0200195Y0028745D01*
X0200352Y0028835D01*
X0200507Y0028929D01*
X0200660Y0029026D01*
X0200810Y0029128D01*
X0200958Y0029232D01*
X0201104Y0029341D01*
X0201246Y0029452D01*
X0201386Y0029568D01*
X0201523Y0029686D01*
X0201658Y0029808D01*
X0201789Y0029933D01*
X0201917Y0030061D01*
X0202042Y0030192D01*
X0202164Y0030327D01*
X0202282Y0030464D01*
X0202398Y0030604D01*
X0202509Y0030746D01*
X0202618Y0030892D01*
X0202722Y0031040D01*
X0202824Y0031190D01*
X0202921Y0031343D01*
X0203015Y0031498D01*
X0203105Y0031655D01*
X0203191Y0031815D01*
X0203273Y0031976D01*
X0203352Y0032139D01*
X0203426Y0032305D01*
X0203496Y0032472D01*
X0203563Y0032640D01*
X0203625Y0032811D01*
X0203683Y0032982D01*
X0203737Y0033155D01*
X0203787Y0033330D01*
X0203832Y0033505D01*
X0203873Y0033682D01*
X0203910Y0033859D01*
X0203943Y0034037D01*
X0203971Y0034216D01*
X0203995Y0034396D01*
X0204015Y0034576D01*
X0204030Y0034757D01*
X0204041Y0034938D01*
X0204048Y0035119D01*
X0204050Y0035300D01*
X0204050Y0217150D01*
X0204048Y0217331D01*
X0204041Y0217512D01*
X0204030Y0217693D01*
X0204015Y0217874D01*
X0203995Y0218054D01*
X0203971Y0218234D01*
X0203943Y0218413D01*
X0203910Y0218591D01*
X0203873Y0218768D01*
X0203832Y0218945D01*
X0203787Y0219120D01*
X0203737Y0219295D01*
X0203683Y0219468D01*
X0203625Y0219639D01*
X0203563Y0219810D01*
X0203496Y0219978D01*
X0203426Y0220145D01*
X0203352Y0220311D01*
X0203273Y0220474D01*
X0203191Y0220635D01*
X0203105Y0220795D01*
X0203015Y0220952D01*
X0202921Y0221107D01*
X0202824Y0221260D01*
X0202722Y0221410D01*
X0202618Y0221558D01*
X0202509Y0221704D01*
X0202398Y0221846D01*
X0202282Y0221986D01*
X0202164Y0222123D01*
X0202042Y0222258D01*
X0201917Y0222389D01*
X0201789Y0222517D01*
X0201658Y0222642D01*
X0201523Y0222764D01*
X0201386Y0222882D01*
X0201246Y0222998D01*
X0201104Y0223109D01*
X0200958Y0223218D01*
X0200810Y0223322D01*
X0200660Y0223424D01*
X0200507Y0223521D01*
X0200352Y0223615D01*
X0200195Y0223705D01*
X0200035Y0223791D01*
X0199874Y0223873D01*
X0199711Y0223952D01*
X0199545Y0224026D01*
X0199378Y0224096D01*
X0199210Y0224163D01*
X0199039Y0224225D01*
X0198868Y0224283D01*
X0198695Y0224337D01*
X0198520Y0224387D01*
X0198345Y0224432D01*
X0198168Y0224473D01*
X0197991Y0224510D01*
X0197813Y0224543D01*
X0197634Y0224571D01*
X0197454Y0224595D01*
X0197274Y0224615D01*
X0197093Y0224630D01*
X0196912Y0224641D01*
X0196731Y0224648D01*
X0196550Y0224650D01*
X0014700Y0224650D01*
X0014519Y0224648D01*
X0014338Y0224641D01*
X0014157Y0224630D01*
X0013976Y0224615D01*
X0013796Y0224595D01*
X0013616Y0224571D01*
X0013437Y0224543D01*
X0013259Y0224510D01*
X0013082Y0224473D01*
X0012905Y0224432D01*
X0012730Y0224387D01*
X0012555Y0224337D01*
X0012382Y0224283D01*
X0012211Y0224225D01*
X0012040Y0224163D01*
X0011872Y0224096D01*
X0011705Y0224026D01*
X0011539Y0223952D01*
X0011376Y0223873D01*
X0011215Y0223791D01*
X0011055Y0223705D01*
X0010898Y0223615D01*
X0010743Y0223521D01*
X0010590Y0223424D01*
X0010440Y0223322D01*
X0010292Y0223218D01*
X0010146Y0223109D01*
X0010004Y0222998D01*
X0009864Y0222882D01*
X0009727Y0222764D01*
X0009592Y0222642D01*
X0009461Y0222517D01*
X0009333Y0222389D01*
X0009208Y0222258D01*
X0009086Y0222123D01*
X0008968Y0221986D01*
X0008852Y0221846D01*
X0008741Y0221704D01*
X0008632Y0221558D01*
X0008528Y0221410D01*
X0008426Y0221260D01*
X0008329Y0221107D01*
X0008235Y0220952D01*
X0008145Y0220795D01*
X0008059Y0220635D01*
X0007977Y0220474D01*
X0007898Y0220311D01*
X0007824Y0220145D01*
X0007754Y0219978D01*
X0007687Y0219810D01*
X0007625Y0219639D01*
X0007567Y0219468D01*
X0007513Y0219295D01*
X0007463Y0219120D01*
X0007418Y0218945D01*
X0007377Y0218768D01*
X0007340Y0218591D01*
X0007307Y0218413D01*
X0007279Y0218234D01*
X0007255Y0218054D01*
X0007235Y0217874D01*
X0007220Y0217693D01*
X0007209Y0217512D01*
X0007202Y0217331D01*
X0007200Y0217150D01*
X0007200Y0035300D01*
X0007202Y0035119D01*
X0007209Y0034938D01*
X0007220Y0034757D01*
X0007235Y0034576D01*
X0007255Y0034396D01*
X0007279Y0034216D01*
X0007307Y0034037D01*
X0007340Y0033859D01*
X0007377Y0033682D01*
X0007418Y0033505D01*
X0007463Y0033330D01*
X0007513Y0033155D01*
X0007567Y0032982D01*
X0007625Y0032811D01*
X0007687Y0032640D01*
X0007754Y0032472D01*
X0007824Y0032305D01*
X0007898Y0032139D01*
X0007977Y0031976D01*
X0008059Y0031815D01*
X0008145Y0031655D01*
X0008235Y0031498D01*
X0008329Y0031343D01*
X0008426Y0031190D01*
X0008528Y0031040D01*
X0008632Y0030892D01*
X0008741Y0030746D01*
X0008852Y0030604D01*
X0008968Y0030464D01*
X0009086Y0030327D01*
X0009208Y0030192D01*
X0009333Y0030061D01*
X0009461Y0029933D01*
X0009592Y0029808D01*
X0009727Y0029686D01*
X0009864Y0029568D01*
X0010004Y0029452D01*
X0010146Y0029341D01*
X0010292Y0029232D01*
X0010440Y0029128D01*
X0010590Y0029026D01*
X0010743Y0028929D01*
X0010898Y0028835D01*
X0011055Y0028745D01*
X0011215Y0028659D01*
X0011376Y0028577D01*
X0011539Y0028498D01*
X0011705Y0028424D01*
X0011872Y0028354D01*
X0012040Y0028287D01*
X0012211Y0028225D01*
X0012382Y0028167D01*
X0012555Y0028113D01*
X0012730Y0028063D01*
X0012905Y0028018D01*
X0013082Y0027977D01*
X0013259Y0027940D01*
X0013437Y0027907D01*
X0013616Y0027879D01*
X0013796Y0027855D01*
X0013976Y0027835D01*
X0014157Y0027820D01*
X0014338Y0027809D01*
X0014519Y0027802D01*
X0014700Y0027800D01*
D11*
G36*
X0076026Y0127127D02*
X0080484Y0122669D01*
X0078810Y0120995D01*
X0074352Y0125453D01*
X0076026Y0127127D01*
G37*
G36*
X0078253Y0129354D02*
X0082711Y0124896D01*
X0081037Y0123222D01*
X0076579Y0127680D01*
X0078253Y0129354D01*
G37*
G36*
X0080480Y0131581D02*
X0084938Y0127123D01*
X0083264Y0125449D01*
X0078806Y0129907D01*
X0080480Y0131581D01*
G37*
G36*
X0082707Y0133808D02*
X0087165Y0129350D01*
X0085491Y0127676D01*
X0081033Y0132134D01*
X0082707Y0133808D01*
G37*
G36*
X0084934Y0136035D02*
X0089392Y0131577D01*
X0087718Y0129903D01*
X0083260Y0134361D01*
X0084934Y0136035D01*
G37*
G36*
X0087161Y0138263D02*
X0091619Y0133805D01*
X0089945Y0132131D01*
X0085487Y0136589D01*
X0087161Y0138263D01*
G37*
G36*
X0089389Y0140490D02*
X0093847Y0136032D01*
X0092173Y0134358D01*
X0087715Y0138816D01*
X0089389Y0140490D01*
G37*
G36*
X0091616Y0142717D02*
X0096074Y0138259D01*
X0094400Y0136585D01*
X0089942Y0141043D01*
X0091616Y0142717D01*
G37*
G36*
X0093843Y0144944D02*
X0098301Y0140486D01*
X0096627Y0138812D01*
X0092169Y0143270D01*
X0093843Y0144944D01*
G37*
G36*
X0096070Y0147171D02*
X0100528Y0142713D01*
X0098854Y0141039D01*
X0094396Y0145497D01*
X0096070Y0147171D01*
G37*
G36*
X0098297Y0149398D02*
X0102755Y0144940D01*
X0101081Y0143266D01*
X0096623Y0147724D01*
X0098297Y0149398D01*
G37*
G36*
X0128363Y0114878D02*
X0132821Y0110420D01*
X0131147Y0108746D01*
X0126689Y0113204D01*
X0128363Y0114878D01*
G37*
G36*
X0130590Y0117105D02*
X0135048Y0112647D01*
X0133374Y0110973D01*
X0128916Y0115431D01*
X0130590Y0117105D01*
G37*
G36*
X0126136Y0112651D02*
X0130594Y0108193D01*
X0128920Y0106519D01*
X0124462Y0110977D01*
X0126136Y0112651D01*
G37*
G36*
X0123909Y0110424D02*
X0128367Y0105966D01*
X0126693Y0104292D01*
X0122235Y0108750D01*
X0123909Y0110424D01*
G37*
G36*
X0121682Y0108197D02*
X0126140Y0103739D01*
X0124466Y0102065D01*
X0120008Y0106523D01*
X0121682Y0108197D01*
G37*
G36*
X0119455Y0105969D02*
X0123913Y0101511D01*
X0122239Y0099837D01*
X0117781Y0104295D01*
X0119455Y0105969D01*
G37*
G36*
X0117227Y0103742D02*
X0121685Y0099284D01*
X0120011Y0097610D01*
X0115553Y0102068D01*
X0117227Y0103742D01*
G37*
G36*
X0115000Y0101515D02*
X0119458Y0097057D01*
X0117784Y0095383D01*
X0113326Y0099841D01*
X0115000Y0101515D01*
G37*
G36*
X0112773Y0099288D02*
X0117231Y0094830D01*
X0115557Y0093156D01*
X0111099Y0097614D01*
X0112773Y0099288D01*
G37*
G36*
X0110546Y0097061D02*
X0115004Y0092603D01*
X0113330Y0090929D01*
X0108872Y0095387D01*
X0110546Y0097061D01*
G37*
G36*
X0108319Y0094834D02*
X0112777Y0090376D01*
X0111103Y0088702D01*
X0106645Y0093160D01*
X0108319Y0094834D01*
G37*
D12*
G36*
X0101081Y0094834D02*
X0102755Y0093160D01*
X0098297Y0088702D01*
X0096623Y0090376D01*
X0101081Y0094834D01*
G37*
G36*
X0098854Y0097061D02*
X0100528Y0095387D01*
X0096070Y0090929D01*
X0094396Y0092603D01*
X0098854Y0097061D01*
G37*
G36*
X0096627Y0099288D02*
X0098301Y0097614D01*
X0093843Y0093156D01*
X0092169Y0094830D01*
X0096627Y0099288D01*
G37*
G36*
X0094400Y0101515D02*
X0096074Y0099841D01*
X0091616Y0095383D01*
X0089942Y0097057D01*
X0094400Y0101515D01*
G37*
G36*
X0092173Y0103742D02*
X0093847Y0102068D01*
X0089389Y0097610D01*
X0087715Y0099284D01*
X0092173Y0103742D01*
G37*
G36*
X0089945Y0105969D02*
X0091619Y0104295D01*
X0087161Y0099837D01*
X0085487Y0101511D01*
X0089945Y0105969D01*
G37*
G36*
X0087718Y0108197D02*
X0089392Y0106523D01*
X0084934Y0102065D01*
X0083260Y0103739D01*
X0087718Y0108197D01*
G37*
G36*
X0085491Y0110424D02*
X0087165Y0108750D01*
X0082707Y0104292D01*
X0081033Y0105966D01*
X0085491Y0110424D01*
G37*
G36*
X0083264Y0112651D02*
X0084938Y0110977D01*
X0080480Y0106519D01*
X0078806Y0108193D01*
X0083264Y0112651D01*
G37*
G36*
X0081037Y0114878D02*
X0082711Y0113204D01*
X0078253Y0108746D01*
X0076579Y0110420D01*
X0081037Y0114878D01*
G37*
G36*
X0078810Y0117105D02*
X0080484Y0115431D01*
X0076026Y0110973D01*
X0074352Y0112647D01*
X0078810Y0117105D01*
G37*
G36*
X0111103Y0149398D02*
X0112777Y0147724D01*
X0108319Y0143266D01*
X0106645Y0144940D01*
X0111103Y0149398D01*
G37*
G36*
X0113330Y0147171D02*
X0115004Y0145497D01*
X0110546Y0141039D01*
X0108872Y0142713D01*
X0113330Y0147171D01*
G37*
G36*
X0115557Y0144944D02*
X0117231Y0143270D01*
X0112773Y0138812D01*
X0111099Y0140486D01*
X0115557Y0144944D01*
G37*
G36*
X0117784Y0142717D02*
X0119458Y0141043D01*
X0115000Y0136585D01*
X0113326Y0138259D01*
X0117784Y0142717D01*
G37*
G36*
X0120011Y0140490D02*
X0121685Y0138816D01*
X0117227Y0134358D01*
X0115553Y0136032D01*
X0120011Y0140490D01*
G37*
G36*
X0122239Y0138263D02*
X0123913Y0136589D01*
X0119455Y0132131D01*
X0117781Y0133805D01*
X0122239Y0138263D01*
G37*
G36*
X0124466Y0136035D02*
X0126140Y0134361D01*
X0121682Y0129903D01*
X0120008Y0131577D01*
X0124466Y0136035D01*
G37*
G36*
X0126693Y0133808D02*
X0128367Y0132134D01*
X0123909Y0127676D01*
X0122235Y0129350D01*
X0126693Y0133808D01*
G37*
G36*
X0128920Y0131581D02*
X0130594Y0129907D01*
X0126136Y0125449D01*
X0124462Y0127123D01*
X0128920Y0131581D01*
G37*
G36*
X0131147Y0129354D02*
X0132821Y0127680D01*
X0128363Y0123222D01*
X0126689Y0124896D01*
X0131147Y0129354D01*
G37*
G36*
X0133374Y0127127D02*
X0135048Y0125453D01*
X0130590Y0120995D01*
X0128916Y0122669D01*
X0133374Y0127127D01*
G37*
D13*
X0135900Y0177800D03*
X0130500Y0187800D03*
X0125100Y0177800D03*
X0119700Y0187800D03*
X0114300Y0177800D03*
X0108900Y0187800D03*
X0103500Y0177800D03*
X0098100Y0187800D03*
X0092700Y0177800D03*
X0087300Y0187800D03*
X0081900Y0177800D03*
X0024700Y0180300D03*
X0024700Y0170300D03*
X0024700Y0160300D03*
X0024700Y0150300D03*
X0024700Y0140300D03*
X0014700Y0140300D03*
X0014700Y0150300D03*
X0014700Y0160300D03*
X0014700Y0170300D03*
X0014700Y0180300D03*
X0014700Y0190300D03*
X0014700Y0200300D03*
X0014700Y0210300D03*
X0024700Y0210300D03*
X0024700Y0200300D03*
X0024700Y0190300D03*
X0065600Y0075300D03*
X0071000Y0065300D03*
X0076400Y0075300D03*
X0081800Y0065300D03*
X0087200Y0075300D03*
X0092600Y0065300D03*
X0098000Y0075300D03*
X0103400Y0065300D03*
X0108800Y0075300D03*
X0182200Y0075300D03*
X0182200Y0065300D03*
X0182200Y0055300D03*
X0182200Y0045300D03*
X0192200Y0045300D03*
X0192200Y0055300D03*
X0192200Y0065300D03*
X0192200Y0075300D03*
X0192200Y0085300D03*
X0182200Y0085300D03*
X0157500Y0177800D03*
X0152100Y0187800D03*
X0146700Y0177800D03*
X0141300Y0187800D03*
D14*
X0185300Y0182800D03*
X0136500Y0070300D03*
X0054100Y0182800D03*
X0037900Y0070300D03*
D15*
X0167700Y0137800D03*
X0186700Y0137800D03*
D16*
X0187200Y0119040D03*
X0187200Y0111560D03*
X0167200Y0111560D03*
X0167200Y0119040D03*
D17*
X0169700Y0078646D03*
X0169700Y0071954D03*
D18*
G36*
X0070602Y0089349D02*
X0065866Y0084613D01*
X0057234Y0093245D01*
X0061970Y0097981D01*
X0070602Y0089349D01*
G37*
G36*
X0058631Y0101320D02*
X0053895Y0096584D01*
X0045263Y0105216D01*
X0049999Y0109952D01*
X0058631Y0101320D01*
G37*
M02*
